SplineFontDB: 3.2
FontName: FiraSans-ExtraLight
FullName: Fira Sans ExtraLight
FamilyName: Fira Sans ExtraLight
Weight: Light
Copyright: Digitized data copyright 2012-2016, The Mozilla Foundation and Telefonica S.A.
Version: 4.203
ItalicAngle: 0
UnderlinePosition: -100
UnderlineWidth: 50
Ascent: 800
Descent: 200
InvalidEm: 0
sfntRevision: 0x000433f7
LayerCount: 2
Layer: 0 1 "Back" 1
Layer: 1 1 "Fore" 0
XUID: [1021 78 476559263 1191611]
StyleMap: 0x0040
FSType: 0
OS2Version: 4
OS2_WeightWidthSlopeOnly: 0
OS2_UseTypoMetrics: 1
CreationTime: 1476947922
ModificationTime: 1480667555
PfmFamily: 17
TTFWeight: 275
TTFWidth: 5
LineGap: 0
VLineGap: 0
Panose: 2 11 4 3 5 0 0 2 0 4
OS2TypoAscent: 935
OS2TypoAOffset: 0
OS2TypoDescent: -265
OS2TypoDOffset: 0
OS2TypoLinegap: 0
OS2WinAscent: 935
OS2WinAOffset: 0
OS2WinDescent: 265
OS2WinDOffset: 0
HheadAscent: 935
HheadAOffset: 0
HheadDescent: -265
HheadDOffset: 0
OS2SubXSize: 650
OS2SubYSize: 600
OS2SubXOff: 0
OS2SubYOff: 75
OS2SupXSize: 650
OS2SupYSize: 600
OS2SupXOff: 0
OS2SupYOff: 350
OS2StrikeYSize: 50
OS2StrikeYPos: 313
OS2CapHeight: 684
OS2XHeight: 522
OS2Vendor: 'CTDB'
OS2CodePages: 2000019f.00000000
OS2UnicodeRanges: 600002ff.00000001.00000000.00000000
Lookup: 1 0 0 "'aalt' Access All Alternates lookup 0" { "'aalt' Access All Alternates lookup 0 subtable"  } ['aalt' ('DFLT' <'dflt' > 'cyrl' <'dflt' > 'grek' <'dflt' > 'latn' <'AFK ' 'AZE ' 'CAT ' 'CRT ' 'KAZ ' 'MOL ' 'PLK ' 'ROM ' 'TAT ' 'TRK ' 'dflt' > ) ]
Lookup: 3 0 0 "'aalt' Access All Alternates lookup 1" { "'aalt' Access All Alternates lookup 1 subtable"  } ['aalt' ('DFLT' <'dflt' > 'cyrl' <'dflt' > 'grek' <'dflt' > 'latn' <'AFK ' 'AZE ' 'CAT ' 'CRT ' 'KAZ ' 'MOL ' 'PLK ' 'ROM ' 'TAT ' 'TRK ' 'dflt' > ) ]
Lookup: 1 0 0 "'locl' Localized Forms in Latin lookup 2" { "'locl' Localized Forms in Latin lookup 2 subtable"  } ['locl' ('latn' <'TAT ' > ) ]

StartChar: .notdef
Encoding: 65536 -1 0
Width: 666
GlyphClass: 1
Flags: W
LayerCount: 2
Fore
SplineSet
543 1050 m 1,0,-1
 543 -350 l 1,1,-1
 123 -350 l 1,2,-1
 123 1050 l 1,3,-1
 543 1050 l 1,0,-1
489 998 m 1,4,-1
 178 998 l 1,5,-1
 178 -298 l 1,6,-1
 489 -298 l 1,7,-1
 489 998 l 1,4,-1
409.5 419 m 128,-1,9
 435 387 435 387 435 336 c 0,10,11
 435 283 435 283 412.5 254 c 128,-1,12
 390 225 390 225 340 218 c 1,13,-1
 340 173 l 2,14,15
 340 162 340 162 332.5 155.5 c 128,-1,16
 325 149 325 149 315 149 c 256,17,18
 305 149 305 149 297.5 155.5 c 128,-1,19
 290 162 290 162 290 173 c 2,20,-1
 290 257 l 1,21,22
 343 260 343 260 362 276.5 c 128,-1,23
 381 293 381 293 381 334 c 0,24,25
 381 367 381 367 368 385 c 128,-1,26
 355 403 355 403 320 403 c 0,27,28
 291 403 291 403 268 392 c 0,29,30
 260 389 260 389 255 389 c 0,31,32
 244 389 244 389 237.5 395.5 c 128,-1,33
 231 402 231 402 231 412 c 0,34,35
 231 431 231 431 260.5 441 c 128,-1,36
 290 451 290 451 324 451 c 0,37,8
 384 451 384 451 409.5 419 c 128,-1,9
340 110 m 128,-1,39
 350 100 350 100 350 85 c 0,40,41
 350 69 350 69 340 58.5 c 128,-1,42
 330 48 330 48 315 48 c 256,43,44
 300 48 300 48 290 58.5 c 128,-1,45
 280 69 280 69 280 85 c 0,46,47
 280 100 280 100 290 110 c 128,-1,48
 300 120 300 120 315 120 c 256,49,38
 330 120 330 120 340 110 c 128,-1,39
EndSplineSet
EndChar

StartChar: A
Encoding: 65 65 3
Width: 562
GlyphClass: 2
Flags: W
AnchorPoint: "Anchor-18" 0 0 basechar 0
AnchorPoint: "Anchor-17" 0 0 basechar 0
AnchorPoint: "Anchor-16" 281 684 basechar 0
AnchorPoint: "Anchor-15" 541 0 basechar 0
AnchorPoint: "Anchor-14" 281 0 basechar 0
LayerCount: 2
Fore
SplineSet
491 0 m 1,0,-1
 428 192 l 1,1,-1
 131 192 l 1,2,-1
 68 0 l 1,3,-1
 20 0 l 1,4,-1
 251 684 l 1,5,-1
 311 684 l 1,6,-1
 542 0 l 1,7,-1
 491 0 l 1,0,-1
145 234 m 1,8,-1
 415 234 l 1,9,-1
 281 645 l 1,10,-1
 145 234 l 1,8,-1
EndSplineSet
Substitution2: "Single Substitution lookup 45 subtable" ordfeminine
Substitution2: "'c2sc' Capitals to Small Capitals lookup 26 subtable" a.sc
AlternateSubs2: "'aalt' Access All Alternates lookup 1 subtable" ordfeminine a.sc
Position2: "'cpsp' Capital Spacing lookup 0 subtable" dx=5 dy=0 dh=10 dv=0
EndChar

StartChar: uni2C6D
Encoding: 11373 11373 27
Width: 671
GlyphClass: 2
Flags: W
AnchorPoint: "Anchor-18" 0 0 basechar 0
AnchorPoint: "Anchor-17" 0 0 basechar 0
AnchorPoint: "Anchor-16" 336 684 basechar 0
AnchorPoint: "Anchor-15" 0 0 basechar 0
AnchorPoint: "Anchor-14" 336 0 basechar 0
LayerCount: 2
Fore
SplineSet
563.5 59 m 128,-1,1
 574 42 574 42 600 31 c 1,2,-1
 585 -7 l 1,3,4
 548 5 548 5 530 23.5 c 128,-1,5
 512 42 512 42 507 76 c 1,6,7
 440 -11 440 -11 331 -11 c 0,8,9
 257 -11 257 -11 197.5 28 c 128,-1,10
 138 67 138 67 104 143.5 c 128,-1,11
 70 220 70 220 70 329 c 0,12,13
 70 444 70 444 104.5 526.5 c 128,-1,14
 139 609 139 609 199.5 651.5 c 128,-1,15
 260 694 260 694 337 694 c 0,16,17
 440 694 440 694 507 619 c 1,18,-1
 511 684 l 1,19,-1
 553 684 l 1,20,-1
 553 115 l 2,21,0
 553 76 553 76 563.5 59 c 128,-1,1
505 124 m 1,23,-1
 505 572 l 1,24,25
 441 653 441 653 340 653 c 0,26,27
 240 653 240 653 180 571 c 128,-1,28
 120 489 120 489 120 329 c 0,29,30
 120 230 120 230 148 163.5 c 128,-1,31
 176 97 176 97 224 64 c 128,-1,32
 272 31 272 31 333 31 c 0,33,22
 437 31 437 31 505 124 c 1,23,-1
EndSplineSet
Substitution2: "'c2sc' Capitals to Small Capitals lookup 26 subtable" uni0251.sc
Substitution2: "'aalt' Access All Alternates lookup 0 subtable" uni0251.sc
Position2: "'cpsp' Capital Spacing lookup 0 subtable" dx=5 dy=0 dh=10 dv=0
EndChar

StartChar: Aogonek
Encoding: 260 260 29
Width: 562
GlyphClass: 2
Flags: W
AnchorPoint: "Anchor-18" 0 0 basechar 0
AnchorPoint: "Anchor-17" 0 0 basechar 0
AnchorPoint: "Anchor-16" 281 684 basechar 0
AnchorPoint: "Anchor-15" 541 0 basechar 0
AnchorPoint: "Anchor-14" 281 0 basechar 0
LayerCount: 2
Fore
SplineSet
437 -56 m 128,-1,1
 409 -82 409 -82 409 -119 c 0,2,3
 409 -144 409 -144 425 -158 c 128,-1,4
 441 -172 441 -172 474 -172 c 0,5,6
 499 -172 499 -172 531 -166 c 1,7,-1
 527 -206 l 1,8,9
 492 -213 492 -213 470 -213 c 0,10,11
 419 -213 419 -213 391.5 -188 c 128,-1,12
 364 -163 364 -163 364 -124 c 0,13,14
 364 -82 364 -82 394.5 -50 c 128,-1,15
 425 -18 425 -18 488 9 c 1,16,-1
 428 192 l 1,17,-1
 131 192 l 1,18,-1
 68 0 l 1,19,-1
 20 0 l 1,20,-1
 251 684 l 1,21,-1
 311 684 l 1,22,-1
 542 0 l 1,23,-1
 531 0 l 1,24,0
 465 -30 465 -30 437 -56 c 128,-1,1
145 234 m 1,25,-1
 415 234 l 1,26,-1
 281 645 l 1,27,-1
 145 234 l 1,25,-1
EndSplineSet
Substitution2: "'c2sc' Capitals to Small Capitals lookup 26 subtable" aogonek.sc
Substitution2: "'aalt' Access All Alternates lookup 0 subtable" aogonek.sc
Position2: "'cpsp' Capital Spacing lookup 0 subtable" dx=5 dy=0 dh=10 dv=0
EndChar

StartChar: uni023A
Encoding: 570 570 32
Width: 562
GlyphClass: 2
Flags: W
AnchorPoint: "Anchor-18" 0 0 basechar 0
AnchorPoint: "Anchor-17" 0 0 basechar 0
AnchorPoint: "Anchor-16" 281 684 basechar 0
AnchorPoint: "Anchor-15" 0 0 basechar 0
AnchorPoint: "Anchor-14" 281 0 basechar 0
LayerCount: 2
Fore
SplineSet
492 0 m 1,0,-1
 429 192 l 1,1,-1
 269 192 l 1,2,-1
 200 -70 l 1,3,-1
 171 -63 l 1,4,-1
 238 192 l 1,5,-1
 131 192 l 1,6,-1
 67 0 l 1,7,-1
 20 0 l 1,8,-1
 251 684 l 1,9,-1
 311 684 l 1,10,-1
 343 590 l 1,11,-1
 383 743 l 1,12,-1
 411 735 l 1,13,-1
 360 540 l 1,14,-1
 542 0 l 1,15,-1
 492 0 l 1,0,-1
144 233 m 1,16,-1
 249 233 l 1,17,-1
 323 517 l 1,18,-1
 281 647 l 1,19,-1
 144 233 l 1,16,-1
279 233 m 1,20,-1
 416 233 l 1,21,-1
 340 465 l 1,22,-1
 279 233 l 1,20,-1
EndSplineSet
Substitution2: "'c2sc' Capitals to Small Capitals lookup 26 subtable" uni2C65.sc
Substitution2: "'aalt' Access All Alternates lookup 0 subtable" uni2C65.sc
Position2: "'cpsp' Capital Spacing lookup 0 subtable" dx=5 dy=0 dh=10 dv=0
EndChar

StartChar: AE
Encoding: 198 198 34
Width: 772
GlyphClass: 2
Flags: W
AnchorPoint: "Anchor-18" 0 0 basechar 0
AnchorPoint: "Anchor-17" 0 0 basechar 0
AnchorPoint: "Anchor-16" 450 684 basechar 0
AnchorPoint: "Anchor-15" 0 0 basechar 0
AnchorPoint: "Anchor-14" 386 0 basechar 0
LayerCount: 2
Fore
SplineSet
499 41 m 1,0,-1
 729 41 l 1,1,-1
 729 0 l 1,2,-1
 462 0 l 1,3,-1
 414 188 l 1,4,-1
 123 188 l 1,5,-1
 52 0 l 1,6,-1
 4 0 l 1,7,-1
 269 684 l 1,8,-1
 679 684 l 1,9,-1
 673 643 l 1,10,-1
 343 643 l 1,11,-1
 412 377 l 1,12,-1
 671 377 l 1,13,-1
 671 336 l 1,14,-1
 423 336 l 1,15,-1
 499 41 l 1,0,-1
139 229 m 1,16,-1
 404 229 l 1,17,-1
 297 646 l 1,18,-1
 139 229 l 1,16,-1
EndSplineSet
Substitution2: "'c2sc' Capitals to Small Capitals lookup 26 subtable" ae.sc
Substitution2: "'aalt' Access All Alternates lookup 0 subtable" ae.sc
Position2: "'cpsp' Capital Spacing lookup 0 subtable" dx=5 dy=0 dh=10 dv=0
EndChar

StartChar: B
Encoding: 66 66 37
Width: 594
GlyphClass: 2
Flags: W
AnchorPoint: "Anchor-18" 0 0 basechar 0
AnchorPoint: "Anchor-17" 0 0 basechar 0
AnchorPoint: "Anchor-16" 294 684 basechar 0
AnchorPoint: "Anchor-15" 0 0 basechar 0
AnchorPoint: "Anchor-14" 310 0 basechar 0
LayerCount: 2
Fore
SplineSet
493.5 313.5 m 128,-1,1
 538 271 538 271 538 188 c 0,2,3
 538 96 538 96 475.5 48 c 128,-1,4
 413 0 413 0 300 0 c 2,5,-1
 115 0 l 1,6,-1
 115 684 l 1,7,-1
 264 684 l 2,8,9
 380 684 380 684 442.5 641 c 128,-1,10
 505 598 505 598 505 514 c 0,11,12
 505 449 505 449 471.5 411 c 128,-1,13
 438 373 438 373 380 363 c 1,14,0
 449 356 449 356 493.5 313.5 c 128,-1,1
162 643 m 1,15,-1
 162 380 l 1,16,-1
 312 380 l 2,17,18
 377 380 377 380 416.5 415 c 128,-1,19
 456 450 456 450 456 511 c 0,20,21
 456 580 456 580 408.5 611.5 c 128,-1,22
 361 643 361 643 269 643 c 2,23,-1
 162 643 l 1,15,-1
439 77 m 128,-1,25
 488 113 488 113 488 188 c 0,26,27
 488 264 488 264 441.5 302 c 128,-1,28
 395 340 395 340 318 340 c 2,29,-1
 162 340 l 1,30,-1
 162 41 l 1,31,-1
 301 41 l 2,32,24
 390 41 390 41 439 77 c 128,-1,25
EndSplineSet
Substitution2: "'c2sc' Capitals to Small Capitals lookup 26 subtable" b.sc
Substitution2: "'aalt' Access All Alternates lookup 0 subtable" b.sc
Position2: "'cpsp' Capital Spacing lookup 0 subtable" dx=5 dy=0 dh=10 dv=0
EndChar

StartChar: uniA7B4
Encoding: 42932 42932 40
Width: 594
GlyphClass: 2
Flags: W
AnchorPoint: "Anchor-18" 0 0 basechar 0
AnchorPoint: "Anchor-17" 0 0 basechar 0
AnchorPoint: "Anchor-16" 297 684 basechar 0
AnchorPoint: "Anchor-15" 0 0 basechar 0
AnchorPoint: "Anchor-14" 297 -195 basechar 0
LayerCount: 2
Fore
SplineSet
494 315.5 m 128,-1,1
 538 275 538 275 538 195 c 0,2,3
 538 102 538 102 478 51 c 128,-1,4
 418 0 418 0 316 0 c 0,5,6
 234 0 234 0 162 27 c 1,7,-1
 162 -195 l 1,8,-1
 115 -195 l 1,9,-1
 115 684 l 1,10,-1
 264 684 l 2,11,12
 380 684 380 684 442.5 641 c 128,-1,13
 505 598 505 598 505 514 c 0,14,15
 505 449 505 449 471.5 411 c 128,-1,16
 438 373 438 373 380 363 c 1,17,0
 450 356 450 356 494 315.5 c 128,-1,1
441.5 80 m 128,-1,19
 488 119 488 119 488 195 c 0,20,21
 488 268 488 268 441.5 304 c 128,-1,22
 395 340 395 340 318 340 c 2,23,-1
 243 340 l 1,24,-1
 248 380 l 1,25,-1
 312 380 l 2,26,27
 377 380 377 380 416.5 415 c 128,-1,28
 456 450 456 450 456 511 c 0,29,30
 456 580 456 580 408.5 611.5 c 128,-1,31
 361 643 361 643 269 643 c 2,32,-1
 162 643 l 1,33,-1
 162 66 l 1,34,35
 237 41 237 41 316 41 c 256,36,18
 395 41 395 41 441.5 80 c 128,-1,19
EndSplineSet
Substitution2: "'c2sc' Capitals to Small Capitals lookup 26 subtable" uniA7B5.sc
Substitution2: "'aalt' Access All Alternates lookup 0 subtable" uniA7B5.sc
Position2: "'cpsp' Capital Spacing lookup 0 subtable" dx=5 dy=0 dh=10 dv=0
EndChar

StartChar: uni0181
Encoding: 385 385 41
Width: 646
GlyphClass: 2
Flags: W
AnchorPoint: "Anchor-18" 0 0 basechar 0
AnchorPoint: "Anchor-17" 0 0 basechar 0
AnchorPoint: "Anchor-16" 346 684 basechar 0
AnchorPoint: "Anchor-15" 0 0 basechar 0
AnchorPoint: "Anchor-14" 362 0 basechar 0
LayerCount: 2
Fore
SplineSet
545.5 313.5 m 128,-1,1
 590 271 590 271 590 188 c 0,2,3
 590 96 590 96 527.5 48 c 128,-1,4
 465 0 465 0 352 0 c 2,5,-1
 167 0 l 1,6,-1
 167 644 l 1,7,-1
 138 644 l 2,8,9
 99 644 99 644 80.5 625.5 c 128,-1,10
 62 607 62 607 62 576 c 0,11,12
 62 555 62 555 68 538.5 c 128,-1,13
 74 522 74 522 85 501 c 1,14,-1
 51 482 l 1,15,16
 34 508 34 508 25.5 528.5 c 128,-1,17
 17 549 17 549 17 577 c 0,18,19
 17 625 17 625 50 654.5 c 128,-1,20
 83 684 83 684 143 684 c 2,21,-1
 316 684 l 2,22,23
 432 684 432 684 494.5 641 c 128,-1,24
 557 598 557 598 557 514 c 0,25,26
 557 449 557 449 523.5 411 c 128,-1,27
 490 373 490 373 432 363 c 1,28,0
 501 356 501 356 545.5 313.5 c 128,-1,1
214 643 m 1,29,-1
 214 380 l 1,30,-1
 364 380 l 2,31,32
 429 380 429 380 468.5 415 c 128,-1,33
 508 450 508 450 508 511 c 0,34,35
 508 580 508 580 460.5 611.5 c 128,-1,36
 413 643 413 643 321 643 c 2,37,-1
 214 643 l 1,29,-1
491 77 m 128,-1,39
 540 113 540 113 540 188 c 0,40,41
 540 264 540 264 493.5 302 c 128,-1,42
 447 340 447 340 370 340 c 2,43,-1
 214 340 l 1,44,-1
 214 41 l 1,45,-1
 353 41 l 2,46,38
 442 41 442 41 491 77 c 128,-1,39
EndSplineSet
Substitution2: "'ss02' Style Set 2 lookup 34 subtable" uni0181.ss02
Substitution2: "'salt' Stylistic Alternatives lookup 32 subtable" uni0181.ss02
Substitution2: "'c2sc' Capitals to Small Capitals lookup 26 subtable" uni0253.sc
AlternateSubs2: "'aalt' Access All Alternates lookup 1 subtable" uni0253.sc uni0181.ss02
Position2: "'cpsp' Capital Spacing lookup 0 subtable" dx=5 dy=0 dh=10 dv=0
EndChar

StartChar: uni0243
Encoding: 579 579 43
Width: 594
GlyphClass: 2
Flags: W
AnchorPoint: "Anchor-18" 0 0 basechar 0
AnchorPoint: "Anchor-17" 0 0 basechar 0
AnchorPoint: "Anchor-16" 294 684 basechar 0
AnchorPoint: "Anchor-15" 0 0 basechar 0
AnchorPoint: "Anchor-14" 310 0 basechar 0
LayerCount: 2
Fore
SplineSet
493.5 313.5 m 128,-1,1
 538 271 538 271 538 188 c 0,2,3
 538 96 538 96 475.5 48 c 128,-1,4
 413 0 413 0 300 0 c 2,5,-1
 115 0 l 1,6,-1
 115 177 l 1,7,-1
 24 177 l 1,8,-1
 24 216 l 1,9,-1
 115 216 l 1,10,-1
 115 684 l 1,11,-1
 264 684 l 2,12,13
 380 684 380 684 442.5 641 c 128,-1,14
 505 598 505 598 505 514 c 0,15,16
 505 449 505 449 471.5 411 c 128,-1,17
 438 373 438 373 380 363 c 1,18,0
 449 356 449 356 493.5 313.5 c 128,-1,1
162 643 m 1,19,-1
 162 380 l 1,20,-1
 312 380 l 2,21,22
 377 380 377 380 416.5 415 c 128,-1,23
 456 450 456 450 456 511 c 0,24,25
 456 580 456 580 408.5 611.5 c 128,-1,26
 361 643 361 643 269 643 c 2,27,-1
 162 643 l 1,19,-1
439 77 m 128,-1,29
 488 113 488 113 488 188 c 0,30,31
 488 264 488 264 441.5 302 c 128,-1,32
 395 340 395 340 318 340 c 2,33,-1
 162 340 l 1,34,-1
 162 216 l 1,35,-1
 344 216 l 1,36,-1
 344 177 l 1,37,-1
 162 177 l 1,38,-1
 162 41 l 1,39,-1
 301 41 l 2,40,28
 390 41 390 41 439 77 c 128,-1,29
EndSplineSet
Substitution2: "'c2sc' Capitals to Small Capitals lookup 26 subtable" uni0180.sc
Substitution2: "'aalt' Access All Alternates lookup 0 subtable" uni0180.sc
Position2: "'cpsp' Capital Spacing lookup 0 subtable" dx=5 dy=0 dh=10 dv=0
EndChar

StartChar: C
Encoding: 67 67 45
Width: 547
GlyphClass: 2
Flags: W
AnchorPoint: "Anchor-18" 331 345 basechar 0
AnchorPoint: "Anchor-17" 0 0 basechar 0
AnchorPoint: "Anchor-16" 343 684 basechar 0
AnchorPoint: "Anchor-15" 0 0 basechar 0
AnchorPoint: "Anchor-14" 342 0 basechar 0
LayerCount: 2
Fore
SplineSet
438 679 m 128,-1,1
 477 664 477 664 515 633 c 1,2,-1
 489 601 l 1,3,4
 453 629 453 629 421 641 c 128,-1,5
 389 653 389 653 347 653 c 0,6,7
 246 653 246 653 183 576.5 c 128,-1,8
 120 500 120 500 120 342 c 0,9,10
 120 240 120 240 149.5 170.5 c 128,-1,11
 179 101 179 101 229.5 66.5 c 128,-1,12
 280 32 280 32 344 32 c 0,13,14
 393 32 393 32 427 46.5 c 128,-1,15
 461 61 461 61 497 90 c 1,16,-1
 523 58 l 1,17,18
 447 -11 447 -11 342 -11 c 0,19,20
 263 -11 263 -11 201.5 30 c 128,-1,21
 140 71 140 71 105 150.5 c 128,-1,22
 70 230 70 230 70 342 c 0,23,24
 70 456 70 456 106 535 c 128,-1,25
 142 614 142 614 204.5 654 c 128,-1,26
 267 694 267 694 344 694 c 0,27,0
 399 694 399 694 438 679 c 128,-1,1
EndSplineSet
Substitution2: "'c2sc' Capitals to Small Capitals lookup 26 subtable" c.sc
Substitution2: "'aalt' Access All Alternates lookup 0 subtable" c.sc
Position2: "'cpsp' Capital Spacing lookup 0 subtable" dx=5 dy=0 dh=10 dv=0
EndChar

StartChar: Ccedilla
Encoding: 199 199 49
Width: 547
GlyphClass: 2
Flags: W
AnchorPoint: "Anchor-18" 331 345 basechar 0
AnchorPoint: "Anchor-17" 0 0 basechar 0
AnchorPoint: "Anchor-16" 343 684 basechar 0
AnchorPoint: "Anchor-15" 0 0 basechar 0
AnchorPoint: "Anchor-14" 359 -222 basechar 0
LayerCount: 2
Fore
SplineSet
444 -140 m 0,1,2
 444 -178 444 -178 415.5 -200 c 128,-1,3
 387 -222 387 -222 345 -222 c 0,4,5
 302 -222 302 -222 269 -202 c 1,6,-1
 285 -172 l 1,7,8
 313 -187 313 -187 344 -187 c 0,9,10
 369 -187 369 -187 385 -175 c 128,-1,11
 401 -163 401 -163 401 -140 c 256,12,13
 401 -117 401 -117 380 -106 c 128,-1,14
 359 -95 359 -95 312 -95 c 1,15,-1
 319 -10 l 1,16,17
 246 -4 246 -4 189.5 38.5 c 128,-1,18
 133 81 133 81 101.5 158.5 c 128,-1,19
 70 236 70 236 70 342 c 0,20,21
 70 456 70 456 106 535 c 128,-1,22
 142 614 142 614 204.5 654 c 128,-1,23
 267 694 267 694 344 694 c 0,24,25
 399 694 399 694 438 679 c 128,-1,26
 477 664 477 664 515 633 c 1,27,-1
 489 601 l 1,28,29
 453 629 453 629 421 641 c 128,-1,30
 389 653 389 653 347 653 c 0,31,32
 246 653 246 653 183 576.5 c 128,-1,33
 120 500 120 500 120 342 c 0,34,35
 120 240 120 240 149.5 170.5 c 128,-1,36
 179 101 179 101 229.5 66.5 c 128,-1,37
 280 32 280 32 344 32 c 0,38,39
 393 32 393 32 427 46.5 c 128,-1,40
 461 61 461 61 497 90 c 1,41,-1
 523 58 l 1,42,43
 449 -8 449 -8 352 -11 c 1,44,-1
 352 -67 l 1,45,0
 444 -74 444 -74 444 -140 c 0,1,2
EndSplineSet
Substitution2: "'c2sc' Capitals to Small Capitals lookup 26 subtable" ccedilla.sc
Substitution2: "'aalt' Access All Alternates lookup 0 subtable" ccedilla.sc
Position2: "'cpsp' Capital Spacing lookup 0 subtable" dx=5 dy=0 dh=10 dv=0
EndChar

StartChar: uniA7B3
Encoding: 42931 42931 52
Width: 499
GlyphClass: 2
Flags: W
AnchorPoint: "Anchor-18" 0 0 basechar 0
AnchorPoint: "Anchor-17" 0 0 basechar 0
AnchorPoint: "Anchor-16" 248 684 basechar 0
AnchorPoint: "Anchor-15" 0 0 basechar 0
AnchorPoint: "Anchor-14" 248 -195 basechar 0
LayerCount: 2
Fore
SplineSet
274 319 m 1,0,-1
 486 -109 l 1,1,-1
 432 -109 l 1,2,-1
 246 287 l 1,3,-1
 64 -109 l 1,4,-1
 12 -109 l 1,5,-1
 218 317 l 1,6,-1
 33 684 l 1,7,-1
 87 684 l 1,8,-1
 247 347 l 1,9,-1
 405 684 l 1,10,-1
 457 684 l 1,11,-1
 274 319 l 1,0,-1
EndSplineSet
Substitution2: "'c2sc' Capitals to Small Capitals lookup 26 subtable" uniAB53.sc
Substitution2: "'aalt' Access All Alternates lookup 0 subtable" uniAB53.sc
Position2: "'cpsp' Capital Spacing lookup 0 subtable" dx=5 dy=0 dh=10 dv=0
EndChar

StartChar: uni0187
Encoding: 391 391 53
Width: 547
GlyphClass: 2
Flags: W
AnchorPoint: "Anchor-18" 0 0 basechar 0
AnchorPoint: "Anchor-17" 0 0 basechar 0
AnchorPoint: "Anchor-16" 273 684 basechar 0
AnchorPoint: "Anchor-15" 0 0 basechar 0
AnchorPoint: "Anchor-14" 273 0 basechar 0
LayerCount: 2
Fore
SplineSet
682 789 m 1,1,-1
 662 759 l 1,2,3
 644 770 644 770 626.5 776 c 128,-1,4
 609 782 609 782 586 782 c 0,5,6
 515 782 515 782 515 696 c 2,7,-1
 515 633 l 1,8,-1
 492 605 l 1,9,10
 454 630 454 630 421.5 641.5 c 128,-1,11
 389 653 389 653 347 653 c 0,12,13
 246 653 246 653 183 576.5 c 128,-1,14
 120 500 120 500 120 342 c 0,15,16
 120 240 120 240 149.5 170.5 c 128,-1,17
 179 101 179 101 229.5 66.5 c 128,-1,18
 280 32 280 32 344 32 c 0,19,20
 393 32 393 32 426.5 46.5 c 128,-1,21
 460 61 460 61 496 90 c 1,22,-1
 523 58 l 1,23,24
 449 -11 449 -11 342 -11 c 0,25,26
 263 -11 263 -11 201.5 30 c 128,-1,27
 140 71 140 71 105 150.5 c 128,-1,28
 70 230 70 230 70 342 c 0,29,30
 70 456 70 456 106 535 c 128,-1,31
 142 614 142 614 204.5 654 c 128,-1,32
 267 694 267 694 344 694 c 0,33,34
 416 694 416 694 469 661 c 1,35,-1
 469 695 l 2,36,37
 469 757 469 757 499.5 789.5 c 128,-1,38
 530 822 530 822 584 822 c 0,39,0
 639 822 639 822 682 789 c 1,1,-1
EndSplineSet
Substitution2: "'c2sc' Capitals to Small Capitals lookup 26 subtable" uni0188.sc
Substitution2: "'aalt' Access All Alternates lookup 0 subtable" uni0188.sc
Position2: "'cpsp' Capital Spacing lookup 0 subtable" dx=5 dy=0 dh=10 dv=0
EndChar

StartChar: uni023B
Encoding: 571 571 54
Width: 547
GlyphClass: 2
Flags: W
AnchorPoint: "Anchor-18" 331 345 basechar 0
AnchorPoint: "Anchor-17" 0 0 basechar 0
AnchorPoint: "Anchor-16" 273 684 basechar 0
AnchorPoint: "Anchor-15" 0 0 basechar 0
AnchorPoint: "Anchor-14" 273 0 basechar 0
LayerCount: 2
Fore
SplineSet
342 -11 m 0,1,2
 292 -11 292 -11 251 5 c 1,3,-1
 231 -70 l 1,4,-1
 203 -63 l 1,5,-1
 224 17 l 1,6,7
 152 54 152 54 111 137 c 128,-1,8
 70 220 70 220 70 342 c 0,9,10
 70 456 70 456 106 535 c 128,-1,11
 142 614 142 614 204.5 654 c 128,-1,12
 267 694 267 694 344 694 c 0,13,14
 373 694 373 694 401 689 c 1,15,-1
 415 743 l 1,16,-1
 442 735 l 1,17,-1
 428 682 l 1,18,19
 471 669 471 669 515 633 c 1,20,-1
 489 601 l 1,21,22
 448 632 448 632 418 642 c 1,23,-1
 262 48 l 1,24,25
 298 32 298 32 344 32 c 0,26,27
 393 32 393 32 427 46.5 c 128,-1,28
 461 61 461 61 497 90 c 1,29,-1
 523 58 l 1,30,0
 447 -11 447 -11 342 -11 c 0,1,2
150.5 166.5 m 128,-1,32
 181 96 181 96 236 62 c 1,33,-1
 390 649 l 1,34,35
 373 653 373 653 347 653 c 0,36,37
 246 653 246 653 183 576.5 c 128,-1,38
 120 500 120 500 120 342 c 0,39,31
 120 237 120 237 150.5 166.5 c 128,-1,32
EndSplineSet
Substitution2: "'c2sc' Capitals to Small Capitals lookup 26 subtable" uni023C.sc
Substitution2: "'aalt' Access All Alternates lookup 0 subtable" uni023C.sc
Position2: "'cpsp' Capital Spacing lookup 0 subtable" dx=5 dy=0 dh=10 dv=0
EndChar

StartChar: D
Encoding: 68 68 55
Width: 628
GlyphClass: 2
Flags: W
AnchorPoint: "Anchor-18" 319 342 basechar 0
AnchorPoint: "Anchor-17" 0 0 basechar 0
AnchorPoint: "Anchor-16" 299 684 basechar 0
AnchorPoint: "Anchor-15" 0 0 basechar 0
AnchorPoint: "Anchor-14" 300 0 basechar 0
LayerCount: 2
Fore
SplineSet
472 612 m 128,-1,1
 558 540 558 540 558 348 c 0,2,3
 558 155 558 155 470 77.5 c 128,-1,4
 382 0 382 0 255 0 c 2,5,-1
 115 0 l 1,6,-1
 115 684 l 1,7,-1
 248 684 l 2,8,0
 386 684 386 684 472 612 c 128,-1,1
162 643 m 1,9,-1
 162 41 l 1,10,-1
 258 41 l 2,11,12
 508 41 508 41 508 348 c 0,13,14
 508 468 508 468 472 533.5 c 128,-1,15
 436 599 436 599 380 621 c 128,-1,16
 324 643 324 643 251 643 c 2,17,-1
 162 643 l 1,9,-1
EndSplineSet
Substitution2: "'c2sc' Capitals to Small Capitals lookup 26 subtable" d.sc
Substitution2: "'aalt' Access All Alternates lookup 0 subtable" d.sc
Position2: "'cpsp' Capital Spacing lookup 0 subtable" dx=5 dy=0 dh=10 dv=0
EndChar

StartChar: Eth
Encoding: 208 208 59
Width: 630
GlyphClass: 2
Flags: W
AnchorPoint: "Anchor-18" 321 342 basechar 0
AnchorPoint: "Anchor-17" 0 0 basechar 0
AnchorPoint: "Anchor-16" 301 684 basechar 0
AnchorPoint: "Anchor-15" 0 0 basechar 0
AnchorPoint: "Anchor-14" 302 0 basechar 0
LayerCount: 2
Fore
SplineSet
474 612 m 128,-1,1
 560 540 560 540 560 348 c 0,2,3
 560 155 560 155 472 77.5 c 128,-1,4
 384 0 384 0 257 0 c 2,5,-1
 117 0 l 1,6,-1
 117 332 l 1,7,-1
 24 332 l 1,8,-1
 24 372 l 1,9,-1
 117 372 l 1,10,-1
 117 684 l 1,11,-1
 250 684 l 2,12,0
 388 684 388 684 474 612 c 128,-1,1
510 348 m 0,14,15
 510 468 510 468 474 533.5 c 128,-1,16
 438 599 438 599 382 621 c 128,-1,17
 326 643 326 643 253 643 c 2,18,-1
 164 643 l 1,19,-1
 164 372 l 1,20,-1
 346 372 l 1,21,-1
 346 332 l 1,22,-1
 164 332 l 1,23,-1
 164 41 l 1,24,-1
 260 41 l 2,25,13
 510 41 510 41 510 348 c 0,14,15
EndSplineSet
Substitution2: "'c2sc' Capitals to Small Capitals lookup 26 subtable" eth.sc
Substitution2: "'aalt' Access All Alternates lookup 0 subtable" eth.sc
Position2: "'cpsp' Capital Spacing lookup 0 subtable" dx=5 dy=0 dh=10 dv=0
EndChar

StartChar: uni018A
Encoding: 394 394 65
Width: 680
GlyphClass: 2
Flags: W
AnchorPoint: "Anchor-18" 371 342 basechar 0
AnchorPoint: "Anchor-17" 0 0 basechar 0
AnchorPoint: "Anchor-16" 351 684 basechar 0
AnchorPoint: "Anchor-15" 0 0 basechar 0
AnchorPoint: "Anchor-14" 352 0 basechar 0
LayerCount: 2
Fore
SplineSet
524 612 m 128,-1,1
 610 540 610 540 610 348 c 0,2,3
 610 155 610 155 522 77.5 c 128,-1,4
 434 0 434 0 307 0 c 2,5,-1
 167 0 l 1,6,-1
 167 644 l 1,7,-1
 138 644 l 2,8,9
 99 644 99 644 80.5 625.5 c 128,-1,10
 62 607 62 607 62 576 c 0,11,12
 62 555 62 555 68 538.5 c 128,-1,13
 74 522 74 522 85 501 c 1,14,-1
 51 482 l 1,15,16
 34 508 34 508 25.5 528.5 c 128,-1,17
 17 549 17 549 17 577 c 0,18,19
 17 625 17 625 50 654.5 c 128,-1,20
 83 684 83 684 143 684 c 2,21,-1
 300 684 l 2,22,0
 438 684 438 684 524 612 c 128,-1,1
560 348 m 0,24,25
 560 468 560 468 524 533.5 c 128,-1,26
 488 599 488 599 432 621 c 128,-1,27
 376 643 376 643 303 643 c 2,28,-1
 214 643 l 1,29,-1
 214 41 l 1,30,-1
 310 41 l 2,31,23
 560 41 560 41 560 348 c 0,24,25
EndSplineSet
Substitution2: "'c2sc' Capitals to Small Capitals lookup 26 subtable" uni0257.sc
Substitution2: "'aalt' Access All Alternates lookup 0 subtable" uni0257.sc
Position2: "'cpsp' Capital Spacing lookup 0 subtable" dx=5 dy=0 dh=10 dv=0
EndChar

StartChar: uni018B
Encoding: 395 395 67
Width: 566
GlyphClass: 2
Flags: W
AnchorPoint: "Anchor-18" 0 0 basechar 0
AnchorPoint: "Anchor-17" 0 0 basechar 0
AnchorPoint: "Anchor-16" 283 684 basechar 0
AnchorPoint: "Anchor-15" 0 0 basechar 0
AnchorPoint: "Anchor-14" 283 0 basechar 0
LayerCount: 2
Fore
SplineSet
451 0 m 1,0,-1
 278 0 l 2,1,2
 174 0 174 0 111.5 50.5 c 128,-1,3
 49 101 49 101 49 204 c 0,4,5
 49 304 49 304 113 359 c 128,-1,6
 177 414 177 414 290 414 c 2,7,-1
 404 414 l 1,8,-1
 404 642 l 1,9,-1
 118 642 l 1,10,-1
 118 684 l 1,11,-1
 451 684 l 1,12,-1
 451 0 l 1,0,-1
404 41 m 1,13,-1
 404 373 l 1,14,-1
 289 373 l 2,15,16
 197 373 197 373 148 330.5 c 128,-1,17
 99 288 99 288 99 204 c 0,18,19
 99 41 99 41 280 41 c 2,20,-1
 404 41 l 1,13,-1
EndSplineSet
Substitution2: "'c2sc' Capitals to Small Capitals lookup 26 subtable" uni018C.sc
Substitution2: "'aalt' Access All Alternates lookup 0 subtable" uni018C.sc
Position2: "'cpsp' Capital Spacing lookup 0 subtable" dx=5 dy=0 dh=10 dv=0
EndChar

StartChar: E
Encoding: 69 69 70
Width: 504
GlyphClass: 2
Flags: W
AnchorPoint: "Anchor-18" 0 0 basechar 0
AnchorPoint: "Anchor-17" 0 0 basechar 0
AnchorPoint: "Anchor-16" 289 684 basechar 0
AnchorPoint: "Anchor-15" 441 0 basechar 0
AnchorPoint: "Anchor-14" 285 0 basechar 0
LayerCount: 2
Fore
SplineSet
454 684 m 1,0,-1
 448 643 l 1,1,-1
 162 643 l 1,2,-1
 162 377 l 1,3,-1
 409 377 l 1,4,-1
 409 336 l 1,5,-1
 162 336 l 1,6,-1
 162 41 l 1,7,-1
 460 41 l 1,8,-1
 460 0 l 1,9,-1
 115 0 l 1,10,-1
 115 684 l 1,11,-1
 454 684 l 1,0,-1
EndSplineSet
Substitution2: "'c2sc' Capitals to Small Capitals lookup 26 subtable" e.sc
Substitution2: "'aalt' Access All Alternates lookup 0 subtable" e.sc
Position2: "'cpsp' Capital Spacing lookup 0 subtable" dx=5 dy=0 dh=10 dv=0
EndChar

StartChar: uni0228
Encoding: 552 552 74
Width: 504
GlyphClass: 2
Flags: W
AnchorPoint: "Anchor-18" 0 0 basechar 0
AnchorPoint: "Anchor-17" 0 0 basechar 0
AnchorPoint: "Anchor-16" 289 684 basechar 0
AnchorPoint: "Anchor-15" 441 0 basechar 0
AnchorPoint: "Anchor-14" 285 0 basechar 0
LayerCount: 2
Fore
SplineSet
295 0 m 1,0,-1
 295 -67 l 1,1,2
 387 -74 387 -74 387 -140 c 0,3,4
 387 -178 387 -178 358.5 -200 c 128,-1,5
 330 -222 330 -222 288 -222 c 0,6,7
 245 -222 245 -222 212 -202 c 1,8,-1
 228 -172 l 1,9,10
 256 -187 256 -187 287 -187 c 0,11,12
 312 -187 312 -187 328 -175 c 128,-1,13
 344 -163 344 -163 344 -140 c 256,14,15
 344 -117 344 -117 323 -106 c 128,-1,16
 302 -95 302 -95 255 -95 c 1,17,-1
 263 0 l 1,18,-1
 115 0 l 1,19,-1
 115 684 l 1,20,-1
 454 684 l 1,21,-1
 448 643 l 1,22,-1
 162 643 l 1,23,-1
 162 377 l 1,24,-1
 409 377 l 1,25,-1
 409 336 l 1,26,-1
 162 336 l 1,27,-1
 162 41 l 1,28,-1
 460 41 l 1,29,-1
 460 0 l 1,30,-1
 295 0 l 1,0,-1
EndSplineSet
Substitution2: "'c2sc' Capitals to Small Capitals lookup 26 subtable" uni0229.sc
Substitution2: "'aalt' Access All Alternates lookup 0 subtable" uni0229.sc
Position2: "'cpsp' Capital Spacing lookup 0 subtable" dx=5 dy=0 dh=10 dv=0
EndChar

StartChar: Eogonek
Encoding: 280 280 89
Width: 504
GlyphClass: 2
Flags: W
AnchorPoint: "Anchor-18" 0 0 basechar 0
AnchorPoint: "Anchor-17" 0 0 basechar 0
AnchorPoint: "Anchor-16" 289 684 basechar 0
AnchorPoint: "Anchor-15" 441 0 basechar 0
AnchorPoint: "Anchor-14" 285 0 basechar 0
LayerCount: 2
Fore
SplineSet
460 41 m 1,0,-1
 460 0 l 1,1,-1
 431 0 l 1,2,3
 365 -30 365 -30 337 -56 c 128,-1,4
 309 -82 309 -82 309 -119 c 0,5,6
 309 -144 309 -144 325 -158 c 128,-1,7
 341 -172 341 -172 374 -172 c 0,8,9
 399 -172 399 -172 431 -166 c 1,10,-1
 427 -206 l 1,11,12
 392 -213 392 -213 370 -213 c 0,13,14
 319 -213 319 -213 291.5 -188 c 128,-1,15
 264 -163 264 -163 264 -124 c 0,16,17
 264 -86 264 -86 289.5 -56 c 128,-1,18
 315 -26 315 -26 368 0 c 1,19,-1
 115 0 l 1,20,-1
 115 684 l 1,21,-1
 454 684 l 1,22,-1
 448 643 l 1,23,-1
 162 643 l 1,24,-1
 162 377 l 1,25,-1
 409 377 l 1,26,-1
 409 336 l 1,27,-1
 162 336 l 1,28,-1
 162 41 l 1,29,-1
 460 41 l 1,0,-1
EndSplineSet
Substitution2: "'c2sc' Capitals to Small Capitals lookup 26 subtable" eogonek.sc
Substitution2: "'aalt' Access All Alternates lookup 0 subtable" eogonek.sc
Position2: "'cpsp' Capital Spacing lookup 0 subtable" dx=5 dy=0 dh=10 dv=0
EndChar

StartChar: uni0190
Encoding: 400 400 90
Width: 520
GlyphClass: 2
Flags: W
AnchorPoint: "Anchor-18" 0 0 basechar 0
AnchorPoint: "Anchor-17" 0 0 basechar 0
AnchorPoint: "Anchor-16" 260 684 basechar 0
AnchorPoint: "Anchor-15" 0 0 basechar 0
AnchorPoint: "Anchor-14" 260 0 basechar 0
LayerCount: 2
Fore
SplineSet
381 673.5 m 128,-1,1
 430 653 430 653 475 611 c 1,2,-1
 447 581 l 1,3,4
 368 653 368 653 276 653 c 0,5,6
 206 653 206 653 166.5 618 c 128,-1,7
 127 583 127 583 127 524 c 0,8,9
 127 459 127 459 170.5 423.5 c 128,-1,10
 214 388 214 388 287 388 c 2,11,-1
 345 388 l 1,12,-1
 338 347 l 1,13,-1
 283 347 l 2,14,15
 198 348 198 348 152 308 c 128,-1,16
 106 268 106 268 106 195 c 0,17,18
 106 119 106 119 155 75.5 c 128,-1,19
 204 32 204 32 284 32 c 0,20,21
 387 32 387 32 465 110 c 1,22,-1
 495 82 l 1,23,24
 405 -11 405 -11 283 -11 c 0,25,26
 218 -11 218 -11 166 14 c 128,-1,27
 114 39 114 39 85 86 c 128,-1,28
 56 133 56 133 56 196 c 0,29,30
 56 274 56 274 99 318.5 c 128,-1,31
 142 363 142 363 209 370 c 1,32,33
 149 383 149 383 113.5 422 c 128,-1,34
 78 461 78 461 78 525 c 0,35,36
 78 600 78 600 130.5 647 c 128,-1,37
 183 694 183 694 273 694 c 0,38,0
 332 694 332 694 381 673.5 c 128,-1,1
EndSplineSet
Substitution2: "'c2sc' Capitals to Small Capitals lookup 26 subtable" uni025B.sc
Substitution2: "'aalt' Access All Alternates lookup 0 subtable" uni025B.sc
Position2: "'cpsp' Capital Spacing lookup 0 subtable" dx=5 dy=0 dh=10 dv=0
EndChar

StartChar: uni018E
Encoding: 398 398 91
Width: 504
GlyphClass: 2
Flags: W
AnchorPoint: "Anchor-18" 0 0 basechar 0
AnchorPoint: "Anchor-17" 0 0 basechar 0
AnchorPoint: "Anchor-16" 205 684 basechar 0
AnchorPoint: "Anchor-15" 0 0 basechar 0
AnchorPoint: "Anchor-14" 203 0 basechar 0
LayerCount: 2
Fore
SplineSet
50 684 m 1,0,-1
 389 684 l 1,1,-1
 389 0 l 1,2,-1
 44 0 l 1,3,-1
 44 41 l 1,4,-1
 341 41 l 1,5,-1
 341 336 l 1,6,-1
 95 336 l 1,7,-1
 95 377 l 1,8,-1
 341 377 l 1,9,-1
 341 643 l 1,10,-1
 50 643 l 1,11,-1
 50 684 l 1,0,-1
EndSplineSet
Substitution2: "'c2sc' Capitals to Small Capitals lookup 26 subtable" uni0258.sc
Substitution2: "'aalt' Access All Alternates lookup 0 subtable" uni0258.sc
Position2: "'cpsp' Capital Spacing lookup 0 subtable" dx=5 dy=0 dh=10 dv=0
EndChar

StartChar: uni0246
Encoding: 582 582 93
Width: 504
GlyphClass: 2
Flags: W
AnchorPoint: "Anchor-18" 0 0 basechar 0
AnchorPoint: "Anchor-17" 0 0 basechar 0
AnchorPoint: "Anchor-16" 267 684 basechar 0
AnchorPoint: "Anchor-15" 441 0 basechar 0
AnchorPoint: "Anchor-14" 267 0 basechar 0
LayerCount: 2
Fore
SplineSet
460 41 m 1,0,-1
 460 0 l 1,1,-1
 218 0 l 1,2,-1
 200 -70 l 1,3,-1
 171 -63 l 1,4,-1
 188 0 l 1,5,-1
 115 0 l 1,6,-1
 115 684 l 1,7,-1
 367 684 l 1,8,-1
 383 743 l 1,9,-1
 411 735 l 1,10,-1
 398 684 l 1,11,-1
 454 684 l 1,12,-1
 448 643 l 1,13,-1
 387 643 l 1,14,-1
 317 377 l 1,15,-1
 409 377 l 1,16,-1
 409 336 l 1,17,-1
 306 336 l 1,18,-1
 229 41 l 1,19,-1
 460 41 l 1,0,-1
162 643 m 1,20,-1
 162 377 l 1,21,-1
 287 377 l 1,22,-1
 357 643 l 1,23,-1
 162 643 l 1,20,-1
162 41 m 1,24,-1
 198 41 l 1,25,-1
 276 336 l 1,26,-1
 162 336 l 1,27,-1
 162 41 l 1,24,-1
EndSplineSet
Substitution2: "'c2sc' Capitals to Small Capitals lookup 26 subtable" uni0247.sc
Substitution2: "'aalt' Access All Alternates lookup 0 subtable" uni0247.sc
Position2: "'cpsp' Capital Spacing lookup 0 subtable" dx=5 dy=0 dh=10 dv=0
EndChar

StartChar: uni01B7
Encoding: 439 439 95
Width: 486
GlyphClass: 2
Flags: W
AnchorPoint: "Anchor-18" 0 0 basechar 0
AnchorPoint: "Anchor-17" 0 0 basechar 0
AnchorPoint: "Anchor-16" 225 684 basechar 0
AnchorPoint: "Anchor-15" 0 0 basechar 0
AnchorPoint: "Anchor-14" 243 0 basechar 0
LayerCount: 2
Fore
SplineSet
381 331.5 m 128,-1,1
 437 281 437 281 437 187 c 0,2,3
 437 130 437 130 411 85 c 128,-1,4
 385 40 385 40 335.5 14.5 c 128,-1,5
 286 -11 286 -11 219 -11 c 0,6,7
 153 -11 153 -11 104.5 10 c 128,-1,8
 56 31 56 31 17 74 c 1,9,-1
 46 102 l 1,10,11
 82 64 82 64 122 47.5 c 128,-1,12
 162 31 162 31 217 31 c 0,13,14
 300 31 300 31 344 73.5 c 128,-1,15
 388 116 388 116 388 187 c 0,16,17
 388 343 388 343 211 343 c 2,18,-1
 128 343 l 1,19,-1
 128 382 l 1,20,-1
 354 643 l 1,21,-1
 38 643 l 1,22,-1
 38 684 l 1,23,-1
 412 684 l 1,24,-1
 412 645 l 1,25,-1
 180 382 l 1,26,-1
 216 382 l 2,27,0
 325 382 325 382 381 331.5 c 128,-1,1
EndSplineSet
Substitution2: "'c2sc' Capitals to Small Capitals lookup 26 subtable" uni0292.sc
Substitution2: "'aalt' Access All Alternates lookup 0 subtable" uni0292.sc
Position2: "'cpsp' Capital Spacing lookup 0 subtable" dx=5 dy=0 dh=10 dv=0
EndChar

StartChar: uni01B8
Encoding: 440 440 97
Width: 486
GlyphClass: 2
Flags: W
AnchorPoint: "Anchor-18" 0 0 basechar 0
AnchorPoint: "Anchor-17" 0 0 basechar 0
AnchorPoint: "Anchor-16" 243 684 basechar 0
AnchorPoint: "Anchor-15" 0 0 basechar 0
AnchorPoint: "Anchor-14" 243 0 basechar 0
LayerCount: 2
Fore
SplineSet
468 74 m 1,0,1
 427 31 427 31 378 10 c 128,-1,2
 329 -11 329 -11 258 -11 c 0,3,4
 163 -11 163 -11 106 41.5 c 128,-1,5
 49 94 49 94 49 181 c 0,6,7
 49 275 49 275 106.5 328.5 c 128,-1,8
 164 382 164 382 271 382 c 2,9,-1
 306 382 l 1,10,-1
 73 645 l 1,11,-1
 73 684 l 1,12,-1
 448 684 l 1,13,-1
 448 643 l 1,14,-1
 133 643 l 1,15,-1
 358 382 l 1,16,-1
 358 343 l 1,17,-1
 275 343 l 2,18,19
 189 343 189 343 143 303 c 128,-1,20
 97 263 97 263 97 181 c 0,21,22
 97 111 97 111 139.5 71 c 128,-1,23
 182 31 182 31 259 31 c 0,24,25
 319 31 319 31 360 47.5 c 128,-1,26
 401 64 401 64 439 102 c 1,27,-1
 468 74 l 1,0,1
EndSplineSet
Substitution2: "'c2sc' Capitals to Small Capitals lookup 26 subtable" uni01B9.sc
Substitution2: "'aalt' Access All Alternates lookup 0 subtable" uni01B9.sc
Position2: "'cpsp' Capital Spacing lookup 0 subtable" dx=5 dy=0 dh=10 dv=0
EndChar

StartChar: F
Encoding: 70 70 98
Width: 477
GlyphClass: 2
Flags: W
AnchorPoint: "Anchor-18" 0 0 basechar 0
AnchorPoint: "Anchor-17" 0 0 basechar 0
AnchorPoint: "Anchor-16" 292 684 basechar 0
AnchorPoint: "Anchor-15" 0 0 basechar 0
AnchorPoint: "Anchor-14" 139 0 basechar 0
LayerCount: 2
Fore
SplineSet
115 0 m 1,0,-1
 115 684 l 1,1,-1
 448 684 l 1,2,-1
 442 643 l 1,3,-1
 162 643 l 1,4,-1
 162 364 l 1,5,-1
 404 364 l 1,6,-1
 404 324 l 1,7,-1
 162 324 l 1,8,-1
 162 0 l 1,9,-1
 115 0 l 1,0,-1
EndSplineSet
Substitution2: "'c2sc' Capitals to Small Capitals lookup 26 subtable" f.sc
Substitution2: "'aalt' Access All Alternates lookup 0 subtable" f.sc
Position2: "'cpsp' Capital Spacing lookup 0 subtable" dx=5 dy=0 dh=10 dv=0
EndChar

StartChar: uni0191
Encoding: 401 401 100
Width: 477
GlyphClass: 2
Flags: W
AnchorPoint: "Anchor-18" 0 0 basechar 0
AnchorPoint: "Anchor-17" 0 0 basechar 0
AnchorPoint: "Anchor-16" 292 684 basechar 0
AnchorPoint: "Anchor-15" 0 0 basechar 0
AnchorPoint: "Anchor-14" 139 0 basechar 0
LayerCount: 2
Fore
SplineSet
162 643 m 1,0,-1
 162 364 l 1,1,-1
 404 364 l 1,2,-1
 404 324 l 1,3,-1
 162 324 l 1,4,-1
 162 -76 l 2,5,6
 162 -138 162 -138 130.5 -170.5 c 128,-1,7
 99 -203 99 -203 46 -203 c 0,8,9
 -8 -203 -8 -203 -51 -170 c 1,10,-1
 -31 -139 l 1,11,12
 -14 -150 -14 -150 3.5 -156 c 128,-1,13
 21 -162 21 -162 45 -162 c 0,14,15
 114 -162 114 -162 114 -76 c 2,16,-1
 114 1 l 1,17,-1
 115 1 l 1,18,-1
 115 684 l 1,19,-1
 448 684 l 1,20,-1
 442 643 l 1,21,-1
 162 643 l 1,0,-1
EndSplineSet
Substitution2: "'c2sc' Capitals to Small Capitals lookup 26 subtable" uni0191.sc
Substitution2: "'aalt' Access All Alternates lookup 0 subtable" uni0191.sc
Position2: "'cpsp' Capital Spacing lookup 0 subtable" dx=5 dy=0 dh=10 dv=0
EndChar

StartChar: G
Encoding: 71 71 101
Width: 614
GlyphClass: 2
Flags: W
AnchorPoint: "Anchor-18" 0 0 basechar 0
AnchorPoint: "Anchor-17" 0 0 basechar 0
AnchorPoint: "Anchor-16" 351 684 basechar 0
AnchorPoint: "Anchor-15" 0 0 basechar 0
AnchorPoint: "Anchor-14" 339 0 basechar 0
LayerCount: 2
Fore
SplineSet
448.5 678.5 m 128,-1,1
 490 663 490 663 533 629 c 1,2,-1
 504 598 l 1,3,4
 467 627 467 627 431.5 640 c 128,-1,5
 396 653 396 653 351 653 c 0,6,7
 291 653 291 653 238.5 621 c 128,-1,8
 186 589 186 589 153 520 c 128,-1,9
 120 451 120 451 120 345 c 0,10,11
 120 189 120 189 181.5 110 c 128,-1,12
 243 31 243 31 351 31 c 0,13,14
 394 31 394 31 429.5 40 c 128,-1,15
 465 49 465 49 499 68 c 1,16,-1
 499 324 l 1,17,-1
 361 324 l 1,18,-1
 355 365 l 1,19,-1
 546 365 l 1,20,-1
 546 44 l 1,21,22
 453 -11 453 -11 351 -11 c 0,23,24
 266 -11 266 -11 203 29 c 128,-1,25
 140 69 140 69 105 149 c 128,-1,26
 70 229 70 229 70 345 c 0,27,28
 70 458 70 458 109.5 537 c 128,-1,29
 149 616 149 616 213 655 c 128,-1,30
 277 694 277 694 351 694 c 0,31,0
 407 694 407 694 448.5 678.5 c 128,-1,1
EndSplineSet
Substitution2: "'c2sc' Capitals to Small Capitals lookup 26 subtable" g.sc
Substitution2: "'aalt' Access All Alternates lookup 0 subtable" g.sc
Position2: "'cpsp' Capital Spacing lookup 0 subtable" dx=5 dy=0 dh=10 dv=0
EndChar

StartChar: uni0194
Encoding: 404 404 103
Width: 542
GlyphClass: 2
Flags: W
AnchorPoint: "Anchor-18" 0 0 basechar 0
AnchorPoint: "Anchor-17" 0 0 basechar 0
AnchorPoint: "Anchor-16" 271 684 basechar 0
AnchorPoint: "Anchor-15" 0 0 basechar 0
AnchorPoint: "Anchor-14" 271 -195 basechar 0
LayerCount: 2
Fore
SplineSet
300 56 m 1,0,1
 333 -14 333 -14 345.5 -49 c 128,-1,2
 358 -84 358 -84 358 -118 c 0,3,4
 358 -156 358 -156 335 -179.5 c 128,-1,5
 312 -203 312 -203 271 -203 c 0,6,7
 231 -203 231 -203 208 -180 c 128,-1,8
 185 -157 185 -157 185 -119 c 0,9,10
 185 -87 185 -87 197.5 -51 c 128,-1,11
 210 -15 210 -15 243 56 c 1,12,-1
 20 684 l 1,13,-1
 71 684 l 1,14,-1
 272 91 l 1,15,-1
 473 684 l 1,16,-1
 522 684 l 1,17,-1
 300 56 l 1,0,1
303 -60 m 128,-1,19
 294 -31 294 -31 271 23 c 1,20,21
 247 -36 247 -36 238.5 -62.5 c 128,-1,22
 230 -89 230 -89 230 -116 c 0,23,24
 230 -139 230 -139 240.5 -151 c 128,-1,25
 251 -163 251 -163 271 -163 c 256,26,27
 291 -163 291 -163 301.5 -151 c 128,-1,28
 312 -139 312 -139 312 -116 c 0,29,18
 312 -89 312 -89 303 -60 c 128,-1,19
EndSplineSet
Substitution2: "'c2sc' Capitals to Small Capitals lookup 26 subtable" uni0194.sc
Substitution2: "'aalt' Access All Alternates lookup 0 subtable" uni0194.sc
Position2: "'cpsp' Capital Spacing lookup 0 subtable" dx=5 dy=0 dh=10 dv=0
EndChar

StartChar: uni0193
Encoding: 403 403 109
Width: 565
GlyphClass: 2
Flags: W
AnchorPoint: "Anchor-18" 0 0 basechar 0
AnchorPoint: "Anchor-17" 0 0 basechar 0
AnchorPoint: "Anchor-16" 282 684 basechar 0
AnchorPoint: "Anchor-15" 0 0 basechar 0
AnchorPoint: "Anchor-14" 282 0 basechar 0
LayerCount: 2
Fore
SplineSet
700 789 m 1,1,-1
 680 759 l 1,2,3
 662 770 662 770 644.5 776 c 128,-1,4
 627 782 627 782 603 782 c 0,5,6
 533 782 533 782 533 696 c 2,7,-1
 533 629 l 1,8,-1
 508 603 l 1,9,10
 470 629 470 629 433 641 c 128,-1,11
 396 653 396 653 350 653 c 0,12,13
 291 653 291 653 238.5 621 c 128,-1,14
 186 589 186 589 153 519.5 c 128,-1,15
 120 450 120 450 120 345 c 0,16,17
 120 189 120 189 181.5 110 c 128,-1,18
 243 31 243 31 351 31 c 0,19,20
 395 31 395 31 430 40 c 128,-1,21
 465 49 465 49 499 68 c 1,22,-1
 499 324 l 1,23,-1
 361 324 l 1,24,-1
 355 365 l 1,25,-1
 546 365 l 1,26,-1
 546 44 l 1,27,28
 453 -11 453 -11 349 -11 c 0,29,30
 265 -11 265 -11 202 29 c 128,-1,31
 139 69 139 69 104.5 149 c 128,-1,32
 70 229 70 229 70 345 c 0,33,34
 70 457 70 457 109.5 536 c 128,-1,35
 149 615 149 615 212 654.5 c 128,-1,36
 275 694 275 694 346 694 c 0,37,38
 389 694 389 694 422.5 685.5 c 128,-1,39
 456 677 456 677 487 658 c 1,40,-1
 487 695 l 2,41,42
 487 757 487 757 517.5 789.5 c 128,-1,43
 548 822 548 822 602 822 c 0,44,0
 657 822 657 822 700 789 c 1,1,-1
EndSplineSet
Substitution2: "'c2sc' Capitals to Small Capitals lookup 26 subtable" uni0260.sc
Substitution2: "'aalt' Access All Alternates lookup 0 subtable" uni0260.sc
Position2: "'cpsp' Capital Spacing lookup 0 subtable" dx=5 dy=0 dh=10 dv=0
EndChar

StartChar: uni0241
Encoding: 577 577 110
Width: 459
GlyphClass: 2
Flags: W
AnchorPoint: "Anchor-18" 0 0 basechar 0
AnchorPoint: "Anchor-17" 0 0 basechar 0
AnchorPoint: "Anchor-16" 230 684 basechar 0
AnchorPoint: "Anchor-15" 0 0 basechar 0
AnchorPoint: "Anchor-14" 184 0 basechar 0
LayerCount: 2
Fore
SplineSet
160 300 m 1,0,-1
 232 318 l 2,1,2
 303 336 303 336 339 374.5 c 128,-1,3
 375 413 375 413 375 491 c 0,4,5
 375 564 375 564 333.5 608.5 c 128,-1,6
 292 653 292 653 218 653 c 0,7,8
 169 653 169 653 127.5 634.5 c 128,-1,9
 86 616 86 616 46 581 c 1,10,-1
 17 611 l 1,11,12
 64 653 64 653 112.5 673.5 c 128,-1,13
 161 694 161 694 220 694 c 0,14,15
 282 694 282 694 328.5 668 c 128,-1,16
 375 642 375 642 399.5 596.5 c 128,-1,17
 424 551 424 551 424 492 c 0,18,19
 424 395 424 395 376.5 348.5 c 128,-1,20
 329 302 329 302 246 281 c 2,21,-1
 207 272 l 1,22,-1
 207 0 l 1,23,-1
 160 0 l 1,24,-1
 160 300 l 1,0,-1
EndSplineSet
Substitution2: "'c2sc' Capitals to Small Capitals lookup 26 subtable" uni0294.sc
Substitution2: "'aalt' Access All Alternates lookup 0 subtable" uni0294.sc
Position2: "'cpsp' Capital Spacing lookup 0 subtable" dx=5 dy=0 dh=10 dv=0
EndChar

StartChar: uni01E4
Encoding: 484 484 111
Width: 628
GlyphClass: 2
Flags: W
AnchorPoint: "Anchor-18" 0 0 basechar 0
AnchorPoint: "Anchor-17" 0 0 basechar 0
AnchorPoint: "Anchor-16" 317 684 basechar 0
AnchorPoint: "Anchor-15" 0 0 basechar 0
AnchorPoint: "Anchor-14" 317 0 basechar 0
LayerCount: 2
Fore
SplineSet
619 199 m 1,0,-1
 546 199 l 1,1,-1
 546 44 l 1,2,3
 453 -11 453 -11 350 -11 c 0,4,5
 265 -11 265 -11 202 29 c 128,-1,6
 139 69 139 69 104.5 149 c 128,-1,7
 70 229 70 229 70 345 c 0,8,9
 70 458 70 458 109.5 536.5 c 128,-1,10
 149 615 149 615 213 654.5 c 128,-1,11
 277 694 277 694 349 694 c 0,12,13
 406 694 406 694 448 678.5 c 128,-1,14
 490 663 490 663 533 629 c 1,15,-1
 504 599 l 1,16,17
 467 627 467 627 431.5 640 c 128,-1,18
 396 653 396 653 350 653 c 0,19,20
 291 653 291 653 238.5 621 c 128,-1,21
 186 589 186 589 153 519.5 c 128,-1,22
 120 450 120 450 120 345 c 0,23,24
 120 189 120 189 181.5 110 c 128,-1,25
 243 31 243 31 351 31 c 0,26,27
 394 31 394 31 429.5 40 c 128,-1,28
 465 49 465 49 499 68 c 1,29,-1
 499 199 l 1,30,-1
 361 199 l 1,31,-1
 361 240 l 1,32,-1
 499 240 l 1,33,-1
 499 324 l 1,34,-1
 361 324 l 1,35,-1
 355 365 l 1,36,-1
 546 365 l 1,37,-1
 546 240 l 1,38,-1
 619 240 l 1,39,-1
 619 199 l 1,0,-1
EndSplineSet
Substitution2: "'c2sc' Capitals to Small Capitals lookup 26 subtable" uni01E5.sc
Substitution2: "'aalt' Access All Alternates lookup 0 subtable" uni01E5.sc
Position2: "'cpsp' Capital Spacing lookup 0 subtable" dx=5 dy=0 dh=10 dv=0
EndChar

StartChar: uni021C
Encoding: 540 540 112
Width: 500
GlyphClass: 2
Flags: W
AnchorPoint: "Anchor-18" 0 0 basechar 0
AnchorPoint: "Anchor-17" 0 0 basechar 0
AnchorPoint: "Anchor-16" 250 684 basechar 0
AnchorPoint: "Anchor-15" 0 0 basechar 0
AnchorPoint: "Anchor-14" 250 -195 basechar 0
LayerCount: 2
Fore
SplineSet
371 646 m 128,-1,1
 422 598 422 598 422 518 c 0,2,3
 422 452 422 452 386.5 413 c 128,-1,4
 351 374 351 374 291 360 c 1,5,6
 359 352 359 352 401 312.5 c 128,-1,7
 443 273 443 273 443 202 c 0,8,9
 443 96 443 96 356.5 26 c 128,-1,10
 270 -44 270 -44 67 -86 c 1,11,-1
 62 -44 l 1,12,13
 185 -18 185 -18 258 17 c 128,-1,14
 331 52 331 52 362 97 c 128,-1,15
 393 142 393 142 393 201 c 0,16,17
 393 267 393 267 347.5 302.5 c 128,-1,18
 302 338 302 338 216 337 c 2,19,-1
 155 337 l 1,20,-1
 161 378 l 1,21,-1
 213 378 l 2,22,23
 286 378 286 378 329.5 414 c 128,-1,24
 373 450 373 450 373 517 c 0,25,26
 373 580 373 580 335 616.5 c 128,-1,27
 297 653 297 653 227 653 c 0,28,29
 178 653 178 653 135.5 634.5 c 128,-1,30
 93 616 93 616 51 581 c 1,31,-1
 25 611 l 1,32,33
 71 653 71 653 120.5 673.5 c 128,-1,34
 170 694 170 694 229 694 c 0,35,0
 320 694 320 694 371 646 c 128,-1,1
EndSplineSet
Substitution2: "'c2sc' Capitals to Small Capitals lookup 26 subtable" uni021D.sc
Substitution2: "'aalt' Access All Alternates lookup 0 subtable" uni021D.sc
Position2: "'cpsp' Capital Spacing lookup 0 subtable" dx=5 dy=0 dh=10 dv=0
EndChar

StartChar: H
Encoding: 72 72 113
Width: 667
GlyphClass: 2
Flags: W
AnchorPoint: "Anchor-18" 332 342 basechar 0
AnchorPoint: "Anchor-17" 0 0 basechar 0
AnchorPoint: "Anchor-16" 332 684 basechar 0
AnchorPoint: "Anchor-15" 0 0 basechar 0
AnchorPoint: "Anchor-14" 333 0 basechar 0
LayerCount: 2
Fore
SplineSet
504 0 m 1,0,-1
 504 339 l 1,1,-1
 162 339 l 1,2,-1
 162 0 l 1,3,-1
 115 0 l 1,4,-1
 115 684 l 1,5,-1
 162 684 l 1,6,-1
 162 381 l 1,7,-1
 504 381 l 1,8,-1
 504 684 l 1,9,-1
 552 684 l 1,10,-1
 552 0 l 1,11,-1
 504 0 l 1,0,-1
EndSplineSet
Substitution2: "'c2sc' Capitals to Small Capitals lookup 26 subtable" h.sc
Substitution2: "'aalt' Access All Alternates lookup 0 subtable" h.sc
Position2: "'cpsp' Capital Spacing lookup 0 subtable" dx=5 dy=0 dh=10 dv=0
EndChar

StartChar: Hbar
Encoding: 294 294 114
Width: 669
GlyphClass: 2
Flags: W
AnchorPoint: "Anchor-18" 333 342 basechar 0
AnchorPoint: "Anchor-17" 0 0 basechar 0
AnchorPoint: "Anchor-16" 333 684 basechar 0
AnchorPoint: "Anchor-15" 0 0 basechar 0
AnchorPoint: "Anchor-14" 334 0 basechar 0
LayerCount: 2
Fore
SplineSet
617 551 m 1,0,-1
 617 515 l 1,1,-1
 553 515 l 1,2,-1
 553 0 l 1,3,-1
 505 0 l 1,4,-1
 505 339 l 1,5,-1
 163 339 l 1,6,-1
 163 0 l 1,7,-1
 116 0 l 1,8,-1
 116 515 l 1,9,-1
 51 515 l 1,10,-1
 51 551 l 1,11,-1
 116 551 l 1,12,-1
 116 684 l 1,13,-1
 163 684 l 1,14,-1
 163 551 l 1,15,-1
 505 551 l 1,16,-1
 505 684 l 1,17,-1
 553 684 l 1,18,-1
 553 551 l 1,19,-1
 617 551 l 1,0,-1
505 381 m 1,20,-1
 505 515 l 1,21,-1
 163 515 l 1,22,-1
 163 381 l 1,23,-1
 505 381 l 1,20,-1
EndSplineSet
Substitution2: "'c2sc' Capitals to Small Capitals lookup 26 subtable" hbar.sc
Substitution2: "'aalt' Access All Alternates lookup 0 subtable" hbar.sc
Position2: "'cpsp' Capital Spacing lookup 0 subtable" dx=5 dy=0 dh=10 dv=0
EndChar

StartChar: uniA7AA
Encoding: 42922 42922 118
Width: 719
GlyphClass: 2
Flags: W
AnchorPoint: "Anchor-18" 385 342 basechar 0
AnchorPoint: "Anchor-17" 0 0 basechar 0
AnchorPoint: "Anchor-16" 385 684 basechar 0
AnchorPoint: "Anchor-15" 0 0 basechar 0
AnchorPoint: "Anchor-14" 386 0 basechar 0
LayerCount: 2
Fore
SplineSet
605 684 m 1,0,-1
 605 0 l 1,1,-1
 557 0 l 1,2,-1
 557 339 l 1,3,-1
 215 339 l 1,4,-1
 215 0 l 1,5,-1
 168 0 l 1,6,-1
 168 644 l 1,7,-1
 138 644 l 2,8,9
 99 644 99 644 80.5 625.5 c 128,-1,10
 62 607 62 607 62 576 c 0,11,12
 62 555 62 555 68 538.5 c 128,-1,13
 74 522 74 522 85 501 c 1,14,-1
 51 482 l 1,15,16
 34 508 34 508 25.5 528.5 c 128,-1,17
 17 549 17 549 17 577 c 0,18,19
 17 625 17 625 50 654.5 c 128,-1,20
 83 684 83 684 143 684 c 2,21,-1
 215 684 l 1,22,-1
 215 381 l 1,23,-1
 557 381 l 1,24,-1
 557 684 l 1,25,-1
 605 684 l 1,0,-1
EndSplineSet
Substitution2: "'c2sc' Capitals to Small Capitals lookup 26 subtable" uniA7AA.sc
Substitution2: "'aalt' Access All Alternates lookup 0 subtable" uniA7AA.sc
Position2: "'cpsp' Capital Spacing lookup 0 subtable" dx=5 dy=0 dh=10 dv=0
EndChar

StartChar: uniA78D.ss02
Encoding: 65539 -1 120
Width: 580
GlyphClass: 2
Flags: W
AnchorPoint: "Anchor-18" 0 0 basechar 0
AnchorPoint: "Anchor-17" 0 0 basechar 0
AnchorPoint: "Anchor-16" 290 684 basechar 0
AnchorPoint: "Anchor-15" 0 0 basechar 0
AnchorPoint: "Anchor-14" 290 0 basechar 0
LayerCount: 2
Fore
SplineSet
418 0 m 1,0,-1
 418 266 l 1,1,-1
 57 266 l 1,2,-1
 57 684 l 1,3,-1
 104 684 l 1,4,-1
 104 307 l 1,5,-1
 418 307 l 1,6,-1
 418 684 l 1,7,-1
 465 684 l 1,8,-1
 465 0 l 1,9,-1
 418 0 l 1,0,-1
EndSplineSet
Position2: "'cpsp' Capital Spacing lookup 0 subtable" dx=5 dy=0 dh=10 dv=0
EndChar

StartChar: uni01F6
Encoding: 502 502 121
Width: 962
GlyphClass: 2
Flags: W
AnchorPoint: "Anchor-18" 0 0 basechar 0
AnchorPoint: "Anchor-17" 0 0 basechar 0
AnchorPoint: "Anchor-16" 481 684 basechar 0
AnchorPoint: "Anchor-15" 0 0 basechar 0
AnchorPoint: "Anchor-14" 481 0 basechar 0
LayerCount: 2
Fore
SplineSet
877 262 m 0,1,2
 877 170 877 170 849 109 c 128,-1,3
 821 48 821 48 774.5 18.5 c 128,-1,4
 728 -11 728 -11 671 -11 c 0,5,6
 599 -11 599 -11 551.5 33 c 128,-1,7
 504 77 504 77 504 158 c 2,8,-1
 504 339 l 1,9,-1
 162 339 l 1,10,-1
 162 0 l 1,11,-1
 115 0 l 1,12,-1
 115 684 l 1,13,-1
 162 684 l 1,14,-1
 162 381 l 1,15,-1
 504 381 l 1,16,-1
 504 684 l 1,17,-1
 552 684 l 1,18,-1
 552 161 l 2,19,20
 552 94 552 94 584.5 61.5 c 128,-1,21
 617 29 617 29 672 29 c 0,22,23
 739 29 739 29 784.5 84.5 c 128,-1,24
 830 140 830 140 830 264 c 0,25,26
 830 380 830 380 804 522 c 1,27,-1
 851 522 l 1,28,0
 877 375 877 375 877 262 c 0,1,2
EndSplineSet
Substitution2: "'c2sc' Capitals to Small Capitals lookup 26 subtable" uni01F6.sc
Substitution2: "'aalt' Access All Alternates lookup 0 subtable" uni01F6.sc
Position2: "'cpsp' Capital Spacing lookup 0 subtable" dx=5 dy=0 dh=10 dv=0
EndChar

StartChar: I
Encoding: 73 73 122
Width: 277
GlyphClass: 2
Flags: W
AnchorPoint: "Anchor-18" 0 0 basechar 0
AnchorPoint: "Anchor-17" 0 0 basechar 0
AnchorPoint: "Anchor-16" 138 684 basechar 0
AnchorPoint: "Anchor-15" 172 0 basechar 0
AnchorPoint: "Anchor-14" 139 0 basechar 0
LayerCount: 2
Fore
SplineSet
162 684 m 1,0,-1
 162 0 l 1,1,-1
 115 0 l 1,2,-1
 115 684 l 1,3,-1
 162 684 l 1,0,-1
EndSplineSet
Substitution2: "'c2sc' Capitals to Small Capitals lookup 26 subtable" i.sc
Substitution2: "'aalt' Access All Alternates lookup 0 subtable" i.sc
Position2: "'cpsp' Capital Spacing lookup 0 subtable" dx=5 dy=0 dh=10 dv=0
EndChar

StartChar: Iogonek
Encoding: 302 302 137
Width: 277
GlyphClass: 2
Flags: W
AnchorPoint: "Anchor-18" 0 0 basechar 0
AnchorPoint: "Anchor-17" 0 0 basechar 0
AnchorPoint: "Anchor-16" 138 684 basechar 0
AnchorPoint: "Anchor-15" 172 0 basechar 0
AnchorPoint: "Anchor-14" 139 0 basechar 0
LayerCount: 2
Fore
SplineSet
68 -56 m 128,-1,1
 40 -82 40 -82 40 -119 c 0,2,3
 40 -144 40 -144 56 -158 c 128,-1,4
 72 -172 72 -172 105 -172 c 0,5,6
 131 -172 131 -172 162 -166 c 1,7,-1
 158 -206 l 1,8,9
 123 -213 123 -213 101 -213 c 0,10,11
 50 -213 50 -213 22.5 -188 c 128,-1,12
 -5 -163 -5 -163 -5 -124 c 0,13,14
 -5 -83 -5 -83 24.5 -51.5 c 128,-1,15
 54 -20 54 -20 115 8 c 1,16,-1
 115 684 l 1,17,-1
 162 684 l 1,18,-1
 162 0 l 1,19,0
 96 -30 96 -30 68 -56 c 128,-1,1
EndSplineSet
Substitution2: "'c2sc' Capitals to Small Capitals lookup 26 subtable" iogonek.sc
Substitution2: "'aalt' Access All Alternates lookup 0 subtable" iogonek.sc
Position2: "'cpsp' Capital Spacing lookup 0 subtable" dx=5 dy=0 dh=10 dv=0
EndChar

StartChar: uni0196
Encoding: 406 406 138
Width: 336
GlyphClass: 2
Flags: W
AnchorPoint: "Anchor-18" 0 0 basechar 0
AnchorPoint: "Anchor-17" 0 0 basechar 0
AnchorPoint: "Anchor-16" 129 684 basechar 0
AnchorPoint: "Anchor-15" 0 0 basechar 0
AnchorPoint: "Anchor-14" 196 0 basechar 0
LayerCount: 2
Fore
SplineSet
318 22 m 1,0,1
 275 -11 275 -11 221 -11 c 0,2,3
 168 -11 168 -11 136.5 21.5 c 128,-1,4
 105 54 105 54 105 116 c 2,5,-1
 105 684 l 1,6,-1
 152 684 l 1,7,-1
 152 193 l 1,8,-1
 153 193 l 1,9,-1
 153 116 l 2,10,11
 153 30 153 30 222 30 c 0,12,13
 246 30 246 30 263.5 36 c 128,-1,14
 281 42 281 42 298 53 c 1,15,-1
 318 22 l 1,0,1
EndSplineSet
Substitution2: "'c2sc' Capitals to Small Capitals lookup 26 subtable" uni0196.sc
Substitution2: "'aalt' Access All Alternates lookup 0 subtable" uni0196.sc
Position2: "'cpsp' Capital Spacing lookup 0 subtable" dx=5 dy=0 dh=10 dv=0
EndChar

StartChar: uni0197
Encoding: 407 407 139
Width: 317
GlyphClass: 2
Flags: W
AnchorPoint: "Anchor-18" 0 0 basechar 0
AnchorPoint: "Anchor-17" 0 0 basechar 0
AnchorPoint: "Anchor-16" 158 684 basechar 0
AnchorPoint: "Anchor-15" 192 0 basechar 0
AnchorPoint: "Anchor-14" 159 0 basechar 0
LayerCount: 2
Fore
SplineSet
288 380 m 1,0,-1
 288 340 l 1,1,-1
 182 340 l 1,2,-1
 182 0 l 1,3,-1
 135 0 l 1,4,-1
 135 340 l 1,5,-1
 30 340 l 1,6,-1
 30 380 l 1,7,-1
 135 380 l 1,8,-1
 135 684 l 1,9,-1
 182 684 l 1,10,-1
 182 380 l 1,11,-1
 288 380 l 1,0,-1
EndSplineSet
Substitution2: "'c2sc' Capitals to Small Capitals lookup 26 subtable" uni0268.sc
Substitution2: "'aalt' Access All Alternates lookup 0 subtable" uni0268.sc
Position2: "'cpsp' Capital Spacing lookup 0 subtable" dx=5 dy=0 dh=10 dv=0
EndChar

StartChar: J
Encoding: 74 74 141
Width: 286
GlyphClass: 2
Flags: W
AnchorPoint: "Anchor-18" 0 0 basechar 0
AnchorPoint: "Anchor-17" 0 0 basechar 0
AnchorPoint: "Anchor-16" 151 684 basechar 0
AnchorPoint: "Anchor-15" 0 0 basechar 0
AnchorPoint: "Anchor-14" 143 -195 basechar 0
LayerCount: 2
Fore
SplineSet
177 90 m 2,0,1
 177 32 177 32 163.5 -3.5 c 128,-1,2
 150 -39 150 -39 118.5 -64 c 128,-1,3
 87 -89 87 -89 29 -113 c 1,4,-1
 16 -78 l 1,5,6
 62 -57 62 -57 86 -35.5 c 128,-1,7
 110 -14 110 -14 119.5 15.5 c 128,-1,8
 129 45 129 45 129 93 c 2,9,-1
 129 684 l 1,10,-1
 177 684 l 1,11,-1
 177 90 l 2,0,1
EndSplineSet
Substitution2: "'c2sc' Capitals to Small Capitals lookup 26 subtable" j.sc
Substitution2: "'aalt' Access All Alternates lookup 0 subtable" j.sc
Position2: "'cpsp' Capital Spacing lookup 0 subtable" dx=5 dy=0 dh=10 dv=0
EndChar

StartChar: uniA7B2
Encoding: 42930 42930 143
Width: 302
GlyphClass: 2
Flags: W
AnchorPoint: "Anchor-18" 0 0 basechar 0
AnchorPoint: "Anchor-17" 0 0 basechar 0
AnchorPoint: "Anchor-16" 164 684 basechar 0
AnchorPoint: "Anchor-15" 0 0 basechar 0
AnchorPoint: "Anchor-14" 151 -195 basechar 0
LayerCount: 2
Fore
SplineSet
277 -87 m 1,0,1
 231 -67 231 -67 186 -55 c 1,2,3
 181 -128 181 -128 144.5 -165.5 c 128,-1,4
 108 -203 108 -203 40 -203 c 0,5,6
 -15 -203 -15 -203 -46.5 -177 c 128,-1,7
 -78 -151 -78 -151 -78 -108 c 0,8,9
 -78 -59 -78 -59 -39.5 -32 c 128,-1,10
 -1 -5 -1 -5 66 -5 c 0,11,12
 112 -5 112 -5 140 -11 c 1,13,-1
 140 684 l 1,14,-1
 187 684 l 1,15,-1
 187 -20 l 1,16,17
 251 -38 251 -38 291 -58 c 1,18,-1
 277 -87 l 1,0,1
115 -138 m 128,-1,20
 138 -110 138 -110 140 -46 c 1,21,22
 104 -40 104 -40 66 -40 c 0,23,24
 15 -40 15 -40 -10 -57 c 128,-1,25
 -35 -74 -35 -74 -35 -106 c 0,26,27
 -35 -135 -35 -135 -16 -150.5 c 128,-1,28
 3 -166 3 -166 40 -166 c 0,29,19
 92 -166 92 -166 115 -138 c 128,-1,20
EndSplineSet
Substitution2: "'c2sc' Capitals to Small Capitals lookup 26 subtable" uniA7B2.sc
Substitution2: "'aalt' Access All Alternates lookup 0 subtable" uniA7B2.sc
Position2: "'cpsp' Capital Spacing lookup 0 subtable" dx=5 dy=0 dh=10 dv=0
EndChar

StartChar: uni0248
Encoding: 584 584 144
Width: 297
GlyphClass: 2
Flags: W
AnchorPoint: "Anchor-18" 0 0 basechar 0
AnchorPoint: "Anchor-17" 0 0 basechar 0
AnchorPoint: "Anchor-16" 151 684 basechar 0
AnchorPoint: "Anchor-15" 0 0 basechar 0
AnchorPoint: "Anchor-14" 143 -195 basechar 0
LayerCount: 2
Fore
SplineSet
280 323 m 1,0,-1
 177 323 l 1,1,-1
 177 90 l 2,2,3
 177 32 177 32 163.5 -3.5 c 128,-1,4
 150 -39 150 -39 118.5 -64 c 128,-1,5
 87 -89 87 -89 29 -113 c 1,6,-1
 16 -78 l 1,7,8
 62 -57 62 -57 86 -35.5 c 128,-1,9
 110 -14 110 -14 119.5 15.5 c 128,-1,10
 129 45 129 45 129 93 c 2,11,-1
 129 323 l 1,12,-1
 22 323 l 1,13,-1
 22 363 l 1,14,-1
 129 363 l 1,15,-1
 129 684 l 1,16,-1
 177 684 l 1,17,-1
 177 363 l 1,18,-1
 280 363 l 1,19,-1
 280 323 l 1,0,-1
EndSplineSet
Substitution2: "'c2sc' Capitals to Small Capitals lookup 26 subtable" uni0249.sc
Substitution2: "'aalt' Access All Alternates lookup 0 subtable" uni0249.sc
Position2: "'cpsp' Capital Spacing lookup 0 subtable" dx=5 dy=0 dh=10 dv=0
EndChar

StartChar: K
Encoding: 75 75 145
Width: 533
GlyphClass: 2
Flags: W
AnchorPoint: "Anchor-18" 0 0 basechar 0
AnchorPoint: "Anchor-17" 0 0 basechar 0
AnchorPoint: "Anchor-16" 300 684 basechar 0
AnchorPoint: "Anchor-15" 0 0 basechar 0
AnchorPoint: "Anchor-14" 304 0 basechar 0
LayerCount: 2
Fore
SplineSet
162 684 m 1,0,-1
 162 0 l 1,1,-1
 115 0 l 1,2,-1
 115 684 l 1,3,-1
 162 684 l 1,0,-1
516 684 m 1,4,-1
 224 369 l 1,5,-1
 533 0 l 1,6,-1
 474 0 l 1,7,-1
 166 367 l 1,8,-1
 461 684 l 1,9,-1
 516 684 l 1,4,-1
EndSplineSet
Substitution2: "'c2sc' Capitals to Small Capitals lookup 26 subtable" k.sc
Substitution2: "'aalt' Access All Alternates lookup 0 subtable" k.sc
Position2: "'cpsp' Capital Spacing lookup 0 subtable" dx=5 dy=0 dh=10 dv=0
EndChar

StartChar: uni0198
Encoding: 408 408 148
Width: 564
GlyphClass: 2
Flags: W
AnchorPoint: "Anchor-18" 0 0 basechar 0
AnchorPoint: "Anchor-17" 0 0 basechar 0
AnchorPoint: "Anchor-16" 282 684 basechar 0
AnchorPoint: "Anchor-15" 0 0 basechar 0
AnchorPoint: "Anchor-14" 282 0 basechar 0
LayerCount: 2
Fore
SplineSet
166 367 m 1,0,-1
 350 617 l 2,1,2
 382 661 382 661 409 677.5 c 128,-1,3
 436 694 436 694 475 694 c 0,4,5
 525 694 525 694 564 657 c 1,6,-1
 542 628 l 1,7,8
 510 654 510 654 477 654 c 0,9,10
 451 654 451 654 431.5 642.5 c 128,-1,11
 412 631 412 631 383 591 c 2,12,-1
 223 369 l 1,13,-1
 533 0 l 1,14,-1
 474 0 l 1,15,-1
 166 367 l 1,0,-1
162 684 m 1,16,-1
 162 0 l 1,17,-1
 115 0 l 1,18,-1
 115 684 l 1,19,-1
 162 684 l 1,16,-1
EndSplineSet
Substitution2: "'c2sc' Capitals to Small Capitals lookup 26 subtable" uni0199.sc
Substitution2: "'aalt' Access All Alternates lookup 0 subtable" uni0199.sc
Position2: "'cpsp' Capital Spacing lookup 0 subtable" dx=5 dy=0 dh=10 dv=0
EndChar

StartChar: L
Encoding: 76 76 149
Width: 470
GlyphClass: 2
Flags: W
AnchorPoint: "Anchor-18" 362 363 basechar 0
AnchorPoint: "Anchor-17" 190 684 basechar 0
AnchorPoint: "Anchor-16" 139 684 basechar 0
AnchorPoint: "Anchor-15" 0 0 basechar 0
AnchorPoint: "Anchor-14" 282 0 basechar 0
LayerCount: 2
Fore
SplineSet
162 684 m 1,0,-1
 162 44 l 1,1,-1
 450 44 l 1,2,-1
 443 0 l 1,3,-1
 115 0 l 1,4,-1
 115 684 l 1,5,-1
 162 684 l 1,0,-1
EndSplineSet
Substitution2: "'c2sc' Capitals to Small Capitals lookup 26 subtable" l.sc
Substitution2: "'aalt' Access All Alternates lookup 0 subtable" l.sc
Position2: "'cpsp' Capital Spacing lookup 0 subtable" dx=5 dy=0 dh=10 dv=0
EndChar

StartChar: uni023D
Encoding: 573 573 152
Width: 489
GlyphClass: 2
Flags: W
AnchorPoint: "Anchor-18" 381 363 basechar 0
AnchorPoint: "Anchor-17" 209 684 basechar 0
AnchorPoint: "Anchor-16" 158 684 basechar 0
AnchorPoint: "Anchor-15" 0 0 basechar 0
AnchorPoint: "Anchor-14" 301 0 basechar 0
LayerCount: 2
Fore
SplineSet
181 44 m 1,0,-1
 469 44 l 1,1,-1
 462 0 l 1,2,-1
 134 0 l 1,3,-1
 134 343 l 1,4,-1
 30 343 l 1,5,-1
 30 383 l 1,6,-1
 134 383 l 1,7,-1
 134 684 l 1,8,-1
 181 684 l 1,9,-1
 181 383 l 1,10,-1
 288 383 l 1,11,-1
 288 343 l 1,12,-1
 181 343 l 1,13,-1
 181 44 l 1,0,-1
EndSplineSet
Substitution2: "'c2sc' Capitals to Small Capitals lookup 26 subtable" uni019A.sc
Substitution2: "'aalt' Access All Alternates lookup 0 subtable" uni019A.sc
Position2: "'cpsp' Capital Spacing lookup 0 subtable" dx=5 dy=0 dh=10 dv=0
EndChar

StartChar: uniA7AD
Encoding: 42925 42925 153
Width: 504
GlyphClass: 2
Flags: W
AnchorPoint: "Anchor-18" 396 363 basechar 0
AnchorPoint: "Anchor-17" 224 684 basechar 0
AnchorPoint: "Anchor-16" 173 684 basechar 0
AnchorPoint: "Anchor-15" 0 0 basechar 0
AnchorPoint: "Anchor-14" 316 0 basechar 0
LayerCount: 2
Fore
SplineSet
484 44 m 1,0,-1
 477 0 l 1,1,-1
 149 0 l 1,2,-1
 149 272 l 1,3,4
 87 272 87 272 54 296.5 c 128,-1,5
 21 321 21 321 21 367 c 0,6,7
 21 408 21 408 49.5 432 c 128,-1,8
 78 456 78 456 120 456 c 0,9,10
 133 456 133 456 149 454 c 1,11,-1
 149 684 l 1,12,-1
 196 684 l 1,13,-1
 196 309 l 1,14,15
 244 310 244 310 314 321 c 1,16,-1
 319 287 l 1,17,18
 251 274 251 274 196 273 c 1,19,-1
 196 44 l 1,20,-1
 484 44 l 1,0,-1
84.5 323 m 128,-1,22
 106 309 106 309 149 309 c 1,23,-1
 149 418 l 1,24,25
 133 420 133 420 122 420 c 0,26,27
 95 420 95 420 79 406.5 c 128,-1,28
 63 393 63 393 63 368 c 0,29,21
 63 337 63 337 84.5 323 c 128,-1,22
EndSplineSet
Substitution2: "'c2sc' Capitals to Small Capitals lookup 26 subtable" uniA7AD.sc
Substitution2: "'aalt' Access All Alternates lookup 0 subtable" uniA7AD.sc
Position2: "'cpsp' Capital Spacing lookup 0 subtable" dx=5 dy=0 dh=10 dv=0
EndChar

StartChar: Lslash
Encoding: 321 321 160
Width: 478
GlyphClass: 2
Flags: W
AnchorPoint: "Anchor-18" 371 363 basechar 0
AnchorPoint: "Anchor-17" 199 684 basechar 0
AnchorPoint: "Anchor-16" 148 684 basechar 0
AnchorPoint: "Anchor-15" 0 0 basechar 0
AnchorPoint: "Anchor-14" 291 0 basechar 0
LayerCount: 2
Fore
SplineSet
171 44 m 1,0,-1
 459 44 l 1,1,-1
 452 0 l 1,2,-1
 124 0 l 1,3,-1
 124 290 l 1,4,-1
 56 248 l 1,5,-1
 37 280 l 1,6,-1
 123 333 l 1,7,-1
 124 334 l 1,8,-1
 124 684 l 1,9,-1
 171 684 l 1,10,-1
 171 363 l 1,11,-1
 359 481 l 1,12,-1
 379 449 l 1,13,-1
 171 320 l 1,14,-1
 171 44 l 1,0,-1
EndSplineSet
Substitution2: "'c2sc' Capitals to Small Capitals lookup 26 subtable" lslash.sc
Substitution2: "'aalt' Access All Alternates lookup 0 subtable" lslash.sc
Position2: "'cpsp' Capital Spacing lookup 0 subtable" dx=5 dy=0 dh=10 dv=0
EndChar

StartChar: M
Encoding: 77 77 161
Width: 768
GlyphClass: 2
Flags: W
AnchorPoint: "Anchor-18" 0 0 basechar 0
AnchorPoint: "Anchor-17" 0 0 basechar 0
AnchorPoint: "Anchor-16" 383 684 basechar 0
AnchorPoint: "Anchor-15" 0 0 basechar 0
AnchorPoint: "Anchor-14" 386 0 basechar 0
LayerCount: 2
Fore
SplineSet
696 0 m 1,0,-1
 650 0 l 1,1,-1
 616 334 l 2,2,3
 597 509 597 509 587 638 c 1,4,-1
 407 82 l 1,5,-1
 361 82 l 1,6,-1
 175 638 l 1,7,8
 173 594 173 594 154 396 c 0,9,10
 153 377 153 377 149 339 c 2,11,-1
 117 0 l 1,12,-1
 72 0 l 1,13,-1
 139 684 l 1,14,-1
 206 684 l 1,15,-1
 385 139 l 1,16,-1
 559 684 l 1,17,-1
 627 684 l 1,18,-1
 696 0 l 1,0,-1
EndSplineSet
Substitution2: "'c2sc' Capitals to Small Capitals lookup 26 subtable" m.sc
Substitution2: "'aalt' Access All Alternates lookup 0 subtable" m.sc
Position2: "'cpsp' Capital Spacing lookup 0 subtable" dx=5 dy=0 dh=10 dv=0
EndChar

StartChar: uni019C
Encoding: 412 412 164
Width: 927
GlyphClass: 2
Flags: W
AnchorPoint: "Anchor-18" 0 0 basechar 0
AnchorPoint: "Anchor-17" 0 0 basechar 0
AnchorPoint: "Anchor-16" 464 684 basechar 0
AnchorPoint: "Anchor-15" 0 0 basechar 0
AnchorPoint: "Anchor-14" 464 0 basechar 0
LayerCount: 2
Fore
SplineSet
812 684 m 1,0,-1
 812 0 l 1,1,-1
 771 0 l 1,2,-1
 767 98 l 1,3,4
 736 48 736 48 691.5 18.5 c 128,-1,5
 647 -11 647 -11 592 -11 c 0,6,7
 535 -11 535 -11 497.5 18.5 c 128,-1,8
 460 48 460 48 445 103 c 1,9,10
 369 -11 369 -11 262 -11 c 0,11,12
 187 -11 187 -11 146 40 c 128,-1,13
 105 91 105 91 105 182 c 2,14,-1
 105 684 l 1,15,-1
 152 684 l 1,16,-1
 152 179 l 2,17,18
 152 107 152 107 181.5 69 c 128,-1,19
 211 31 211 31 267 31 c 0,20,21
 320 31 320 31 361 62.5 c 128,-1,22
 402 94 402 94 436 151 c 1,23,24
 435 161 435 161 435 182 c 2,25,-1
 435 684 l 1,26,-1
 482 684 l 1,27,-1
 482 179 l 2,28,29
 482 107 482 107 511.5 69 c 128,-1,30
 541 31 541 31 597 31 c 0,31,32
 651 31 651 31 692 63 c 128,-1,33
 733 95 733 95 765 152 c 1,34,-1
 765 684 l 1,35,-1
 812 684 l 1,0,-1
EndSplineSet
Substitution2: "'c2sc' Capitals to Small Capitals lookup 26 subtable" uni026F.sc
Substitution2: "'aalt' Access All Alternates lookup 0 subtable" uni026F.sc
Position2: "'cpsp' Capital Spacing lookup 0 subtable" dx=5 dy=0 dh=10 dv=0
EndChar

StartChar: N
Encoding: 78 78 165
Width: 669
GlyphClass: 2
Flags: W
AnchorPoint: "Anchor-18" 0 0 basechar 0
AnchorPoint: "Anchor-17" 0 0 basechar 0
AnchorPoint: "Anchor-16" 343 684 basechar 0
AnchorPoint: "Anchor-15" 0 0 basechar 0
AnchorPoint: "Anchor-14" 335 0 basechar 0
LayerCount: 2
Fore
SplineSet
554 0 m 1,0,-1
 493 0 l 1,1,-1
 154 631 l 1,2,3
 160 543 160 543 160 407 c 2,4,-1
 160 0 l 1,5,-1
 115 0 l 1,6,-1
 115 684 l 1,7,-1
 176 684 l 1,8,-1
 515 53 l 1,9,10
 509 152 509 152 509 253 c 2,11,-1
 509 684 l 1,12,-1
 554 684 l 1,13,-1
 554 0 l 1,0,-1
EndSplineSet
Substitution2: "'c2sc' Capitals to Small Capitals lookup 26 subtable" n.sc
Substitution2: "'aalt' Access All Alternates lookup 0 subtable" n.sc
Position2: "'cpsp' Capital Spacing lookup 0 subtable" dx=5 dy=0 dh=10 dv=0
EndChar

StartChar: Eng
Encoding: 330 330 175
Width: 669
GlyphClass: 2
Flags: W
AnchorPoint: "Anchor-18" 0 0 basechar 0
AnchorPoint: "Anchor-17" 0 0 basechar 0
AnchorPoint: "Anchor-16" 343 684 basechar 0
AnchorPoint: "Anchor-15" 0 0 basechar 0
AnchorPoint: "Anchor-14" 335 0 basechar 0
LayerCount: 2
Fore
SplineSet
554 684 m 1,0,-1
 554 -76 l 2,1,2
 554 -138 554 -138 522.5 -170.5 c 128,-1,3
 491 -203 491 -203 438 -203 c 0,4,5
 384 -203 384 -203 341 -170 c 1,6,-1
 361 -139 l 1,7,8
 378 -150 378 -150 395.5 -156 c 128,-1,9
 413 -162 413 -162 437 -162 c 0,10,11
 506 -162 506 -162 506 -76 c 2,12,-1
 506 0 l 1,13,-1
 493 0 l 1,14,-1
 154 631 l 1,15,16
 160 543 160 543 160 407 c 2,17,-1
 160 0 l 1,18,-1
 115 0 l 1,19,-1
 115 684 l 1,20,-1
 176 684 l 1,21,-1
 515 53 l 1,22,23
 509 152 509 152 509 253 c 2,24,-1
 509 684 l 1,25,-1
 554 684 l 1,0,-1
EndSplineSet
Substitution2: "'ss01' Style Set 1 lookup 33 subtable" Eng.ss01
Substitution2: "'salt' Stylistic Alternatives lookup 32 subtable" Eng.ss01
Substitution2: "'c2sc' Capitals to Small Capitals lookup 26 subtable" eng.sc
AlternateSubs2: "'aalt' Access All Alternates lookup 1 subtable" eng.sc Eng.ss01
Position2: "'cpsp' Capital Spacing lookup 0 subtable" dx=5 dy=0 dh=10 dv=0
EndChar

StartChar: Eng.ss01
Encoding: 65541 -1 176
Width: 659
GlyphClass: 2
Flags: W
AnchorPoint: "Anchor-18" 0 0 basechar 0
AnchorPoint: "Anchor-17" 0 0 basechar 0
AnchorPoint: "Anchor-16" 330 684 basechar 0
AnchorPoint: "Anchor-15" 0 0 basechar 0
AnchorPoint: "Anchor-14" 330 -195 basechar 0
LayerCount: 2
Fore
SplineSet
506.5 642.5 m 128,-1,1
 552 591 552 591 552 496 c 2,2,-1
 552 -76 l 2,3,4
 552 -138 552 -138 520.5 -170.5 c 128,-1,5
 489 -203 489 -203 436 -203 c 0,6,7
 382 -203 382 -203 339 -170 c 1,8,-1
 359 -139 l 1,9,10
 376 -150 376 -150 393.5 -156 c 128,-1,11
 411 -162 411 -162 435 -162 c 0,12,13
 504 -162 504 -162 504 -76 c 2,14,-1
 504 1 l 1,15,-1
 505 1 l 1,16,-1
 505 487 l 2,17,18
 505 653 505 653 370 653 c 0,19,20
 304 653 304 653 254.5 621 c 128,-1,21
 205 589 205 589 162 532 c 1,22,-1
 162 0 l 1,23,-1
 115 0 l 1,24,-1
 115 684 l 1,25,-1
 156 684 l 1,26,-1
 160 581 l 1,27,28
 200 633 200 633 254 663.5 c 128,-1,29
 308 694 308 694 376 694 c 0,30,0
 461 694 461 694 506.5 642.5 c 128,-1,1
EndSplineSet
Position2: "'cpsp' Capital Spacing lookup 0 subtable" dx=5 dy=0 dh=10 dv=0
EndChar

StartChar: uni019D
Encoding: 413 413 177
Width: 669
GlyphClass: 2
Flags: W
AnchorPoint: "Anchor-18" 0 0 basechar 0
AnchorPoint: "Anchor-17" 0 0 basechar 0
AnchorPoint: "Anchor-16" 343 684 basechar 0
AnchorPoint: "Anchor-15" 0 0 basechar 0
AnchorPoint: "Anchor-14" 335 0 basechar 0
LayerCount: 2
Fore
SplineSet
554 684 m 1,0,-1
 554 0 l 1,1,-1
 493 0 l 1,2,-1
 154 631 l 1,3,4
 160 543 160 543 160 407 c 2,5,-1
 160 -76 l 2,6,7
 160 -138 160 -138 128.5 -170.5 c 128,-1,8
 97 -203 97 -203 45 -203 c 0,9,10
 -9 -203 -9 -203 -52 -170 c 1,11,-1
 -32 -140 l 1,12,13
 -15 -151 -15 -151 2.5 -157 c 128,-1,14
 20 -163 20 -163 43 -163 c 0,15,16
 115 -163 115 -163 115 -77 c 2,17,-1
 115 684 l 1,18,-1
 176 684 l 1,19,-1
 515 53 l 1,20,21
 509 152 509 152 509 253 c 2,22,-1
 509 684 l 1,23,-1
 554 684 l 1,0,-1
EndSplineSet
Substitution2: "'ss01' Style Set 1 lookup 33 subtable" uni019D.ss01
Substitution2: "'salt' Stylistic Alternatives lookup 32 subtable" uni019D.ss01
Substitution2: "'c2sc' Capitals to Small Capitals lookup 26 subtable" uni0272.sc
AlternateSubs2: "'aalt' Access All Alternates lookup 1 subtable" uni0272.sc uni019D.ss01
Position2: "'cpsp' Capital Spacing lookup 0 subtable" dx=5 dy=0 dh=10 dv=0
EndChar

StartChar: uni019D.ss01
Encoding: 65542 -1 178
Width: 659
GlyphClass: 2
Flags: W
AnchorPoint: "Anchor-18" 0 0 basechar 0
AnchorPoint: "Anchor-17" 0 0 basechar 0
AnchorPoint: "Anchor-16" 330 684 basechar 0
AnchorPoint: "Anchor-15" 0 0 basechar 0
AnchorPoint: "Anchor-14" 330 -195 basechar 0
LayerCount: 2
Fore
SplineSet
506.5 642.5 m 128,-1,1
 552 591 552 591 552 496 c 2,2,-1
 552 0 l 1,3,-1
 505 0 l 1,4,-1
 505 487 l 2,5,6
 505 653 505 653 370 653 c 0,7,8
 304 653 304 653 254.5 621 c 128,-1,9
 205 589 205 589 162 532 c 1,10,-1
 162 -76 l 2,11,12
 162 -138 162 -138 130.5 -170.5 c 128,-1,13
 99 -203 99 -203 46 -203 c 0,14,15
 -8 -203 -8 -203 -51 -170 c 1,16,-1
 -31 -139 l 1,17,18
 -14 -150 -14 -150 3.5 -156 c 128,-1,19
 21 -162 21 -162 45 -162 c 0,20,21
 114 -162 114 -162 114 -76 c 2,22,-1
 114 1 l 1,23,-1
 115 1 l 1,24,-1
 115 684 l 1,25,-1
 156 684 l 1,26,-1
 160 581 l 1,27,28
 200 633 200 633 254 663.5 c 128,-1,29
 308 694 308 694 376 694 c 0,30,0
 461 694 461 694 506.5 642.5 c 128,-1,1
EndSplineSet
Position2: "'cpsp' Capital Spacing lookup 0 subtable" dx=5 dy=0 dh=10 dv=0
EndChar

StartChar: uni0220
Encoding: 544 544 180
Width: 659
GlyphClass: 2
Flags: W
AnchorPoint: "Anchor-18" 0 0 basechar 0
AnchorPoint: "Anchor-17" 0 0 basechar 0
AnchorPoint: "Anchor-16" 330 684 basechar 0
AnchorPoint: "Anchor-15" 0 0 basechar 0
AnchorPoint: "Anchor-14" 330 -195 basechar 0
LayerCount: 2
Fore
SplineSet
506.5 642.5 m 128,-1,1
 552 591 552 591 552 496 c 2,2,-1
 552 -195 l 1,3,-1
 505 -195 l 1,4,-1
 505 487 l 2,5,6
 505 653 505 653 370 653 c 0,7,8
 304 653 304 653 254.5 621 c 128,-1,9
 205 589 205 589 162 532 c 1,10,-1
 162 0 l 1,11,-1
 115 0 l 1,12,-1
 115 684 l 1,13,-1
 156 684 l 1,14,-1
 160 581 l 1,15,16
 200 633 200 633 254 663.5 c 128,-1,17
 308 694 308 694 376 694 c 0,18,0
 461 694 461 694 506.5 642.5 c 128,-1,1
EndSplineSet
Substitution2: "'c2sc' Capitals to Small Capitals lookup 26 subtable" uni0220.sc
Substitution2: "'aalt' Access All Alternates lookup 0 subtable" uni0220.sc
Position2: "'cpsp' Capital Spacing lookup 0 subtable" dx=5 dy=0 dh=10 dv=0
EndChar

StartChar: O
Encoding: 79 79 182
Width: 691
GlyphClass: 2
Flags: W
AnchorPoint: "Anchor-18" 0 0 basechar 0
AnchorPoint: "Anchor-17" 539 684 basechar 0
AnchorPoint: "Anchor-16" 345 684 basechar 0
AnchorPoint: "Anchor-15" 434 0 basechar 0
AnchorPoint: "Anchor-14" 345 0 basechar 0
LayerCount: 2
Fore
SplineSet
490 653.5 m 128,-1,1
 552 613 552 613 586.5 533.5 c 128,-1,2
 621 454 621 454 621 341 c 0,3,4
 621 230 621 230 587 151 c 128,-1,5
 553 72 553 72 491 30.5 c 128,-1,6
 429 -11 429 -11 345 -11 c 0,7,8
 263 -11 263 -11 201 30 c 128,-1,9
 139 71 139 71 104.5 150 c 128,-1,10
 70 229 70 229 70 340 c 256,11,12
 70 451 70 451 104.5 531 c 128,-1,13
 139 611 139 611 201.5 652.5 c 128,-1,14
 264 694 264 694 345 694 c 0,15,0
 428 694 428 694 490 653.5 c 128,-1,1
180.5 573.5 m 128,-1,17
 120 494 120 494 120 340 c 0,18,19
 120 189 120 189 181 110 c 128,-1,20
 242 31 242 31 345 31 c 0,21,22
 452 31 452 31 511.5 109.5 c 128,-1,23
 571 188 571 188 571 341 c 0,24,25
 571 495 571 495 511 574 c 128,-1,26
 451 653 451 653 345 653 c 0,27,16
 241 653 241 653 180.5 573.5 c 128,-1,17
EndSplineSet
Substitution2: "Single Substitution lookup 45 subtable" ordmasculine
Substitution2: "'c2sc' Capitals to Small Capitals lookup 26 subtable" o.sc
AlternateSubs2: "'aalt' Access All Alternates lookup 1 subtable" ordmasculine o.sc
Position2: "'cpsp' Capital Spacing lookup 0 subtable" dx=5 dy=0 dh=10 dv=0
EndChar

StartChar: uni0222
Encoding: 546 546 183
Width: 636
GlyphClass: 2
Flags: W
AnchorPoint: "Anchor-18" 0 0 basechar 0
AnchorPoint: "Anchor-17" 0 0 basechar 0
AnchorPoint: "Anchor-16" 318 684 basechar 0
AnchorPoint: "Anchor-15" 0 0 basechar 0
AnchorPoint: "Anchor-14" 318 0 basechar 0
LayerCount: 2
Fore
SplineSet
529 316 m 128,-1,1
 566 267 566 267 566 196 c 0,2,3
 566 138 566 138 538.5 91 c 128,-1,4
 511 44 511 44 455 16.5 c 128,-1,5
 399 -11 399 -11 318 -11 c 0,6,7
 239 -11 239 -11 183 16 c 128,-1,8
 127 43 127 43 98.5 89.5 c 128,-1,9
 70 136 70 136 70 195 c 0,10,11
 70 263 70 263 107 313.5 c 128,-1,12
 144 364 144 364 214 385 c 1,13,14
 117 425 117 425 117 547 c 2,15,-1
 117 684 l 1,16,-1
 165 684 l 1,17,-1
 165 549 l 2,18,19
 165 481 165 481 199.5 441.5 c 128,-1,20
 234 402 234 402 318 402 c 0,21,22
 475 402 475 402 475 549 c 2,23,-1
 475 684 l 1,24,-1
 522 684 l 1,25,-1
 522 547 l 2,26,27
 522 491 522 491 497.5 449 c 128,-1,28
 473 407 473 407 422 386 c 1,29,0
 492 365 492 365 529 316 c 128,-1,1
468 74 m 128,-1,31
 516 117 516 117 516 196 c 256,32,33
 516 275 516 275 467.5 318 c 128,-1,34
 419 361 419 361 318 361 c 0,35,36
 220 361 220 361 170 317 c 128,-1,37
 120 273 120 273 120 195 c 0,38,39
 120 118 120 118 169.5 74.5 c 128,-1,40
 219 31 219 31 318 31 c 0,41,30
 420 31 420 31 468 74 c 128,-1,31
EndSplineSet
Substitution2: "'c2sc' Capitals to Small Capitals lookup 26 subtable" uni0223.sc
Substitution2: "'aalt' Access All Alternates lookup 0 subtable" uni0223.sc
Position2: "'cpsp' Capital Spacing lookup 0 subtable" dx=5 dy=0 dh=10 dv=0
EndChar

StartChar: Ohorn
Encoding: 416 416 203
Width: 691
GlyphClass: 2
Flags: W
AnchorPoint: "Anchor-18" 0 0 basechar 0
AnchorPoint: "Anchor-17" 591 684 basechar 0
AnchorPoint: "Anchor-16" 345 684 basechar 0
AnchorPoint: "Anchor-15" 434 0 basechar 0
AnchorPoint: "Anchor-14" 345 0 basechar 0
LayerCount: 2
Fore
SplineSet
548 599 m 1,1,2
 621 505 621 505 621 341 c 0,3,4
 621 230 621 230 587 151 c 128,-1,5
 553 72 553 72 491 30.5 c 128,-1,6
 429 -11 429 -11 345 -11 c 0,7,8
 263 -11 263 -11 201 30 c 128,-1,9
 139 71 139 71 104.5 150 c 128,-1,10
 70 229 70 229 70 340 c 256,11,12
 70 451 70 451 104.5 531 c 128,-1,13
 139 611 139 611 201.5 652.5 c 128,-1,14
 264 694 264 694 345 694 c 0,15,16
 452 694 452 694 524 627 c 1,17,18
 555 631 555 631 569 645 c 128,-1,19
 583 659 583 659 583 686 c 0,20,21
 583 723 583 723 569 758 c 1,22,-1
 605 769 l 1,23,24
 623 735 623 735 623 687 c 0,25,0
 623 613 623 613 548 599 c 1,1,2
511.5 109.5 m 128,-1,27
 571 188 571 188 571 341 c 0,28,29
 571 495 571 495 511 574 c 128,-1,30
 451 653 451 653 345 653 c 0,31,32
 241 653 241 653 180.5 573.5 c 128,-1,33
 120 494 120 494 120 340 c 0,34,35
 120 189 120 189 181 110 c 128,-1,36
 242 31 242 31 345 31 c 0,37,26
 452 31 452 31 511.5 109.5 c 128,-1,27
EndSplineSet
Substitution2: "'c2sc' Capitals to Small Capitals lookup 26 subtable" ohorn.sc
Substitution2: "'aalt' Access All Alternates lookup 0 subtable" ohorn.sc
Position2: "'cpsp' Capital Spacing lookup 0 subtable" dx=5 dy=0 dh=10 dv=0
EndChar

StartChar: uni1EDA
Encoding: 7898 7898 204
Width: 691
GlyphClass: 2
Flags: W
AnchorPoint: "Anchor-18" 0 0 basechar 0
AnchorPoint: "Anchor-17" 591 684 basechar 0
AnchorPoint: "Anchor-16" 347 880 basechar 0
AnchorPoint: "Anchor-15" 434 0 basechar 0
AnchorPoint: "Anchor-14" 345 0 basechar 0
LayerCount: 2
Fore
SplineSet
447 836 m 1,0,-1
 255 759 l 1,1,-1
 242 788 l 1,2,-1
 426 880 l 1,3,-1
 447 836 l 1,0,-1
548 599 m 1,5,6
 621 505 621 505 621 341 c 0,7,8
 621 230 621 230 587 151 c 128,-1,9
 553 72 553 72 491 30.5 c 128,-1,10
 429 -11 429 -11 345 -11 c 0,11,12
 263 -11 263 -11 201 30 c 128,-1,13
 139 71 139 71 104.5 150 c 128,-1,14
 70 229 70 229 70 340 c 256,15,16
 70 451 70 451 104.5 531 c 128,-1,17
 139 611 139 611 201.5 652.5 c 128,-1,18
 264 694 264 694 345 694 c 0,19,20
 452 694 452 694 524 627 c 1,21,22
 555 631 555 631 569 645 c 128,-1,23
 583 659 583 659 583 686 c 0,24,25
 583 723 583 723 569 758 c 1,26,-1
 605 769 l 1,27,28
 623 735 623 735 623 687 c 0,29,4
 623 613 623 613 548 599 c 1,5,6
511.5 109.5 m 128,-1,31
 571 188 571 188 571 341 c 0,32,33
 571 495 571 495 511 574 c 128,-1,34
 451 653 451 653 345 653 c 0,35,36
 241 653 241 653 180.5 573.5 c 128,-1,37
 120 494 120 494 120 340 c 0,38,39
 120 189 120 189 181 110 c 128,-1,40
 242 31 242 31 345 31 c 0,41,30
 452 31 452 31 511.5 109.5 c 128,-1,31
EndSplineSet
Substitution2: "'c2sc' Capitals to Small Capitals lookup 26 subtable" uni1EDB.sc
Substitution2: "'aalt' Access All Alternates lookup 0 subtable" uni1EDB.sc
Position2: "'cpsp' Capital Spacing lookup 0 subtable" dx=5 dy=0 dh=10 dv=0
EndChar

StartChar: uni1EE2
Encoding: 7906 7906 205
Width: 691
GlyphClass: 2
Flags: W
AnchorPoint: "Anchor-18" 0 0 basechar 0
AnchorPoint: "Anchor-17" 591 684 basechar 0
AnchorPoint: "Anchor-16" 345 684 basechar 0
AnchorPoint: "Anchor-15" 434 0 basechar 0
AnchorPoint: "Anchor-14" 346 -195 basechar 0
LayerCount: 2
Fore
SplineSet
548 599 m 1,1,2
 621 505 621 505 621 341 c 0,3,4
 621 230 621 230 587 151 c 128,-1,5
 553 72 553 72 491 30.5 c 128,-1,6
 429 -11 429 -11 345 -11 c 0,7,8
 263 -11 263 -11 201 30 c 128,-1,9
 139 71 139 71 104.5 150 c 128,-1,10
 70 229 70 229 70 340 c 256,11,12
 70 451 70 451 104.5 531 c 128,-1,13
 139 611 139 611 201.5 652.5 c 128,-1,14
 264 694 264 694 345 694 c 0,15,16
 452 694 452 694 524 627 c 1,17,18
 555 631 555 631 569 645 c 128,-1,19
 583 659 583 659 583 686 c 0,20,21
 583 723 583 723 569 758 c 1,22,-1
 605 769 l 1,23,24
 623 735 623 735 623 687 c 0,25,0
 623 613 623 613 548 599 c 1,1,2
511.5 109.5 m 128,-1,27
 571 188 571 188 571 341 c 0,28,29
 571 495 571 495 511 574 c 128,-1,30
 451 653 451 653 345 653 c 0,31,32
 241 653 241 653 180.5 573.5 c 128,-1,33
 120 494 120 494 120 340 c 0,34,35
 120 189 120 189 181 110 c 128,-1,36
 242 31 242 31 345 31 c 0,37,26
 452 31 452 31 511.5 109.5 c 128,-1,27
371 -100 m 128,-1,39
 381 -110 381 -110 381 -125 c 256,40,41
 381 -140 381 -140 371 -150 c 128,-1,42
 361 -160 361 -160 345 -160 c 256,43,44
 329 -160 329 -160 319 -150 c 128,-1,45
 309 -140 309 -140 309 -125 c 256,46,47
 309 -110 309 -110 319 -100 c 128,-1,48
 329 -90 329 -90 345 -90 c 256,49,38
 361 -90 361 -90 371 -100 c 128,-1,39
EndSplineSet
Substitution2: "'c2sc' Capitals to Small Capitals lookup 26 subtable" uni1EE3.sc
Substitution2: "'aalt' Access All Alternates lookup 0 subtable" uni1EE3.sc
Position2: "'cpsp' Capital Spacing lookup 0 subtable" dx=5 dy=0 dh=10 dv=0
EndChar

StartChar: uni1EDC
Encoding: 7900 7900 206
Width: 691
GlyphClass: 2
Flags: W
AnchorPoint: "Anchor-18" 0 0 basechar 0
AnchorPoint: "Anchor-17" 591 684 basechar 0
AnchorPoint: "Anchor-16" 346 880 basechar 0
AnchorPoint: "Anchor-15" 434 0 basechar 0
AnchorPoint: "Anchor-14" 345 0 basechar 0
LayerCount: 2
Fore
SplineSet
444 788 m 1,0,-1
 431 759 l 1,1,-1
 239 836 l 1,2,-1
 261 880 l 1,3,-1
 444 788 l 1,0,-1
548 599 m 1,5,6
 621 505 621 505 621 341 c 0,7,8
 621 230 621 230 587 151 c 128,-1,9
 553 72 553 72 491 30.5 c 128,-1,10
 429 -11 429 -11 345 -11 c 0,11,12
 263 -11 263 -11 201 30 c 128,-1,13
 139 71 139 71 104.5 150 c 128,-1,14
 70 229 70 229 70 340 c 256,15,16
 70 451 70 451 104.5 531 c 128,-1,17
 139 611 139 611 201.5 652.5 c 128,-1,18
 264 694 264 694 345 694 c 0,19,20
 452 694 452 694 524 627 c 1,21,22
 555 631 555 631 569 645 c 128,-1,23
 583 659 583 659 583 686 c 0,24,25
 583 723 583 723 569 758 c 1,26,-1
 605 769 l 1,27,28
 623 735 623 735 623 687 c 0,29,4
 623 613 623 613 548 599 c 1,5,6
511.5 109.5 m 128,-1,31
 571 188 571 188 571 341 c 0,32,33
 571 495 571 495 511 574 c 128,-1,34
 451 653 451 653 345 653 c 0,35,36
 241 653 241 653 180.5 573.5 c 128,-1,37
 120 494 120 494 120 340 c 0,38,39
 120 189 120 189 181 110 c 128,-1,40
 242 31 242 31 345 31 c 0,41,30
 452 31 452 31 511.5 109.5 c 128,-1,31
EndSplineSet
Substitution2: "'c2sc' Capitals to Small Capitals lookup 26 subtable" uni1EDD.sc
Substitution2: "'aalt' Access All Alternates lookup 0 subtable" uni1EDD.sc
Position2: "'cpsp' Capital Spacing lookup 0 subtable" dx=5 dy=0 dh=10 dv=0
EndChar

StartChar: uni1EDE
Encoding: 7902 7902 207
Width: 691
GlyphClass: 2
Flags: W
AnchorPoint: "Anchor-18" 0 0 basechar 0
AnchorPoint: "Anchor-17" 591 684 basechar 0
AnchorPoint: "Anchor-16" 358 973 basechar 0
AnchorPoint: "Anchor-15" 434 0 basechar 0
AnchorPoint: "Anchor-14" 345 0 basechar 0
LayerCount: 2
Fore
SplineSet
288 923 m 1,1,-1
 274 953 l 1,2,3
 311 973 311 973 351 973 c 256,4,5
 391 973 391 973 414.5 952.5 c 128,-1,6
 438 932 438 932 438 897 c 0,7,8
 438 832 438 832 365 824 c 1,9,-1
 365 778 l 1,10,-1
 325 778 l 1,11,-1
 325 847 l 1,12,13
 358 849 358 849 376 859.5 c 128,-1,14
 394 870 394 870 394 895 c 0,15,16
 394 915 394 915 381.5 926 c 128,-1,17
 369 937 369 937 346 937 c 0,18,0
 316 937 316 937 288 923 c 1,1,-1
548 599 m 1,20,21
 621 505 621 505 621 341 c 0,22,23
 621 230 621 230 587 151 c 128,-1,24
 553 72 553 72 491 30.5 c 128,-1,25
 429 -11 429 -11 345 -11 c 0,26,27
 263 -11 263 -11 201 30 c 128,-1,28
 139 71 139 71 104.5 150 c 128,-1,29
 70 229 70 229 70 340 c 256,30,31
 70 451 70 451 104.5 531 c 128,-1,32
 139 611 139 611 201.5 652.5 c 128,-1,33
 264 694 264 694 345 694 c 0,34,35
 452 694 452 694 524 627 c 1,36,37
 555 631 555 631 569 645 c 128,-1,38
 583 659 583 659 583 686 c 0,39,40
 583 723 583 723 569 758 c 1,41,-1
 605 769 l 1,42,43
 623 735 623 735 623 687 c 0,44,19
 623 613 623 613 548 599 c 1,20,21
511.5 109.5 m 128,-1,46
 571 188 571 188 571 341 c 0,47,48
 571 495 571 495 511 574 c 128,-1,49
 451 653 451 653 345 653 c 0,50,51
 241 653 241 653 180.5 573.5 c 128,-1,52
 120 494 120 494 120 340 c 0,53,54
 120 189 120 189 181 110 c 128,-1,55
 242 31 242 31 345 31 c 0,56,45
 452 31 452 31 511.5 109.5 c 128,-1,46
EndSplineSet
Substitution2: "'c2sc' Capitals to Small Capitals lookup 26 subtable" uni1EDF.sc
Substitution2: "'aalt' Access All Alternates lookup 0 subtable" uni1EDF.sc
Position2: "'cpsp' Capital Spacing lookup 0 subtable" dx=5 dy=0 dh=10 dv=0
EndChar

StartChar: uni1EE0
Encoding: 7904 7904 208
Width: 691
GlyphClass: 2
Flags: W
AnchorPoint: "Anchor-18" 0 0 basechar 0
AnchorPoint: "Anchor-17" 591 684 basechar 0
AnchorPoint: "Anchor-16" 347 878 basechar 0
AnchorPoint: "Anchor-15" 434 0 basechar 0
AnchorPoint: "Anchor-14" 345 0 basechar 0
LayerCount: 2
Fore
SplineSet
256.5 831.5 m 128,-1,1
 244 823 244 823 229 803 c 1,2,-1
 200 818 l 1,3,4
 237 878 237 878 286 878 c 0,5,6
 301 878 301 878 314 872.5 c 128,-1,7
 327 867 327 867 347 855 c 0,8,9
 365 845 365 845 377.5 839.5 c 128,-1,10
 390 834 390 834 403 834 c 0,11,12
 419 834 419 834 431.5 843.5 c 128,-1,13
 444 853 444 853 460 877 c 1,14,-1
 489 862 l 1,15,16
 457 796 457 796 403 796 c 0,17,18
 385 796 385 796 369 802.5 c 128,-1,19
 353 809 353 809 333 821 c 0,20,21
 303 840 303 840 286 840 c 256,22,0
 269 840 269 840 256.5 831.5 c 128,-1,1
548 599 m 1,24,25
 621 505 621 505 621 341 c 0,26,27
 621 230 621 230 587 151 c 128,-1,28
 553 72 553 72 491 30.5 c 128,-1,29
 429 -11 429 -11 345 -11 c 0,30,31
 263 -11 263 -11 201 30 c 128,-1,32
 139 71 139 71 104.5 150 c 128,-1,33
 70 229 70 229 70 340 c 256,34,35
 70 451 70 451 104.5 531 c 128,-1,36
 139 611 139 611 201.5 652.5 c 128,-1,37
 264 694 264 694 345 694 c 0,38,39
 452 694 452 694 524 627 c 1,40,41
 555 631 555 631 569 645 c 128,-1,42
 583 659 583 659 583 686 c 0,43,44
 583 723 583 723 569 758 c 1,45,-1
 605 769 l 1,46,47
 623 735 623 735 623 687 c 0,48,23
 623 613 623 613 548 599 c 1,24,25
511.5 109.5 m 128,-1,50
 571 188 571 188 571 341 c 0,51,52
 571 495 571 495 511 574 c 128,-1,53
 451 653 451 653 345 653 c 0,54,55
 241 653 241 653 180.5 573.5 c 128,-1,56
 120 494 120 494 120 340 c 0,57,58
 120 189 120 189 181 110 c 128,-1,59
 242 31 242 31 345 31 c 0,60,49
 452 31 452 31 511.5 109.5 c 128,-1,50
EndSplineSet
Substitution2: "'c2sc' Capitals to Small Capitals lookup 26 subtable" uni1EE1.sc
Substitution2: "'aalt' Access All Alternates lookup 0 subtable" uni1EE1.sc
Position2: "'cpsp' Capital Spacing lookup 0 subtable" dx=5 dy=0 dh=10 dv=0
EndChar

StartChar: uni01A2
Encoding: 418 418 210
Width: 895
GlyphClass: 2
Flags: W
AnchorPoint: "Anchor-18" 0 0 basechar 0
AnchorPoint: "Anchor-17" 0 0 basechar 0
AnchorPoint: "Anchor-16" 447 684 basechar 0
AnchorPoint: "Anchor-15" 0 0 basechar 0
AnchorPoint: "Anchor-14" 447 -195 basechar 0
LayerCount: 2
Fore
SplineSet
745 660.5 m 128,-1,1
 780 626 780 626 780 556 c 2,2,-1
 780 -195 l 1,3,-1
 732 -195 l 1,4,-1
 732 556 l 2,5,6
 732 611 732 611 709.5 633.5 c 128,-1,7
 687 656 687 656 643 656 c 0,8,9
 612 656 612 656 584.5 647 c 128,-1,10
 557 638 557 638 528 622 c 1,11,12
 573 577 573 577 597 506 c 128,-1,13
 621 435 621 435 621 341 c 0,14,15
 621 230 621 230 587 151 c 128,-1,16
 553 72 553 72 491 30.5 c 128,-1,17
 429 -11 429 -11 345 -11 c 0,18,19
 263 -11 263 -11 201 30 c 128,-1,20
 139 71 139 71 104.5 150 c 128,-1,21
 70 229 70 229 70 340 c 256,22,23
 70 451 70 451 104.5 531 c 128,-1,24
 139 611 139 611 201.5 652.5 c 128,-1,25
 264 694 264 694 345 694 c 0,26,27
 434 694 434 694 498 647 c 1,28,29
 534 670 534 670 569.5 682.5 c 128,-1,30
 605 695 605 695 645 695 c 0,31,0
 710 695 710 695 745 660.5 c 128,-1,1
511.5 109.5 m 128,-1,33
 571 188 571 188 571 341 c 0,34,35
 571 495 571 495 511 574 c 128,-1,36
 451 653 451 653 345 653 c 0,37,38
 241 653 241 653 180.5 573.5 c 128,-1,39
 120 494 120 494 120 340 c 0,40,41
 120 189 120 189 181 110 c 128,-1,42
 242 31 242 31 345 31 c 0,43,32
 452 31 452 31 511.5 109.5 c 128,-1,33
EndSplineSet
Substitution2: "'c2sc' Capitals to Small Capitals lookup 26 subtable" uni01A3.sc
Substitution2: "'aalt' Access All Alternates lookup 0 subtable" uni01A3.sc
Position2: "'cpsp' Capital Spacing lookup 0 subtable" dx=5 dy=0 dh=10 dv=0
EndChar

StartChar: uni1E50
Encoding: 7760 7760 214
Width: 691
GlyphClass: 2
Flags: W
AnchorPoint: "Anchor-18" 0 0 basechar 0
AnchorPoint: "Anchor-17" 539 684 basechar 0
AnchorPoint: "Anchor-16" 351 972 basechar 0
AnchorPoint: "Anchor-15" 434 0 basechar 0
AnchorPoint: "Anchor-14" 345 0 basechar 0
LayerCount: 2
Fore
SplineSet
266 972 m 1,0,-1
 449 880 l 1,1,-1
 436 851 l 1,2,-1
 244 928 l 1,3,-1
 266 972 l 1,0,-1
459 764 m 1,4,-1
 230 764 l 1,5,-1
 230 803 l 1,6,-1
 459 803 l 1,7,-1
 459 764 l 1,4,-1
490 653.5 m 128,-1,9
 552 613 552 613 586.5 533.5 c 128,-1,10
 621 454 621 454 621 341 c 0,11,12
 621 230 621 230 587 151 c 128,-1,13
 553 72 553 72 491 30.5 c 128,-1,14
 429 -11 429 -11 345 -11 c 0,15,16
 263 -11 263 -11 201 30 c 128,-1,17
 139 71 139 71 104.5 150 c 128,-1,18
 70 229 70 229 70 340 c 256,19,20
 70 451 70 451 104.5 531 c 128,-1,21
 139 611 139 611 201.5 652.5 c 128,-1,22
 264 694 264 694 345 694 c 0,23,8
 428 694 428 694 490 653.5 c 128,-1,9
180.5 573.5 m 128,-1,25
 120 494 120 494 120 340 c 0,26,27
 120 189 120 189 181 110 c 128,-1,28
 242 31 242 31 345 31 c 0,29,30
 452 31 452 31 511.5 109.5 c 128,-1,31
 571 188 571 188 571 341 c 0,32,33
 571 495 571 495 511 574 c 128,-1,34
 451 653 451 653 345 653 c 0,35,24
 241 653 241 653 180.5 573.5 c 128,-1,25
EndSplineSet
Substitution2: "'c2sc' Capitals to Small Capitals lookup 26 subtable" uni1E51.sc
Substitution2: "'aalt' Access All Alternates lookup 0 subtable" uni1E51.sc
Position2: "'cpsp' Capital Spacing lookup 0 subtable" dx=5 dy=0 dh=10 dv=0
EndChar

StartChar: uniA7B6
Encoding: 42934 42934 215
Width: 839
GlyphClass: 2
Flags: W
AnchorPoint: "Anchor-18" 0 0 basechar 0
AnchorPoint: "Anchor-17" 0 0 basechar 0
AnchorPoint: "Anchor-16" 420 684 basechar 0
AnchorPoint: "Anchor-15" 0 0 basechar 0
AnchorPoint: "Anchor-14" 420 0 basechar 0
LayerCount: 2
Fore
SplineSet
747.5 493 m 128,-1,1
 765 409 765 409 765 289 c 0,2,3
 765 125 765 125 713 57 c 128,-1,4
 661 -11 661 -11 568 -11 c 0,5,6
 506 -11 506 -11 470 18 c 128,-1,7
 434 47 434 47 419 107 c 1,8,9
 402 47 402 47 365.5 18 c 128,-1,10
 329 -11 329 -11 269 -11 c 0,11,12
 174 -11 174 -11 124.5 60 c 128,-1,13
 75 131 75 131 75 290 c 0,14,15
 75 408 75 408 93 490.5 c 128,-1,16
 111 573 111 573 150 684 c 1,17,-1
 199 684 l 1,18,19
 158 575 158 575 140.5 489.5 c 128,-1,20
 123 404 123 404 123 291 c 0,21,22
 123 147 123 147 160.5 89 c 128,-1,23
 198 31 198 31 270 31 c 0,24,25
 328 31 328 31 361 69 c 128,-1,26
 394 107 394 107 394 200 c 2,27,-1
 394 397 l 1,28,-1
 442 397 l 1,29,-1
 442 200 l 2,30,31
 442 106 442 106 475 68.5 c 128,-1,32
 508 31 508 31 566 31 c 0,33,34
 638 31 638 31 677 86.5 c 128,-1,35
 716 142 716 142 716 289 c 0,36,37
 716 403 716 403 699.5 489 c 128,-1,38
 683 575 683 575 643 684 c 1,39,-1
 691 684 l 1,40,0
 730 577 730 577 747.5 493 c 128,-1,1
EndSplineSet
Substitution2: "'c2sc' Capitals to Small Capitals lookup 26 subtable" uniA7B6.sc
Substitution2: "'aalt' Access All Alternates lookup 0 subtable" uniA7B6.sc
Position2: "'cpsp' Capital Spacing lookup 0 subtable" dx=5 dy=0 dh=10 dv=0
EndChar

StartChar: uni01EA
Encoding: 490 490 216
Width: 691
GlyphClass: 2
Flags: W
AnchorPoint: "Anchor-18" 0 0 basechar 0
AnchorPoint: "Anchor-17" 539 684 basechar 0
AnchorPoint: "Anchor-16" 345 684 basechar 0
AnchorPoint: "Anchor-15" 434 0 basechar 0
AnchorPoint: "Anchor-14" 345 0 basechar 0
LayerCount: 2
Fore
SplineSet
329.5 -56.5 m 128,-1,1
 302 -82 302 -82 302 -119 c 0,2,3
 302 -144 302 -144 318 -158 c 128,-1,4
 334 -172 334 -172 367 -172 c 0,5,6
 393 -172 393 -172 424 -166 c 1,7,-1
 420 -206 l 1,8,9
 385 -213 385 -213 363 -213 c 0,10,11
 312 -213 312 -213 284.5 -188 c 128,-1,12
 257 -163 257 -163 257 -124 c 0,13,14
 257 -89 257 -89 277.5 -62 c 128,-1,15
 298 -35 298 -35 340 -11 c 1,16,17
 259 -9 259 -9 198.5 32 c 128,-1,18
 138 73 138 73 104 151.5 c 128,-1,19
 70 230 70 230 70 340 c 0,20,21
 70 451 70 451 104.5 531 c 128,-1,22
 139 611 139 611 201.5 652.5 c 128,-1,23
 264 694 264 694 345 694 c 0,24,25
 428 694 428 694 490 653.5 c 128,-1,26
 552 613 552 613 586.5 533.5 c 128,-1,27
 621 454 621 454 621 341 c 0,28,29
 621 202 621 202 568.5 113.5 c 128,-1,30
 516 25 516 25 422 -1 c 1,31,0
 357 -31 357 -31 329.5 -56.5 c 128,-1,1
181 110 m 128,-1,33
 242 31 242 31 345 31 c 0,34,35
 452 31 452 31 511.5 109.5 c 128,-1,36
 571 188 571 188 571 341 c 0,37,38
 571 495 571 495 511 574 c 128,-1,39
 451 653 451 653 345 653 c 0,40,41
 241 653 241 653 180.5 573.5 c 128,-1,42
 120 494 120 494 120 340 c 0,43,32
 120 189 120 189 181 110 c 128,-1,33
EndSplineSet
Substitution2: "'c2sc' Capitals to Small Capitals lookup 26 subtable" uni01EB.sc
Substitution2: "'aalt' Access All Alternates lookup 0 subtable" uni01EB.sc
Position2: "'cpsp' Capital Spacing lookup 0 subtable" dx=5 dy=0 dh=10 dv=0
EndChar

StartChar: uni01EC
Encoding: 492 492 217
Width: 691
GlyphClass: 2
Flags: W
AnchorPoint: "Anchor-18" 0 0 basechar 0
AnchorPoint: "Anchor-17" 539 684 basechar 0
AnchorPoint: "Anchor-16" 347 844 basechar 0
AnchorPoint: "Anchor-15" 434 0 basechar 0
AnchorPoint: "Anchor-14" 345 0 basechar 0
LayerCount: 2
Fore
SplineSet
459 844 m 1,0,-1
 459 805 l 1,1,-1
 230 805 l 1,2,-1
 230 844 l 1,3,-1
 459 844 l 1,0,-1
329.5 -56.5 m 128,-1,5
 302 -82 302 -82 302 -119 c 0,6,7
 302 -144 302 -144 318 -158 c 128,-1,8
 334 -172 334 -172 367 -172 c 0,9,10
 393 -172 393 -172 424 -166 c 1,11,-1
 420 -206 l 1,12,13
 385 -213 385 -213 363 -213 c 0,14,15
 312 -213 312 -213 284.5 -188 c 128,-1,16
 257 -163 257 -163 257 -124 c 0,17,18
 257 -89 257 -89 277.5 -62 c 128,-1,19
 298 -35 298 -35 340 -11 c 1,20,21
 259 -9 259 -9 198.5 32 c 128,-1,22
 138 73 138 73 104 151.5 c 128,-1,23
 70 230 70 230 70 340 c 0,24,25
 70 451 70 451 104.5 531 c 128,-1,26
 139 611 139 611 201.5 652.5 c 128,-1,27
 264 694 264 694 345 694 c 0,28,29
 428 694 428 694 490 653.5 c 128,-1,30
 552 613 552 613 586.5 533.5 c 128,-1,31
 621 454 621 454 621 341 c 0,32,33
 621 202 621 202 568.5 113.5 c 128,-1,34
 516 25 516 25 422 -1 c 1,35,4
 357 -31 357 -31 329.5 -56.5 c 128,-1,5
181 110 m 128,-1,37
 242 31 242 31 345 31 c 0,38,39
 452 31 452 31 511.5 109.5 c 128,-1,40
 571 188 571 188 571 341 c 0,41,42
 571 495 571 495 511 574 c 128,-1,43
 451 653 451 653 345 653 c 0,44,45
 241 653 241 653 180.5 573.5 c 128,-1,46
 120 494 120 494 120 340 c 0,47,36
 120 189 120 189 181 110 c 128,-1,37
EndSplineSet
Substitution2: "'c2sc' Capitals to Small Capitals lookup 26 subtable" uni01ED.sc
Substitution2: "'aalt' Access All Alternates lookup 0 subtable" uni01ED.sc
Position2: "'cpsp' Capital Spacing lookup 0 subtable" dx=5 dy=0 dh=10 dv=0
EndChar

StartChar: uni0186
Encoding: 390 390 218
Width: 547
GlyphClass: 2
Flags: W
AnchorPoint: "Anchor-18" 215 345 basechar 0
AnchorPoint: "Anchor-17" 0 0 basechar 0
AnchorPoint: "Anchor-16" 220 684 basechar 0
AnchorPoint: "Anchor-15" 0 0 basechar 0
AnchorPoint: "Anchor-14" 220 0 basechar 0
LayerCount: 2
Fore
SplineSet
355.5 654.5 m 128,-1,1
 413 615 413 615 445 536 c 128,-1,2
 477 457 477 457 477 342 c 0,3,4
 477 230 477 230 442 150.5 c 128,-1,5
 407 71 407 71 346 30 c 128,-1,6
 285 -11 285 -11 207 -11 c 0,7,8
 102 -11 102 -11 24 58 c 1,9,-1
 50 89 l 1,10,11
 89 61 89 61 123.5 46.5 c 128,-1,12
 158 32 158 32 206 32 c 0,13,14
 269 32 269 32 319 66.5 c 128,-1,15
 369 101 369 101 398 170.5 c 128,-1,16
 427 240 427 240 427 342 c 0,17,18
 427 501 427 501 370 577 c 128,-1,19
 313 653 313 653 218 653 c 0,20,21
 172 653 172 653 133.5 640 c 128,-1,22
 95 627 95 627 57 601 c 1,23,-1
 32 633 l 1,24,25
 114 694 114 694 221 694 c 0,26,0
 298 694 298 694 355.5 654.5 c 128,-1,1
EndSplineSet
Substitution2: "'c2sc' Capitals to Small Capitals lookup 26 subtable" uni0254.sc
Substitution2: "'aalt' Access All Alternates lookup 0 subtable" uni0254.sc
Position2: "'cpsp' Capital Spacing lookup 0 subtable" dx=5 dy=0 dh=10 dv=0
EndChar

StartChar: Oslash
Encoding: 216 216 219
Width: 691
GlyphClass: 2
Flags: W
AnchorPoint: "Anchor-18" 0 0 basechar 0
AnchorPoint: "Anchor-17" 0 0 basechar 0
AnchorPoint: "Anchor-16" 338 695 basechar 0
AnchorPoint: "Anchor-15" 0 0 basechar 0
AnchorPoint: "Anchor-14" 345 0 basechar 0
LayerCount: 2
Fore
SplineSet
579 550.5 m 128,-1,1
 621 467 621 467 621 341 c 0,2,3
 621 230 621 230 587 151 c 128,-1,4
 553 72 553 72 491 30.5 c 128,-1,5
 429 -11 429 -11 345 -11 c 0,6,7
 302 -11 302 -11 264 1 c 1,8,-1
 231 -117 l 1,9,-1
 188 -105 l 1,10,-1
 226 15 l 1,11,12
 152 52 152 52 111 135 c 128,-1,13
 70 218 70 218 70 340 c 0,14,15
 70 451 70 451 104.5 531 c 128,-1,16
 139 611 139 611 201.5 652.5 c 128,-1,17
 264 694 264 694 345 694 c 0,18,19
 386 694 386 694 424 683 c 1,20,-1
 459 807 l 1,21,-1
 502 795 l 1,22,-1
 462 669 l 1,23,0
 537 634 537 634 579 550.5 c 128,-1,1
152 159 m 128,-1,25
 184 88 184 88 242 56 c 1,26,-1
 415 643 l 1,27,28
 385 653 385 653 345 653 c 0,29,30
 241 653 241 653 180.5 573.5 c 128,-1,31
 120 494 120 494 120 340 c 0,32,24
 120 230 120 230 152 159 c 128,-1,25
511.5 109.5 m 128,-1,34
 571 188 571 188 571 341 c 0,35,36
 571 454 571 454 538.5 526.5 c 128,-1,37
 506 599 506 599 447 630 c 1,38,-1
 273 42 l 1,39,40
 308 31 308 31 345 31 c 0,41,33
 452 31 452 31 511.5 109.5 c 128,-1,34
EndSplineSet
Substitution2: "'c2sc' Capitals to Small Capitals lookup 26 subtable" oslash.sc
Substitution2: "'aalt' Access All Alternates lookup 0 subtable" oslash.sc
Position2: "'cpsp' Capital Spacing lookup 0 subtable" dx=5 dy=0 dh=10 dv=0
EndChar

StartChar: OE
Encoding: 338 338 224
Width: 861
GlyphClass: 2
Flags: W
AnchorPoint: "Anchor-18" 0 0 basechar 0
AnchorPoint: "Anchor-17" 0 0 basechar 0
AnchorPoint: "Anchor-16" 432 684 basechar 0
AnchorPoint: "Anchor-15" 0 0 basechar 0
AnchorPoint: "Anchor-14" 432 0 basechar 0
LayerCount: 2
Fore
SplineSet
817 0 m 1,0,-1
 403 0 l 1,1,2
 368 -11 368 -11 334 -11 c 0,3,4
 257 -11 257 -11 197.5 30 c 128,-1,5
 138 71 138 71 104 150 c 128,-1,6
 70 229 70 229 70 340 c 0,7,8
 70 450 70 450 104 530 c 128,-1,9
 138 610 138 610 198 652 c 128,-1,10
 258 694 258 694 334 694 c 0,11,12
 373 694 373 694 404 684 c 1,13,-1
 811 684 l 1,14,-1
 805 643 l 1,15,-1
 480 643 l 1,16,17
 535 605 535 605 565.5 537.5 c 128,-1,18
 596 470 596 470 600 377 c 1,19,-1
 766 377 l 1,20,-1
 766 336 l 1,21,-1
 601 336 l 1,22,23
 600 230 600 230 568 155.5 c 128,-1,24
 536 81 536 81 478 41 c 1,25,-1
 817 41 l 1,26,-1
 817 0 l 1,0,-1
147.5 169.5 m 128,-1,28
 175 100 175 100 223.5 65.5 c 128,-1,29
 272 31 272 31 335 31 c 0,30,31
 436 31 436 31 493.5 111 c 128,-1,32
 551 191 551 191 551 348 c 0,33,34
 551 497 551 497 492.5 575 c 128,-1,35
 434 653 434 653 335 653 c 0,36,37
 272 653 272 653 223.5 618 c 128,-1,38
 175 583 175 583 147.5 513 c 128,-1,39
 120 443 120 443 120 340 c 0,40,27
 120 239 120 239 147.5 169.5 c 128,-1,28
EndSplineSet
Substitution2: "'c2sc' Capitals to Small Capitals lookup 26 subtable" oe.sc
Substitution2: "'aalt' Access All Alternates lookup 0 subtable" oe.sc
Position2: "'cpsp' Capital Spacing lookup 0 subtable" dx=5 dy=0 dh=10 dv=0
EndChar

StartChar: P
Encoding: 80 80 225
Width: 566
GlyphClass: 2
Flags: W
AnchorPoint: "Anchor-18" 0 0 basechar 0
AnchorPoint: "Anchor-17" 0 0 basechar 0
AnchorPoint: "Anchor-16" 284 684 basechar 0
AnchorPoint: "Anchor-15" 0 0 basechar 0
AnchorPoint: "Anchor-14" 139 0 basechar 0
LayerCount: 2
Fore
SplineSet
453 634 m 128,-1,1
 517 584 517 584 517 481 c 0,2,3
 517 372 517 372 449.5 322 c 128,-1,4
 382 272 382 272 265 272 c 2,5,-1
 162 272 l 1,6,-1
 162 0 l 1,7,-1
 115 0 l 1,8,-1
 115 684 l 1,9,-1
 268 684 l 2,10,0
 389 684 389 684 453 634 c 128,-1,1
414.5 350.5 m 128,-1,12
 467 389 467 389 467 480 c 0,13,14
 467 568 467 568 417 605.5 c 128,-1,15
 367 643 367 643 268 643 c 2,16,-1
 162 643 l 1,17,-1
 162 312 l 1,18,-1
 266 312 l 2,19,11
 362 312 362 312 414.5 350.5 c 128,-1,12
EndSplineSet
Substitution2: "'c2sc' Capitals to Small Capitals lookup 26 subtable" p.sc
Substitution2: "'aalt' Access All Alternates lookup 0 subtable" p.sc
Position2: "'cpsp' Capital Spacing lookup 0 subtable" dx=5 dy=0 dh=10 dv=0
EndChar

StartChar: uni01A4
Encoding: 420 420 228
Width: 618
GlyphClass: 2
Flags: W
AnchorPoint: "Anchor-18" 0 0 basechar 0
AnchorPoint: "Anchor-17" 0 0 basechar 0
AnchorPoint: "Anchor-16" 336 684 basechar 0
AnchorPoint: "Anchor-15" 0 0 basechar 0
AnchorPoint: "Anchor-14" 191 0 basechar 0
LayerCount: 2
Fore
SplineSet
505 634 m 128,-1,1
 569 584 569 584 569 481 c 0,2,3
 569 372 569 372 501.5 322 c 128,-1,4
 434 272 434 272 317 272 c 2,5,-1
 214 272 l 1,6,-1
 214 0 l 1,7,-1
 167 0 l 1,8,-1
 167 644 l 1,9,-1
 138 644 l 2,10,11
 99 644 99 644 80.5 625.5 c 128,-1,12
 62 607 62 607 62 576 c 0,13,14
 62 555 62 555 68 538.5 c 128,-1,15
 74 522 74 522 85 501 c 1,16,-1
 51 482 l 1,17,18
 34 508 34 508 25.5 528.5 c 128,-1,19
 17 549 17 549 17 577 c 0,20,21
 17 625 17 625 50 654.5 c 128,-1,22
 83 684 83 684 143 684 c 2,23,-1
 320 684 l 2,24,0
 441 684 441 684 505 634 c 128,-1,1
466.5 350.5 m 128,-1,26
 519 389 519 389 519 480 c 0,27,28
 519 568 519 568 469 605.5 c 128,-1,29
 419 643 419 643 320 643 c 2,30,-1
 214 643 l 1,31,-1
 214 312 l 1,32,-1
 318 312 l 2,33,25
 414 312 414 312 466.5 350.5 c 128,-1,26
EndSplineSet
Substitution2: "'c2sc' Capitals to Small Capitals lookup 26 subtable" uni01A5.sc
Substitution2: "'aalt' Access All Alternates lookup 0 subtable" uni01A5.sc
Position2: "'cpsp' Capital Spacing lookup 0 subtable" dx=5 dy=0 dh=10 dv=0
EndChar

StartChar: Thorn
Encoding: 222 222 229
Width: 566
GlyphClass: 2
Flags: W
AnchorPoint: "Anchor-18" 0 0 basechar 0
AnchorPoint: "Anchor-17" 0 0 basechar 0
AnchorPoint: "Anchor-16" 283 684 basechar 0
AnchorPoint: "Anchor-15" 0 0 basechar 0
AnchorPoint: "Anchor-14" 283 0 basechar 0
LayerCount: 2
Fore
SplineSet
517 356 m 0,1,2
 517 243 517 243 450 191.5 c 128,-1,3
 383 140 383 140 265 140 c 2,4,-1
 162 140 l 1,5,-1
 162 0 l 1,6,-1
 115 0 l 1,7,-1
 115 684 l 1,8,-1
 162 684 l 1,9,-1
 162 560 l 1,10,-1
 268 560 l 2,11,0
 517 560 517 560 517 356 c 0,1,2
414.5 219.5 m 128,-1,13
 467 259 467 259 467 355 c 0,14,15
 467 443 467 443 417 481 c 128,-1,16
 367 519 367 519 268 519 c 2,17,-1
 162 519 l 1,18,-1
 162 180 l 1,19,-1
 266 180 l 2,20,12
 362 180 362 180 414.5 219.5 c 128,-1,13
EndSplineSet
Substitution2: "'c2sc' Capitals to Small Capitals lookup 26 subtable" thorn.sc
Substitution2: "'aalt' Access All Alternates lookup 0 subtable" thorn.sc
Position2: "'cpsp' Capital Spacing lookup 0 subtable" dx=5 dy=0 dh=10 dv=0
EndChar

StartChar: Q
Encoding: 81 81 230
Width: 690
GlyphClass: 2
Flags: W
AnchorPoint: "Anchor-18" 0 0 basechar 0
AnchorPoint: "Anchor-17" 0 0 basechar 0
AnchorPoint: "Anchor-16" 339 684 basechar 0
AnchorPoint: "Anchor-15" 0 0 basechar 0
AnchorPoint: "Anchor-14" 339 0 basechar 0
LayerCount: 2
Fore
SplineSet
643 -49 m 1,1,-1
 611 -89 l 1,2,3
 558 -43 558 -43 499 -26 c 128,-1,4
 440 -9 440 -9 345 -9 c 0,5,6
 263 -9 263 -9 201 31.5 c 128,-1,7
 139 72 139 72 104.5 150.5 c 128,-1,8
 70 229 70 229 70 340 c 256,9,10
 70 451 70 451 104.5 531 c 128,-1,11
 139 611 139 611 201.5 652.5 c 128,-1,12
 264 694 264 694 345 694 c 0,13,14
 428 694 428 694 490 653.5 c 128,-1,15
 552 613 552 613 586.5 533.5 c 128,-1,16
 621 454 621 454 621 341 c 0,17,18
 621 202 621 202 573 123.5 c 128,-1,19
 525 45 525 45 442 18 c 1,20,0
 568 16 568 16 643 -49 c 1,1,-1
181 110 m 128,-1,22
 242 31 242 31 345 31 c 0,23,24
 452 31 452 31 511.5 109.5 c 128,-1,25
 571 188 571 188 571 341 c 0,26,27
 571 495 571 495 511 574 c 128,-1,28
 451 653 451 653 345 653 c 0,29,30
 241 653 241 653 180.5 573.5 c 128,-1,31
 120 494 120 494 120 340 c 0,32,21
 120 189 120 189 181 110 c 128,-1,22
EndSplineSet
Substitution2: "'c2sc' Capitals to Small Capitals lookup 26 subtable" q.sc
Substitution2: "'aalt' Access All Alternates lookup 0 subtable" q.sc
Position2: "'cpsp' Capital Spacing lookup 0 subtable" dx=5 dy=0 dh=10 dv=0
EndChar

StartChar: uni024A
Encoding: 586 586 231
Width: 656
GlyphClass: 2
Flags: W
AnchorPoint: "Anchor-18" 0 0 basechar 0
AnchorPoint: "Anchor-17" 0 0 basechar 0
AnchorPoint: "Anchor-16" 328 684 basechar 0
AnchorPoint: "Anchor-15" 0 0 basechar 0
AnchorPoint: "Anchor-14" 328 -195 basechar 0
LayerCount: 2
Fore
SplineSet
707 -170 m 1,0,1
 664 -203 664 -203 610 -203 c 0,2,3
 557 -203 557 -203 525.5 -170.5 c 128,-1,4
 494 -138 494 -138 494 -76 c 2,5,-1
 494 61 l 1,6,7
 428 -11 428 -11 325 -11 c 0,8,9
 253 -11 253 -11 195 28 c 128,-1,10
 137 67 137 67 103.5 143.5 c 128,-1,11
 70 220 70 220 70 329 c 0,12,13
 70 444 70 444 103.5 526.5 c 128,-1,14
 137 609 137 609 195 651.5 c 128,-1,15
 253 694 253 694 326 694 c 0,16,17
 430 694 430 694 496 622 c 1,18,-1
 500 684 l 1,19,-1
 542 684 l 1,20,-1
 542 -76 l 2,21,22
 542 -162 542 -162 611 -162 c 0,23,24
 635 -162 635 -162 652.5 -156 c 128,-1,25
 670 -150 670 -150 687 -139 c 1,26,-1
 707 -170 l 1,0,1
494 108 m 1,28,-1
 494 576 l 1,29,30
 432 653 432 653 329 653 c 0,31,32
 268 653 268 653 221 617.5 c 128,-1,33
 174 582 174 582 147 509 c 128,-1,34
 120 436 120 436 120 329 c 0,35,36
 120 230 120 230 147 163.5 c 128,-1,37
 174 97 174 97 221 64 c 128,-1,38
 268 31 268 31 327 31 c 0,39,27
 431 31 431 31 494 108 c 1,28,-1
EndSplineSet
Substitution2: "'c2sc' Capitals to Small Capitals lookup 26 subtable" uni024B.sc
Substitution2: "'aalt' Access All Alternates lookup 0 subtable" uni024B.sc
Position2: "'cpsp' Capital Spacing lookup 0 subtable" dx=5 dy=0 dh=10 dv=0
EndChar

StartChar: R
Encoding: 82 82 232
Width: 584
GlyphClass: 2
Flags: W
AnchorPoint: "Anchor-18" 0 0 basechar 0
AnchorPoint: "Anchor-17" 0 0 basechar 0
AnchorPoint: "Anchor-16" 289 684 basechar 0
AnchorPoint: "Anchor-15" 0 0 basechar 0
AnchorPoint: "Anchor-14" 306 0 basechar 0
LayerCount: 2
Fore
SplineSet
310 313 m 1,0,-1
 162 313 l 1,1,-1
 162 0 l 1,2,-1
 115 0 l 1,3,-1
 115 684 l 1,4,-1
 276 684 l 2,5,6
 513 684 513 684 513 501 c 0,7,8
 513 426 513 426 473.5 382.5 c 128,-1,9
 434 339 434 339 359 321 c 1,10,-1
 548 0 l 1,11,-1
 491 0 l 1,12,-1
 310 313 l 1,0,-1
283 353 m 2,13,14
 463 353 463 353 463 501 c 0,15,16
 463 573 463 573 418.5 608 c 128,-1,17
 374 643 374 643 273 643 c 2,18,-1
 162 643 l 1,19,-1
 162 353 l 1,20,-1
 283 353 l 2,13,14
EndSplineSet
Substitution2: "'c2sc' Capitals to Small Capitals lookup 26 subtable" r.sc
Substitution2: "'aalt' Access All Alternates lookup 0 subtable" r.sc
Position2: "'cpsp' Capital Spacing lookup 0 subtable" dx=5 dy=0 dh=10 dv=0
EndChar

StartChar: uni024C
Encoding: 588 588 239
Width: 584
GlyphClass: 2
Flags: W
AnchorPoint: "Anchor-18" 0 0 basechar 0
AnchorPoint: "Anchor-17" 0 0 basechar 0
AnchorPoint: "Anchor-16" 289 684 basechar 0
AnchorPoint: "Anchor-15" 0 0 basechar 0
AnchorPoint: "Anchor-14" 306 0 basechar 0
LayerCount: 2
Fore
SplineSet
491 0 m 1,0,-1
 310 313 l 1,1,-1
 162 313 l 1,2,-1
 162 0 l 1,3,-1
 115 0 l 1,4,-1
 115 313 l 1,5,-1
 24 313 l 1,6,-1
 24 353 l 1,7,-1
 115 353 l 1,8,-1
 115 684 l 1,9,-1
 276 684 l 2,10,11
 513 684 513 684 513 501 c 0,12,13
 513 426 513 426 473.5 382.5 c 128,-1,14
 434 339 434 339 359 321 c 1,15,-1
 548 0 l 1,16,-1
 491 0 l 1,0,-1
463 501 m 0,18,19
 463 573 463 573 418.5 608 c 128,-1,20
 374 643 374 643 273 643 c 2,21,-1
 162 643 l 1,22,-1
 162 353 l 1,23,-1
 283 353 l 2,24,17
 463 353 463 353 463 501 c 0,18,19
EndSplineSet
Substitution2: "'c2sc' Capitals to Small Capitals lookup 26 subtable" uni024D.sc
Substitution2: "'aalt' Access All Alternates lookup 0 subtable" uni024D.sc
Position2: "'cpsp' Capital Spacing lookup 0 subtable" dx=5 dy=0 dh=10 dv=0
EndChar

StartChar: uni2C64
Encoding: 11364 11364 240
Width: 584
GlyphClass: 2
Flags: W
AnchorPoint: "Anchor-18" 0 0 basechar 0
AnchorPoint: "Anchor-17" 0 0 basechar 0
AnchorPoint: "Anchor-16" 289 684 basechar 0
AnchorPoint: "Anchor-15" 0 0 basechar 0
AnchorPoint: "Anchor-14" 306 0 basechar 0
LayerCount: 2
Fore
SplineSet
162 313 m 1,0,-1
 162 1 l 1,1,-1
 163 1 l 1,2,-1
 163 -76 l 2,3,4
 163 -162 163 -162 232 -162 c 0,5,6
 256 -162 256 -162 273.5 -156 c 128,-1,7
 291 -150 291 -150 308 -139 c 1,8,-1
 328 -170 l 1,9,10
 285 -203 285 -203 231 -203 c 0,11,12
 178 -203 178 -203 146.5 -170.5 c 128,-1,13
 115 -138 115 -138 115 -76 c 2,14,-1
 115 684 l 1,15,-1
 276 684 l 2,16,17
 513 684 513 684 513 501 c 0,18,19
 513 426 513 426 473.5 382.5 c 128,-1,20
 434 339 434 339 359 321 c 1,21,-1
 548 0 l 1,22,-1
 491 0 l 1,23,-1
 310 313 l 1,24,-1
 162 313 l 1,0,-1
162 643 m 1,25,-1
 162 353 l 1,26,-1
 283 353 l 2,27,28
 463 353 463 353 463 501 c 0,29,30
 463 573 463 573 418.5 608 c 128,-1,31
 374 643 374 643 273 643 c 2,32,-1
 162 643 l 1,25,-1
EndSplineSet
Substitution2: "'ss01' Style Set 1 lookup 33 subtable" uni2C64.ss01
Substitution2: "'salt' Stylistic Alternatives lookup 32 subtable" uni2C64.ss01
Substitution2: "'c2sc' Capitals to Small Capitals lookup 26 subtable" uni2C64.sc
AlternateSubs2: "'aalt' Access All Alternates lookup 1 subtable" uni2C64.sc uni2C64.ss01
Position2: "'cpsp' Capital Spacing lookup 0 subtable" dx=5 dy=0 dh=10 dv=0
EndChar

StartChar: uni2C64.ss01
Encoding: 65544 -1 241
Width: 404
GlyphClass: 2
Flags: W
AnchorPoint: "Anchor-18" 0 0 basechar 0
AnchorPoint: "Anchor-17" 0 0 basechar 0
AnchorPoint: "Anchor-16" 202 684 basechar 0
AnchorPoint: "Anchor-15" 0 0 basechar 0
AnchorPoint: "Anchor-14" 202 -195 basechar 0
LayerCount: 2
Fore
SplineSet
396 685 m 1,1,-1
 385 641 l 1,2,3
 364 648 364 648 328 648 c 0,4,5
 205 648 205 648 162 483 c 1,6,-1
 162 1 l 1,7,-1
 163 1 l 1,8,-1
 163 -76 l 2,9,10
 163 -162 163 -162 232 -162 c 0,11,12
 256 -162 256 -162 273.5 -156 c 128,-1,13
 291 -150 291 -150 308 -139 c 1,14,-1
 328 -170 l 1,15,16
 285 -203 285 -203 231 -203 c 0,17,18
 178 -203 178 -203 146.5 -170.5 c 128,-1,19
 115 -138 115 -138 115 -76 c 2,20,-1
 115 684 l 1,21,-1
 156 684 l 1,22,-1
 159 568 l 1,23,24
 206 694 206 694 330 694 c 0,25,0
 369 694 369 694 396 685 c 1,1,-1
EndSplineSet
Position2: "'cpsp' Capital Spacing lookup 0 subtable" dx=5 dy=0 dh=10 dv=0
EndChar

StartChar: S
Encoding: 83 83 242
Width: 537
GlyphClass: 2
Flags: W
AnchorPoint: "Anchor-18" 0 0 basechar 0
AnchorPoint: "Anchor-17" 0 0 basechar 0
AnchorPoint: "Anchor-16" 270 684 basechar 0
AnchorPoint: "Anchor-15" 0 0 basechar 0
AnchorPoint: "Anchor-14" 263 0 basechar 0
LayerCount: 2
Fore
SplineSet
371.5 675.5 m 128,-1,1
 415 657 415 657 457 620 c 1,2,-1
 429 589 l 1,3,4
 390 623 390 623 352.5 638 c 128,-1,5
 315 653 315 653 267 653 c 0,6,7
 200 653 200 653 159.5 619.5 c 128,-1,8
 119 586 119 586 119 531 c 0,9,10
 119 493 119 493 134.5 468 c 128,-1,11
 150 443 150 443 184.5 424 c 128,-1,12
 219 405 219 405 282 386 c 0,13,14
 351 365 351 365 393 341 c 128,-1,15
 435 317 435 317 456.5 279.5 c 128,-1,16
 478 242 478 242 478 185 c 256,17,18
 478 128 478 128 450.5 83 c 128,-1,19
 423 38 423 38 373 13.5 c 128,-1,20
 323 -11 323 -11 258 -11 c 0,21,22
 192 -11 192 -11 140 11 c 128,-1,23
 88 33 88 33 44 74 c 1,24,-1
 72 105 l 1,25,26
 113 68 113 68 156 49.5 c 128,-1,27
 199 31 199 31 257 31 c 0,28,29
 334 31 334 31 382 72 c 128,-1,30
 430 113 430 113 430 184 c 0,31,32
 430 228 430 228 414 256.5 c 128,-1,33
 398 285 398 285 362.5 305.5 c 128,-1,34
 327 326 327 326 263 346 c 0,35,36
 158 378 158 378 114.5 419 c 128,-1,37
 71 460 71 460 71 530 c 0,38,39
 71 577 71 577 95.5 614 c 128,-1,40
 120 651 120 651 164.5 672.5 c 128,-1,41
 209 694 209 694 266 694 c 0,42,0
 328 694 328 694 371.5 675.5 c 128,-1,1
EndSplineSet
Substitution2: "'c2sc' Capitals to Small Capitals lookup 26 subtable" s.sc
Substitution2: "'aalt' Access All Alternates lookup 0 subtable" s.sc
Position2: "'cpsp' Capital Spacing lookup 0 subtable" dx=5 dy=0 dh=10 dv=0
EndChar

StartChar: uniA78B
Encoding: 42891 42891 245
Width: 201
GlyphClass: 2
Flags: W
LayerCount: 2
Fore
SplineSet
81 356 m 1,0,-1
 75 684 l 1,1,-1
 126 684 l 1,2,-1
 120 356 l 1,3,-1
 81 356 l 1,0,-1
EndSplineSet
Position2: "'cpsp' Capital Spacing lookup 0 subtable" dx=5 dy=0 dh=10 dv=0
EndChar

StartChar: Scedilla
Encoding: 350 350 247
Width: 537
GlyphClass: 2
Flags: W
AnchorPoint: "Anchor-18" 0 0 basechar 0
AnchorPoint: "Anchor-17" 0 0 basechar 0
AnchorPoint: "Anchor-16" 270 684 basechar 0
AnchorPoint: "Anchor-15" 0 0 basechar 0
AnchorPoint: "Anchor-14" 280 -222 basechar 0
LayerCount: 2
Fore
SplineSet
422 47 m 128,-1,1
 366 -7 366 -7 273 -11 c 1,2,-1
 273 -67 l 1,3,4
 365 -74 365 -74 365 -140 c 0,5,6
 365 -178 365 -178 336.5 -200 c 128,-1,7
 308 -222 308 -222 266 -222 c 0,8,9
 223 -222 223 -222 190 -202 c 1,10,-1
 206 -172 l 1,11,12
 234 -187 234 -187 265 -187 c 0,13,14
 290 -187 290 -187 306 -175 c 128,-1,15
 322 -163 322 -163 322 -140 c 256,16,17
 322 -117 322 -117 301 -106 c 128,-1,18
 280 -95 280 -95 233 -95 c 1,19,-1
 240 -11 l 1,20,21
 125 -4 125 -4 44 74 c 1,22,-1
 72 105 l 1,23,24
 113 68 113 68 156 49.5 c 128,-1,25
 199 31 199 31 257 31 c 0,26,27
 334 31 334 31 382 72 c 128,-1,28
 430 113 430 113 430 184 c 0,29,30
 430 228 430 228 414 256.5 c 128,-1,31
 398 285 398 285 362.5 305.5 c 128,-1,32
 327 326 327 326 263 346 c 0,33,34
 158 378 158 378 114.5 419 c 128,-1,35
 71 460 71 460 71 530 c 0,36,37
 71 577 71 577 95.5 614 c 128,-1,38
 120 651 120 651 164.5 672.5 c 128,-1,39
 209 694 209 694 266 694 c 0,40,41
 328 694 328 694 371.5 675.5 c 128,-1,42
 415 657 415 657 457 620 c 1,43,-1
 429 589 l 1,44,45
 390 623 390 623 352.5 638 c 128,-1,46
 315 653 315 653 267 653 c 0,47,48
 200 653 200 653 159.5 619.5 c 128,-1,49
 119 586 119 586 119 531 c 0,50,51
 119 493 119 493 134.5 468 c 128,-1,52
 150 443 150 443 184.5 424 c 128,-1,53
 219 405 219 405 282 386 c 0,54,55
 351 365 351 365 393 341 c 128,-1,56
 435 317 435 317 456.5 279.5 c 128,-1,57
 478 242 478 242 478 185 c 0,58,0
 478 101 478 101 422 47 c 128,-1,1
EndSplineSet
Substitution2: "'c2sc' Capitals to Small Capitals lookup 26 subtable" scedilla.sc
Substitution2: "'locl' Localized Forms in Latin lookup 5 subtable" Scommaaccent
Substitution2: "'locl' Localized Forms in Latin lookup 4 subtable" Scommaaccent
AlternateSubs2: "'aalt' Access All Alternates lookup 1 subtable" Scommaaccent scedilla.sc
Position2: "'cpsp' Capital Spacing lookup 0 subtable" dx=5 dy=0 dh=10 dv=0
EndChar

StartChar: uni1E9E
Encoding: 7838 7838 252
Width: 646
GlyphClass: 2
Flags: W
LayerCount: 2
Fore
SplineSet
549 628 m 1,1,-1
 549 594 l 1,2,-1
 354 384 l 1,3,4
 590 358 590 358 590 184 c 0,5,6
 590 94 590 94 536 41.5 c 128,-1,7
 482 -11 482 -11 389 -11 c 0,8,9
 319 -11 319 -11 275 12 c 1,10,-1
 291 47 l 1,11,12
 337 31 337 31 387 31 c 0,13,14
 459 31 459 31 499.5 70 c 128,-1,15
 540 109 540 109 540 183 c 0,16,17
 540 263 540 263 483 302 c 128,-1,18
 426 341 426 341 306 349 c 1,19,-1
 306 390 l 1,20,-1
 503 606 l 1,21,22
 458 628 458 628 415 640.5 c 128,-1,23
 372 653 372 653 322 653 c 0,24,25
 245 653 245 653 203.5 613 c 128,-1,26
 162 573 162 573 162 490 c 2,27,-1
 162 0 l 1,28,-1
 115 0 l 1,29,-1
 115 493 l 2,30,31
 115 589 115 589 169.5 641.5 c 128,-1,32
 224 694 224 694 322 694 c 0,33,0
 434 694 434 694 549 628 c 1,1,-1
EndSplineSet
Substitution2: "'c2sc' Capitals to Small Capitals lookup 26 subtable" germandbls.sc
Substitution2: "'aalt' Access All Alternates lookup 0 subtable" germandbls.sc
Position2: "'cpsp' Capital Spacing lookup 0 subtable" dx=5 dy=0 dh=10 dv=0
EndChar

StartChar: T
Encoding: 84 84 254
Width: 487
GlyphClass: 2
Flags: W
AnchorPoint: "Anchor-18" 244 347 basechar 0
AnchorPoint: "Anchor-17" 0 0 basechar 0
AnchorPoint: "Anchor-16" 244 684 basechar 0
AnchorPoint: "Anchor-15" 0 0 basechar 0
AnchorPoint: "Anchor-14" 244 0 basechar 0
LayerCount: 2
Fore
SplineSet
477 684 m 1,0,-1
 471 641 l 1,1,-1
 267 641 l 1,2,-1
 267 0 l 1,3,-1
 220 0 l 1,4,-1
 220 641 l 1,5,-1
 15 641 l 1,6,-1
 15 684 l 1,7,-1
 477 684 l 1,0,-1
EndSplineSet
Substitution2: "'c2sc' Capitals to Small Capitals lookup 26 subtable" t.sc
Substitution2: "'aalt' Access All Alternates lookup 0 subtable" t.sc
Position2: "'cpsp' Capital Spacing lookup 0 subtable" dx=5 dy=0 dh=10 dv=0
EndChar

StartChar: Tbar
Encoding: 358 358 255
Width: 487
GlyphClass: 2
Flags: W
AnchorPoint: "Anchor-18" 244 346 basechar 0
AnchorPoint: "Anchor-17" 0 0 basechar 0
AnchorPoint: "Anchor-16" 244 683 basechar 0
AnchorPoint: "Anchor-15" 0 0 basechar 0
AnchorPoint: "Anchor-14" 244 -1 basechar 0
LayerCount: 2
Fore
SplineSet
471 640 m 1,0,-1
 267 640 l 1,1,-1
 267 383 l 1,2,-1
 392 383 l 1,3,-1
 392 344 l 1,4,-1
 267 344 l 1,5,-1
 267 -1 l 1,6,-1
 220 -1 l 1,7,-1
 220 344 l 1,8,-1
 96 344 l 1,9,-1
 96 383 l 1,10,-1
 220 383 l 1,11,-1
 220 640 l 1,12,-1
 15 640 l 1,13,-1
 15 683 l 1,14,-1
 477 683 l 1,15,-1
 471 640 l 1,0,-1
EndSplineSet
Substitution2: "'c2sc' Capitals to Small Capitals lookup 26 subtable" tbar.sc
Substitution2: "'aalt' Access All Alternates lookup 0 subtable" tbar.sc
Position2: "'cpsp' Capital Spacing lookup 0 subtable" dx=5 dy=0 dh=10 dv=0
EndChar

StartChar: uni0162
Encoding: 354 354 257
Width: 487
GlyphClass: 2
Flags: W
AnchorPoint: "Anchor-18" 244 347 basechar 0
AnchorPoint: "Anchor-17" 0 0 basechar 0
AnchorPoint: "Anchor-16" 244 684 basechar 0
AnchorPoint: "Anchor-15" 0 0 basechar 0
AnchorPoint: "Anchor-14" 244 0 basechar 0
LayerCount: 2
Fore
SplineSet
336 -89.5 m 128,-1,1
 359 -108 359 -108 359 -140 c 0,2,3
 359 -178 359 -178 330 -200 c 128,-1,4
 301 -222 301 -222 259 -222 c 256,5,6
 217 -222 217 -222 184 -202 c 1,7,-1
 200 -172 l 1,8,9
 228 -187 228 -187 258 -187 c 0,10,11
 283 -187 283 -187 299.5 -175 c 128,-1,12
 316 -163 316 -163 316 -140 c 256,13,14
 316 -117 316 -117 295 -106 c 128,-1,15
 274 -95 274 -95 227 -95 c 1,16,-1
 235 0 l 1,17,-1
 220 0 l 1,18,-1
 220 641 l 1,19,-1
 15 641 l 1,20,-1
 15 684 l 1,21,-1
 477 684 l 1,22,-1
 471 641 l 1,23,-1
 267 641 l 1,24,-1
 267 -67 l 1,25,0
 313 -71 313 -71 336 -89.5 c 128,-1,1
EndSplineSet
Substitution2: "'c2sc' Capitals to Small Capitals lookup 26 subtable" uni0163.sc
Substitution2: "'locl' Localized Forms in Latin lookup 5 subtable" uni021A
Substitution2: "'locl' Localized Forms in Latin lookup 4 subtable" uni021A
AlternateSubs2: "'aalt' Access All Alternates lookup 1 subtable" uni021A uni0163.sc
Position2: "'cpsp' Capital Spacing lookup 0 subtable" dx=5 dy=0 dh=10 dv=0
EndChar

StartChar: uni023E
Encoding: 574 574 260
Width: 487
GlyphClass: 2
Flags: W
AnchorPoint: "Anchor-18" 0 0 basechar 0
AnchorPoint: "Anchor-17" 0 0 basechar 0
AnchorPoint: "Anchor-16" 244 684 basechar 0
AnchorPoint: "Anchor-15" 0 0 basechar 0
AnchorPoint: "Anchor-14" 244 0 basechar 0
LayerCount: 2
Fore
SplineSet
471 641 m 1,0,-1
 357 641 l 1,1,-1
 267 355 l 1,2,-1
 267 0 l 1,3,-1
 220 0 l 1,4,-1
 220 205 l 1,5,-1
 134 -70 l 1,6,-1
 106 -61 l 1,7,-1
 220 303 l 1,8,-1
 220 641 l 1,9,-1
 15 641 l 1,10,-1
 15 684 l 1,11,-1
 339 684 l 1,12,-1
 358 744 l 1,13,-1
 386 735 l 1,14,-1
 370 684 l 1,15,-1
 477 684 l 1,16,-1
 471 641 l 1,0,-1
267 453 m 1,17,-1
 326 641 l 1,18,-1
 267 641 l 1,19,-1
 267 453 l 1,17,-1
EndSplineSet
Substitution2: "'c2sc' Capitals to Small Capitals lookup 26 subtable" uni2C66.sc
Substitution2: "'aalt' Access All Alternates lookup 0 subtable" uni2C66.sc
Position2: "'cpsp' Capital Spacing lookup 0 subtable" dx=5 dy=0 dh=10 dv=0
EndChar

StartChar: uni01AC
Encoding: 428 428 263
Width: 512
GlyphClass: 2
Flags: W
AnchorPoint: "Anchor-18" 0 0 basechar 0
AnchorPoint: "Anchor-17" 0 0 basechar 0
AnchorPoint: "Anchor-16" 256 684 basechar 0
AnchorPoint: "Anchor-15" 0 0 basechar 0
AnchorPoint: "Anchor-14" 269 0 basechar 0
LayerCount: 2
Fore
SplineSet
496 641 m 1,0,-1
 292 641 l 1,1,-1
 292 0 l 1,2,-1
 245 0 l 1,3,-1
 245 641 l 1,4,-1
 139 641 l 2,5,6
 100 641 100 641 81.5 623 c 128,-1,7
 63 605 63 605 63 575 c 0,8,9
 63 554 63 554 68.5 538 c 128,-1,10
 74 522 74 522 86 501 c 1,11,-1
 50 482 l 1,12,13
 34 507 34 507 25.5 527.5 c 128,-1,14
 17 548 17 548 17 576 c 0,15,16
 17 625 17 625 50.5 654.5 c 128,-1,17
 84 684 84 684 146 684 c 2,18,-1
 502 684 l 1,19,-1
 496 641 l 1,0,-1
EndSplineSet
Substitution2: "'c2sc' Capitals to Small Capitals lookup 26 subtable" uni01AD.sc
Substitution2: "'aalt' Access All Alternates lookup 0 subtable" uni01AD.sc
Position2: "'cpsp' Capital Spacing lookup 0 subtable" dx=5 dy=0 dh=10 dv=0
EndChar

StartChar: uni0184
Encoding: 388 388 266
Width: 557
GlyphClass: 2
Flags: W
AnchorPoint: "Anchor-18" 0 0 basechar 0
AnchorPoint: "Anchor-17" 0 0 basechar 0
AnchorPoint: "Anchor-16" 278 684 basechar 0
AnchorPoint: "Anchor-15" 0 0 basechar 0
AnchorPoint: "Anchor-14" 278 0 basechar 0
LayerCount: 2
Fore
SplineSet
454.5 367.5 m 128,-1,1
 517 317 517 317 517 216 c 0,2,3
 517 106 517 106 452.5 53 c 128,-1,4
 388 0 388 0 277 0 c 2,5,-1
 115 0 l 1,6,-1
 115 558 l 1,7,-1
 68 590 l 1,8,9
 107 633 107 633 121 684 c 1,10,-1
 162 684 l 1,11,-1
 162 418 l 1,12,-1
 278 418 l 2,13,0
 392 418 392 418 454.5 367.5 c 128,-1,1
467 216 m 0,15,16
 467 378 467 378 281 378 c 2,17,-1
 162 378 l 1,18,-1
 162 41 l 1,19,-1
 285 41 l 2,20,14
 467 41 467 41 467 216 c 0,15,16
EndSplineSet
Substitution2: "'c2sc' Capitals to Small Capitals lookup 26 subtable" uni0185.sc
Substitution2: "'aalt' Access All Alternates lookup 0 subtable" uni0185.sc
Position2: "'cpsp' Capital Spacing lookup 0 subtable" dx=5 dy=0 dh=10 dv=0
EndChar

StartChar: uni01A7
Encoding: 423 423 267
Width: 528
GlyphClass: 2
Flags: W
AnchorPoint: "Anchor-18" 0 0 basechar 0
AnchorPoint: "Anchor-17" 0 0 basechar 0
AnchorPoint: "Anchor-16" 264 684 basechar 0
AnchorPoint: "Anchor-15" 0 0 basechar 0
AnchorPoint: "Anchor-14" 264 0 basechar 0
LayerCount: 2
Fore
SplineSet
416 650 m 128,-1,1
 466 606 466 606 466 535 c 0,2,3
 466 487 466 487 446.5 453.5 c 128,-1,4
 427 420 427 420 386 395.5 c 128,-1,5
 345 371 345 371 274 348 c 0,6,7
 210 327 210 327 174.5 305 c 128,-1,8
 139 283 139 283 123.5 253 c 128,-1,9
 108 223 108 223 108 178 c 0,10,11
 108 109 108 109 153.5 70 c 128,-1,12
 199 31 199 31 270 31 c 0,13,14
 328 31 328 31 372 49.5 c 128,-1,15
 416 68 416 68 456 104 c 1,16,-1
 485 74 l 1,17,18
 441 33 441 33 388.5 11 c 128,-1,19
 336 -11 336 -11 269 -11 c 0,20,21
 209 -11 209 -11 161 13 c 128,-1,22
 113 37 113 37 86 80 c 128,-1,23
 59 123 59 123 59 179 c 0,24,25
 59 260 59 260 106 306 c 128,-1,26
 153 352 153 352 255 385 c 0,27,28
 318 405 318 405 352.5 424.5 c 128,-1,29
 387 444 387 444 402 469.5 c 128,-1,30
 417 495 417 495 417 535 c 0,31,32
 417 590 417 590 381 621.5 c 128,-1,33
 345 653 345 653 280 653 c 0,34,35
 228 653 228 653 189 638.5 c 128,-1,36
 150 624 150 624 107 590 c 1,37,-1
 80 620 l 1,38,39
 126 658 126 658 172 676 c 128,-1,40
 218 694 218 694 281 694 c 0,41,0
 366 694 366 694 416 650 c 128,-1,1
EndSplineSet
Substitution2: "'c2sc' Capitals to Small Capitals lookup 26 subtable" uni01A8.sc
Substitution2: "'aalt' Access All Alternates lookup 0 subtable" uni01A8.sc
Position2: "'cpsp' Capital Spacing lookup 0 subtable" dx=5 dy=0 dh=10 dv=0
EndChar

StartChar: uni01AE
Encoding: 430 430 268
Width: 487
GlyphClass: 2
Flags: W
AnchorPoint: "Anchor-18" 244 347 basechar 0
AnchorPoint: "Anchor-17" 0 0 basechar 0
AnchorPoint: "Anchor-16" 244 684 basechar 0
AnchorPoint: "Anchor-15" 0 0 basechar 0
AnchorPoint: "Anchor-14" 244 0 basechar 0
LayerCount: 2
Fore
SplineSet
267 641 m 1,0,-1
 267 1 l 1,1,-1
 268 1 l 1,2,-1
 268 -76 l 2,3,4
 268 -162 268 -162 337 -162 c 0,5,6
 361 -162 361 -162 378.5 -156 c 128,-1,7
 396 -150 396 -150 413 -139 c 1,8,-1
 433 -170 l 1,9,10
 390 -203 390 -203 336 -203 c 0,11,12
 283 -203 283 -203 251.5 -170.5 c 128,-1,13
 220 -138 220 -138 220 -76 c 2,14,-1
 220 641 l 1,15,-1
 15 641 l 1,16,-1
 15 684 l 1,17,-1
 477 684 l 1,18,-1
 471 641 l 1,19,-1
 267 641 l 1,0,-1
EndSplineSet
Substitution2: "'c2sc' Capitals to Small Capitals lookup 26 subtable" uni0288.sc
Substitution2: "'aalt' Access All Alternates lookup 0 subtable" uni0288.sc
Position2: "'cpsp' Capital Spacing lookup 0 subtable" dx=5 dy=0 dh=10 dv=0
EndChar

StartChar: U
Encoding: 85 85 269
Width: 648
GlyphClass: 2
Flags: W
AnchorPoint: "Anchor-18" 0 0 basechar 0
AnchorPoint: "Anchor-17" 553 684 basechar 0
AnchorPoint: "Anchor-16" 324 684 basechar 0
AnchorPoint: "Anchor-15" 412 0 basechar 0
AnchorPoint: "Anchor-14" 324 0 basechar 0
LayerCount: 2
Fore
SplineSet
543 211 m 2,0,1
 543 110 543 110 487.5 49.5 c 128,-1,2
 432 -11 432 -11 324 -11 c 256,3,4
 216 -11 216 -11 160.5 49.5 c 128,-1,5
 105 110 105 110 105 211 c 2,6,-1
 105 684 l 1,7,-1
 152 684 l 1,8,-1
 152 215 l 2,9,10
 152 128 152 128 194.5 80 c 128,-1,11
 237 32 237 32 324 32 c 256,12,13
 411 32 411 32 453 80.5 c 128,-1,14
 495 129 495 129 495 215 c 2,15,-1
 495 684 l 1,16,-1
 543 684 l 1,17,-1
 543 211 l 2,0,1
EndSplineSet
Substitution2: "'c2sc' Capitals to Small Capitals lookup 26 subtable" u.sc
Substitution2: "'aalt' Access All Alternates lookup 0 subtable" u.sc
Position2: "'cpsp' Capital Spacing lookup 0 subtable" dx=5 dy=0 dh=10 dv=0
EndChar

StartChar: uni0244
Encoding: 580 580 271
Width: 669
GlyphClass: 2
Flags: W
AnchorPoint: "Anchor-18" 0 0 basechar 0
AnchorPoint: "Anchor-17" 564 684 basechar 0
AnchorPoint: "Anchor-16" 335 684 basechar 0
AnchorPoint: "Anchor-15" 423 0 basechar 0
AnchorPoint: "Anchor-14" 335 0 basechar 0
LayerCount: 2
Fore
SplineSet
618 515 m 1,0,-1
 554 515 l 1,1,-1
 554 211 l 2,2,3
 554 110 554 110 498.5 49.5 c 128,-1,4
 443 -11 443 -11 335 -11 c 256,5,6
 227 -11 227 -11 171.5 49.5 c 128,-1,7
 116 110 116 110 116 211 c 2,8,-1
 116 515 l 1,9,-1
 51 515 l 1,10,-1
 51 551 l 1,11,-1
 116 551 l 1,12,-1
 116 684 l 1,13,-1
 163 684 l 1,14,-1
 163 551 l 1,15,-1
 506 551 l 1,16,-1
 506 684 l 1,17,-1
 554 684 l 1,18,-1
 554 551 l 1,19,-1
 618 551 l 1,20,-1
 618 515 l 1,0,-1
506 515 m 1,21,-1
 163 515 l 1,22,-1
 163 215 l 2,23,24
 163 128 163 128 205.5 80 c 128,-1,25
 248 32 248 32 335 32 c 256,26,27
 422 32 422 32 464 80.5 c 128,-1,28
 506 129 506 129 506 215 c 2,29,-1
 506 515 l 1,21,-1
EndSplineSet
Substitution2: "'c2sc' Capitals to Small Capitals lookup 26 subtable" uni0289.sc
Substitution2: "'aalt' Access All Alternates lookup 0 subtable" uni0289.sc
Position2: "'cpsp' Capital Spacing lookup 0 subtable" dx=5 dy=0 dh=10 dv=0
EndChar

StartChar: Uhorn
Encoding: 431 431 284
Width: 648
GlyphClass: 2
Flags: W
AnchorPoint: "Anchor-18" 0 0 basechar 0
AnchorPoint: "Anchor-17" 605 684 basechar 0
AnchorPoint: "Anchor-16" 324 684 basechar 0
AnchorPoint: "Anchor-15" 412 0 basechar 0
AnchorPoint: "Anchor-14" 324 0 basechar 0
LayerCount: 2
Fore
SplineSet
543 597 m 1,1,-1
 543 211 l 2,2,3
 543 110 543 110 487.5 49.5 c 128,-1,4
 432 -11 432 -11 324 -11 c 256,5,6
 216 -11 216 -11 160.5 49.5 c 128,-1,7
 105 110 105 110 105 211 c 2,8,-1
 105 684 l 1,9,-1
 152 684 l 1,10,-1
 152 215 l 2,11,12
 152 128 152 128 194.5 80 c 128,-1,13
 237 32 237 32 324 32 c 256,14,15
 411 32 411 32 453 80.5 c 128,-1,16
 495 129 495 129 495 215 c 2,17,-1
 495 684 l 1,18,-1
 543 684 l 1,19,-1
 543 627 l 1,20,21
 572 632 572 632 584.5 646.5 c 128,-1,22
 597 661 597 661 597 686 c 0,23,24
 597 723 597 723 583 758 c 1,25,-1
 619 769 l 1,26,27
 637 735 637 735 637 687 c 0,28,0
 637 603 637 603 543 597 c 1,1,-1
EndSplineSet
Substitution2: "'c2sc' Capitals to Small Capitals lookup 26 subtable" uhorn.sc
Substitution2: "'aalt' Access All Alternates lookup 0 subtable" uhorn.sc
Position2: "'cpsp' Capital Spacing lookup 0 subtable" dx=5 dy=0 dh=10 dv=0
EndChar

StartChar: uni1EE8
Encoding: 7912 7912 285
Width: 648
GlyphClass: 2
Flags: W
AnchorPoint: "Anchor-18" 0 0 basechar 0
AnchorPoint: "Anchor-17" 605 684 basechar 0
AnchorPoint: "Anchor-16" 326 880 basechar 0
AnchorPoint: "Anchor-15" 412 0 basechar 0
AnchorPoint: "Anchor-14" 324 0 basechar 0
LayerCount: 2
Fore
SplineSet
426 836 m 1,0,-1
 234 759 l 1,1,-1
 221 788 l 1,2,-1
 405 880 l 1,3,-1
 426 836 l 1,0,-1
543 597 m 1,5,-1
 543 211 l 2,6,7
 543 110 543 110 487.5 49.5 c 128,-1,8
 432 -11 432 -11 324 -11 c 256,9,10
 216 -11 216 -11 160.5 49.5 c 128,-1,11
 105 110 105 110 105 211 c 2,12,-1
 105 684 l 1,13,-1
 152 684 l 1,14,-1
 152 215 l 2,15,16
 152 128 152 128 194.5 80 c 128,-1,17
 237 32 237 32 324 32 c 256,18,19
 411 32 411 32 453 80.5 c 128,-1,20
 495 129 495 129 495 215 c 2,21,-1
 495 684 l 1,22,-1
 543 684 l 1,23,-1
 543 627 l 1,24,25
 572 632 572 632 584.5 646.5 c 128,-1,26
 597 661 597 661 597 686 c 0,27,28
 597 723 597 723 583 758 c 1,29,-1
 619 769 l 1,30,31
 637 735 637 735 637 687 c 0,32,4
 637 603 637 603 543 597 c 1,5,-1
EndSplineSet
Substitution2: "'c2sc' Capitals to Small Capitals lookup 26 subtable" uni1EE9.sc
Substitution2: "'aalt' Access All Alternates lookup 0 subtable" uni1EE9.sc
Position2: "'cpsp' Capital Spacing lookup 0 subtable" dx=5 dy=0 dh=10 dv=0
EndChar

StartChar: uni1EF0
Encoding: 7920 7920 286
Width: 648
GlyphClass: 2
Flags: W
AnchorPoint: "Anchor-18" 0 0 basechar 0
AnchorPoint: "Anchor-17" 605 684 basechar 0
AnchorPoint: "Anchor-16" 324 684 basechar 0
AnchorPoint: "Anchor-15" 412 0 basechar 0
AnchorPoint: "Anchor-14" 325 -195 basechar 0
LayerCount: 2
Fore
SplineSet
543 597 m 1,1,-1
 543 211 l 2,2,3
 543 110 543 110 487.5 49.5 c 128,-1,4
 432 -11 432 -11 324 -11 c 256,5,6
 216 -11 216 -11 160.5 49.5 c 128,-1,7
 105 110 105 110 105 211 c 2,8,-1
 105 684 l 1,9,-1
 152 684 l 1,10,-1
 152 215 l 2,11,12
 152 128 152 128 194.5 80 c 128,-1,13
 237 32 237 32 324 32 c 256,14,15
 411 32 411 32 453 80.5 c 128,-1,16
 495 129 495 129 495 215 c 2,17,-1
 495 684 l 1,18,-1
 543 684 l 1,19,-1
 543 627 l 1,20,21
 572 632 572 632 584.5 646.5 c 128,-1,22
 597 661 597 661 597 686 c 0,23,24
 597 723 597 723 583 758 c 1,25,-1
 619 769 l 1,26,27
 637 735 637 735 637 687 c 0,28,0
 637 603 637 603 543 597 c 1,1,-1
350 -100 m 128,-1,30
 360 -110 360 -110 360 -125 c 256,31,32
 360 -140 360 -140 350 -150 c 128,-1,33
 340 -160 340 -160 324 -160 c 256,34,35
 308 -160 308 -160 298 -150 c 128,-1,36
 288 -140 288 -140 288 -125 c 256,37,38
 288 -110 288 -110 298 -100 c 128,-1,39
 308 -90 308 -90 324 -90 c 256,40,29
 340 -90 340 -90 350 -100 c 128,-1,30
EndSplineSet
Substitution2: "'c2sc' Capitals to Small Capitals lookup 26 subtable" uni1EF1.sc
Substitution2: "'aalt' Access All Alternates lookup 0 subtable" uni1EF1.sc
Position2: "'cpsp' Capital Spacing lookup 0 subtable" dx=5 dy=0 dh=10 dv=0
EndChar

StartChar: uni1EEA
Encoding: 7914 7914 287
Width: 648
GlyphClass: 2
Flags: W
AnchorPoint: "Anchor-18" 0 0 basechar 0
AnchorPoint: "Anchor-17" 605 684 basechar 0
AnchorPoint: "Anchor-16" 325 880 basechar 0
AnchorPoint: "Anchor-15" 412 0 basechar 0
AnchorPoint: "Anchor-14" 324 0 basechar 0
LayerCount: 2
Fore
SplineSet
423 788 m 1,0,-1
 410 759 l 1,1,-1
 218 836 l 1,2,-1
 240 880 l 1,3,-1
 423 788 l 1,0,-1
543 597 m 1,5,-1
 543 211 l 2,6,7
 543 110 543 110 487.5 49.5 c 128,-1,8
 432 -11 432 -11 324 -11 c 256,9,10
 216 -11 216 -11 160.5 49.5 c 128,-1,11
 105 110 105 110 105 211 c 2,12,-1
 105 684 l 1,13,-1
 152 684 l 1,14,-1
 152 215 l 2,15,16
 152 128 152 128 194.5 80 c 128,-1,17
 237 32 237 32 324 32 c 256,18,19
 411 32 411 32 453 80.5 c 128,-1,20
 495 129 495 129 495 215 c 2,21,-1
 495 684 l 1,22,-1
 543 684 l 1,23,-1
 543 627 l 1,24,25
 572 632 572 632 584.5 646.5 c 128,-1,26
 597 661 597 661 597 686 c 0,27,28
 597 723 597 723 583 758 c 1,29,-1
 619 769 l 1,30,31
 637 735 637 735 637 687 c 0,32,4
 637 603 637 603 543 597 c 1,5,-1
EndSplineSet
Substitution2: "'c2sc' Capitals to Small Capitals lookup 26 subtable" uni1EEB.sc
Substitution2: "'aalt' Access All Alternates lookup 0 subtable" uni1EEB.sc
Position2: "'cpsp' Capital Spacing lookup 0 subtable" dx=5 dy=0 dh=10 dv=0
EndChar

StartChar: uni1EEC
Encoding: 7916 7916 288
Width: 648
GlyphClass: 2
Flags: W
AnchorPoint: "Anchor-18" 0 0 basechar 0
AnchorPoint: "Anchor-17" 605 684 basechar 0
AnchorPoint: "Anchor-16" 337 973 basechar 0
AnchorPoint: "Anchor-15" 412 0 basechar 0
AnchorPoint: "Anchor-14" 324 0 basechar 0
LayerCount: 2
Fore
SplineSet
267 923 m 1,1,-1
 253 953 l 1,2,3
 290 973 290 973 330 973 c 256,4,5
 370 973 370 973 393.5 952.5 c 128,-1,6
 417 932 417 932 417 897 c 0,7,8
 417 832 417 832 344 824 c 1,9,-1
 344 778 l 1,10,-1
 304 778 l 1,11,-1
 304 847 l 1,12,13
 337 849 337 849 355 859.5 c 128,-1,14
 373 870 373 870 373 895 c 0,15,16
 373 915 373 915 360.5 926 c 128,-1,17
 348 937 348 937 325 937 c 0,18,0
 295 937 295 937 267 923 c 1,1,-1
543 597 m 1,20,-1
 543 211 l 2,21,22
 543 110 543 110 487.5 49.5 c 128,-1,23
 432 -11 432 -11 324 -11 c 256,24,25
 216 -11 216 -11 160.5 49.5 c 128,-1,26
 105 110 105 110 105 211 c 2,27,-1
 105 684 l 1,28,-1
 152 684 l 1,29,-1
 152 215 l 2,30,31
 152 128 152 128 194.5 80 c 128,-1,32
 237 32 237 32 324 32 c 256,33,34
 411 32 411 32 453 80.5 c 128,-1,35
 495 129 495 129 495 215 c 2,36,-1
 495 684 l 1,37,-1
 543 684 l 1,38,-1
 543 627 l 1,39,40
 572 632 572 632 584.5 646.5 c 128,-1,41
 597 661 597 661 597 686 c 0,42,43
 597 723 597 723 583 758 c 1,44,-1
 619 769 l 1,45,46
 637 735 637 735 637 687 c 0,47,19
 637 603 637 603 543 597 c 1,20,-1
EndSplineSet
Substitution2: "'c2sc' Capitals to Small Capitals lookup 26 subtable" uni1EED.sc
Substitution2: "'aalt' Access All Alternates lookup 0 subtable" uni1EED.sc
Position2: "'cpsp' Capital Spacing lookup 0 subtable" dx=5 dy=0 dh=10 dv=0
EndChar

StartChar: uni1EEE
Encoding: 7918 7918 289
Width: 648
GlyphClass: 2
Flags: W
AnchorPoint: "Anchor-18" 0 0 basechar 0
AnchorPoint: "Anchor-17" 605 684 basechar 0
AnchorPoint: "Anchor-16" 326 878 basechar 0
AnchorPoint: "Anchor-15" 412 0 basechar 0
AnchorPoint: "Anchor-14" 324 0 basechar 0
LayerCount: 2
Fore
SplineSet
235.5 831.5 m 128,-1,1
 223 823 223 823 208 803 c 1,2,-1
 179 818 l 1,3,4
 216 878 216 878 265 878 c 0,5,6
 280 878 280 878 293 872.5 c 128,-1,7
 306 867 306 867 326 855 c 0,8,9
 344 845 344 845 356.5 839.5 c 128,-1,10
 369 834 369 834 382 834 c 0,11,12
 398 834 398 834 410.5 843.5 c 128,-1,13
 423 853 423 853 439 877 c 1,14,-1
 468 862 l 1,15,16
 436 796 436 796 382 796 c 0,17,18
 364 796 364 796 348 802.5 c 128,-1,19
 332 809 332 809 312 821 c 0,20,21
 282 840 282 840 265 840 c 256,22,0
 248 840 248 840 235.5 831.5 c 128,-1,1
543 597 m 1,24,-1
 543 211 l 2,25,26
 543 110 543 110 487.5 49.5 c 128,-1,27
 432 -11 432 -11 324 -11 c 256,28,29
 216 -11 216 -11 160.5 49.5 c 128,-1,30
 105 110 105 110 105 211 c 2,31,-1
 105 684 l 1,32,-1
 152 684 l 1,33,-1
 152 215 l 2,34,35
 152 128 152 128 194.5 80 c 128,-1,36
 237 32 237 32 324 32 c 256,37,38
 411 32 411 32 453 80.5 c 128,-1,39
 495 129 495 129 495 215 c 2,40,-1
 495 684 l 1,41,-1
 543 684 l 1,42,-1
 543 627 l 1,43,44
 572 632 572 632 584.5 646.5 c 128,-1,45
 597 661 597 661 597 686 c 0,46,47
 597 723 597 723 583 758 c 1,48,-1
 619 769 l 1,49,50
 637 735 637 735 637 687 c 0,51,23
 637 603 637 603 543 597 c 1,24,-1
EndSplineSet
Substitution2: "'c2sc' Capitals to Small Capitals lookup 26 subtable" uni1EEF.sc
Substitution2: "'aalt' Access All Alternates lookup 0 subtable" uni1EEF.sc
Position2: "'cpsp' Capital Spacing lookup 0 subtable" dx=5 dy=0 dh=10 dv=0
EndChar

StartChar: Uogonek
Encoding: 370 370 293
Width: 648
GlyphClass: 2
Flags: W
AnchorPoint: "Anchor-18" 0 0 basechar 0
AnchorPoint: "Anchor-17" 553 684 basechar 0
AnchorPoint: "Anchor-16" 324 684 basechar 0
AnchorPoint: "Anchor-15" 412 0 basechar 0
AnchorPoint: "Anchor-14" 324 0 basechar 0
LayerCount: 2
Fore
SplineSet
543 684 m 1,0,-1
 543 211 l 2,1,2
 543 129 543 129 506 73 c 128,-1,3
 469 17 469 17 397 -2 c 1,4,5
 334 -31 334 -31 307 -57 c 128,-1,6
 280 -83 280 -83 280 -119 c 0,7,8
 280 -144 280 -144 297 -158 c 128,-1,9
 314 -172 314 -172 347 -172 c 0,10,11
 370 -172 370 -172 403 -166 c 1,12,-1
 398 -206 l 1,13,14
 363 -213 363 -213 342 -213 c 0,15,16
 290 -213 290 -213 262.5 -188 c 128,-1,17
 235 -163 235 -163 235 -124 c 0,18,19
 235 -88 235 -88 257.5 -60.5 c 128,-1,20
 280 -33 280 -33 326 -11 c 1,21,-1
 324 -11 l 2,22,23
 216 -11 216 -11 160.5 49.5 c 128,-1,24
 105 110 105 110 105 211 c 2,25,-1
 105 684 l 1,26,-1
 152 684 l 1,27,-1
 152 215 l 2,28,29
 152 128 152 128 194.5 80 c 128,-1,30
 237 32 237 32 324 32 c 256,31,32
 411 32 411 32 453 80.5 c 128,-1,33
 495 129 495 129 495 215 c 2,34,-1
 495 684 l 1,35,-1
 543 684 l 1,0,-1
EndSplineSet
Substitution2: "'c2sc' Capitals to Small Capitals lookup 26 subtable" uogonek.sc
Substitution2: "'aalt' Access All Alternates lookup 0 subtable" uogonek.sc
Position2: "'cpsp' Capital Spacing lookup 0 subtable" dx=5 dy=0 dh=10 dv=0
EndChar

StartChar: uni01B1
Encoding: 433 433 294
Width: 691
GlyphClass: 2
Flags: W
AnchorPoint: "Anchor-18" 0 0 basechar 0
AnchorPoint: "Anchor-17" 0 0 basechar 0
AnchorPoint: "Anchor-16" 345 684 basechar 0
AnchorPoint: "Anchor-15" 0 0 basechar 0
AnchorPoint: "Anchor-14" 345 0 basechar 0
LayerCount: 2
Fore
SplineSet
200 29 m 128,-1,1
 138 69 138 69 104 143.5 c 128,-1,2
 70 218 70 218 70 320 c 0,3,4
 70 440 70 440 108 515 c 128,-1,5
 146 590 146 590 209 642 c 1,6,-1
 92 642 l 1,7,-1
 92 684 l 1,8,-1
 270 684 l 1,9,-1
 270 643 l 1,10,11
 200 596 200 596 160 518.5 c 128,-1,12
 120 441 120 441 120 320 c 0,13,14
 120 181 120 181 180.5 106 c 128,-1,15
 241 31 241 31 345 31 c 0,16,17
 448 31 448 31 509.5 106.5 c 128,-1,18
 571 182 571 182 571 320 c 0,19,20
 571 441 571 441 531 518.5 c 128,-1,21
 491 596 491 596 421 643 c 1,22,-1
 421 684 l 1,23,-1
 599 684 l 1,24,-1
 599 642 l 1,25,-1
 482 642 l 1,26,27
 546 592 546 592 583.5 517.5 c 128,-1,28
 621 443 621 443 621 320 c 0,29,30
 621 219 621 219 586.5 144.5 c 128,-1,31
 552 70 552 70 489.5 29.5 c 128,-1,32
 427 -11 427 -11 345 -11 c 0,33,0
 262 -11 262 -11 200 29 c 128,-1,1
EndSplineSet
Substitution2: "'c2sc' Capitals to Small Capitals lookup 26 subtable" uni01B1.sc
Substitution2: "'aalt' Access All Alternates lookup 0 subtable" uni01B1.sc
Position2: "'cpsp' Capital Spacing lookup 0 subtable" dx=5 dy=0 dh=10 dv=0
EndChar

StartChar: V
Encoding: 86 86 298
Width: 543
GlyphClass: 2
Flags: W
AnchorPoint: "Anchor-18" 0 0 basechar 0
AnchorPoint: "Anchor-17" 0 0 basechar 0
AnchorPoint: "Anchor-16" 271 684 basechar 0
AnchorPoint: "Anchor-15" 0 0 basechar 0
AnchorPoint: "Anchor-14" 271 0 basechar 0
LayerCount: 2
Fore
SplineSet
523 684 m 1,0,-1
 299 0 l 1,1,-1
 244 0 l 1,2,-1
 20 684 l 1,3,-1
 71 684 l 1,4,-1
 272 48 l 1,5,-1
 473 684 l 1,6,-1
 523 684 l 1,0,-1
EndSplineSet
Substitution2: "'c2sc' Capitals to Small Capitals lookup 26 subtable" v.sc
Substitution2: "'aalt' Access All Alternates lookup 0 subtable" v.sc
Position2: "'cpsp' Capital Spacing lookup 0 subtable" dx=5 dy=0 dh=10 dv=0
EndChar

StartChar: uni01B2
Encoding: 434 434 299
Width: 648
GlyphClass: 2
Flags: W
AnchorPoint: "Anchor-18" 0 0 basechar 0
AnchorPoint: "Anchor-17" 0 0 basechar 0
AnchorPoint: "Anchor-16" 311 684 basechar 0
AnchorPoint: "Anchor-15" 0 0 basechar 0
AnchorPoint: "Anchor-14" 311 0 basechar 0
LayerCount: 2
Fore
SplineSet
519 669 m 128,-1,1
 543 644 543 644 543 593 c 2,2,-1
 543 291 l 2,3,4
 543 195 543 195 512 127 c 128,-1,5
 481 59 481 59 425.5 24 c 128,-1,6
 370 -11 370 -11 299 -11 c 0,7,8
 210 -11 210 -11 157.5 43 c 128,-1,9
 105 97 105 97 105 187 c 2,10,-1
 105 684 l 1,11,-1
 152 684 l 1,12,-1
 152 190 l 2,13,14
 152 114 152 114 191.5 73 c 128,-1,15
 231 32 231 32 299 32 c 0,16,17
 388 32 388 32 441.5 99.5 c 128,-1,18
 495 167 495 167 495 295 c 2,19,-1
 495 592 l 2,20,21
 495 624 495 624 484 639 c 128,-1,22
 473 654 473 654 448 654 c 0,23,24
 424 654 424 654 405 644 c 1,25,-1
 390 678 l 1,26,27
 418 694 418 694 452 694 c 0,28,0
 495 694 495 694 519 669 c 128,-1,1
EndSplineSet
Substitution2: "'c2sc' Capitals to Small Capitals lookup 26 subtable" uni028B.sc
Substitution2: "'aalt' Access All Alternates lookup 0 subtable" uni028B.sc
Position2: "'cpsp' Capital Spacing lookup 0 subtable" dx=5 dy=0 dh=10 dv=0
EndChar

StartChar: W
Encoding: 87 87 301
Width: 804
GlyphClass: 2
Flags: W
AnchorPoint: "Anchor-18" 0 0 basechar 0
AnchorPoint: "Anchor-17" 0 0 basechar 0
AnchorPoint: "Anchor-16" 402 684 basechar 0
AnchorPoint: "Anchor-15" 0 0 basechar 0
AnchorPoint: "Anchor-14" 402 0 basechar 0
LayerCount: 2
Fore
SplineSet
771 684 m 1,0,-1
 617 0 l 1,1,-1
 559 0 l 1,2,-1
 402 632 l 1,3,-1
 244 0 l 1,4,-1
 187 0 l 1,5,-1
 32 684 l 1,6,-1
 81 684 l 1,7,-1
 218 46 l 1,8,-1
 375 684 l 1,9,-1
 429 684 l 1,10,-1
 588 46 l 1,11,-1
 725 684 l 1,12,-1
 771 684 l 1,0,-1
EndSplineSet
Substitution2: "'c2sc' Capitals to Small Capitals lookup 26 subtable" w.sc
Substitution2: "'aalt' Access All Alternates lookup 0 subtable" w.sc
Position2: "'cpsp' Capital Spacing lookup 0 subtable" dx=5 dy=0 dh=10 dv=0
EndChar

StartChar: uni2C72
Encoding: 11378 11378 306
Width: 842
GlyphClass: 2
Flags: W
AnchorPoint: "Anchor-18" 0 0 basechar 0
AnchorPoint: "Anchor-17" 0 0 basechar 0
AnchorPoint: "Anchor-16" 402 684 basechar 0
AnchorPoint: "Anchor-15" 0 0 basechar 0
AnchorPoint: "Anchor-14" 402 0 basechar 0
LayerCount: 2
Fore
SplineSet
187 0 m 1,0,-1
 244 0 l 1,1,-1
 402 633 l 1,2,-1
 559 0 l 1,3,-1
 617 0 l 1,4,-1
 746 590 l 2,5,6
 754 627 754 627 770 641.5 c 128,-1,7
 786 656 786 656 814 656 c 0,8,9
 834 656 834 656 847.5 649.5 c 128,-1,10
 861 643 861 643 879 629 c 1,11,-1
 900 657 l 1,12,13
 880 675 880 675 859.5 684.5 c 128,-1,14
 839 694 839 694 812 694 c 0,15,16
 771 694 771 694 743 671 c 128,-1,17
 715 648 715 648 705 598 c 2,18,-1
 588 45 l 1,19,-1
 429 684 l 1,20,-1
 375 684 l 1,21,-1
 218 45 l 1,22,-1
 81 684 l 1,23,-1
 32 684 l 1,24,-1
 187 0 l 1,0,-1
EndSplineSet
Substitution2: "'c2sc' Capitals to Small Capitals lookup 26 subtable" uni2C73.sc
Substitution2: "'aalt' Access All Alternates lookup 0 subtable" uni2C73.sc
Position2: "'cpsp' Capital Spacing lookup 0 subtable" dx=5 dy=0 dh=10 dv=0
EndChar

StartChar: uni01F7
Encoding: 503 503 307
Width: 566
GlyphClass: 2
Flags: W
AnchorPoint: "Anchor-18" 0 0 basechar 0
AnchorPoint: "Anchor-17" 0 0 basechar 0
AnchorPoint: "Anchor-16" 283 684 basechar 0
AnchorPoint: "Anchor-15" 0 0 basechar 0
AnchorPoint: "Anchor-14" 283 0 basechar 0
LayerCount: 2
Fore
SplineSet
466.5 646 m 128,-1,1
 517 598 517 598 517 515 c 0,2,3
 517 413 517 413 451.5 354.5 c 128,-1,4
 386 296 386 296 265 252 c 2,5,-1
 162 215 l 1,6,-1
 162 0 l 1,7,-1
 115 0 l 1,8,-1
 115 684 l 1,9,-1
 162 684 l 1,10,-1
 162 626 l 1,11,12
 235 694 235 694 336 694 c 0,13,0
 416 694 416 694 466.5 646 c 128,-1,1
414.5 379 m 128,-1,15
 467 429 467 429 467 515 c 0,16,17
 467 581 467 581 430.5 617 c 128,-1,18
 394 653 394 653 332 653 c 0,19,20
 235 653 235 653 162 585 c 1,21,-1
 162 257 l 1,22,-1
 266 294 l 2,23,14
 362 329 362 329 414.5 379 c 128,-1,15
EndSplineSet
Substitution2: "'c2sc' Capitals to Small Capitals lookup 26 subtable" uni01BF.sc
Substitution2: "'aalt' Access All Alternates lookup 0 subtable" uni01BF.sc
Position2: "'cpsp' Capital Spacing lookup 0 subtable" dx=5 dy=0 dh=10 dv=0
EndChar

StartChar: X
Encoding: 88 88 308
Width: 505
GlyphClass: 2
Flags: W
AnchorPoint: "Anchor-18" 0 0 basechar 0
AnchorPoint: "Anchor-17" 0 0 basechar 0
AnchorPoint: "Anchor-16" 251 684 basechar 0
AnchorPoint: "Anchor-15" 0 0 basechar 0
AnchorPoint: "Anchor-14" 251 0 basechar 0
LayerCount: 2
Fore
SplineSet
278 371 m 1,0,-1
 493 0 l 1,1,-1
 439 0 l 1,2,-1
 249 338 l 1,3,-1
 64 0 l 1,4,-1
 12 0 l 1,5,-1
 222 368 l 1,6,-1
 33 684 l 1,7,-1
 87 684 l 1,8,-1
 250 400 l 1,9,-1
 411 684 l 1,10,-1
 463 684 l 1,11,-1
 278 371 l 1,0,-1
EndSplineSet
Substitution2: "'c2sc' Capitals to Small Capitals lookup 26 subtable" x.sc
Substitution2: "'aalt' Access All Alternates lookup 0 subtable" x.sc
Position2: "'cpsp' Capital Spacing lookup 0 subtable" dx=5 dy=0 dh=10 dv=0
EndChar

StartChar: Y
Encoding: 89 89 309
Width: 513
GlyphClass: 2
Flags: W
AnchorPoint: "Anchor-18" 0 0 basechar 0
AnchorPoint: "Anchor-17" 0 0 basechar 0
AnchorPoint: "Anchor-16" 256 684 basechar 0
AnchorPoint: "Anchor-15" 0 0 basechar 0
AnchorPoint: "Anchor-14" 258 0 basechar 0
LayerCount: 2
Fore
SplineSet
497 684 m 1,0,-1
 281 269 l 1,1,-1
 281 0 l 1,2,-1
 234 0 l 1,3,-1
 234 268 l 1,4,-1
 16 684 l 1,5,-1
 69 684 l 1,6,-1
 259 312 l 1,7,-1
 445 684 l 1,8,-1
 497 684 l 1,0,-1
EndSplineSet
Substitution2: "'c2sc' Capitals to Small Capitals lookup 26 subtable" y.sc
Substitution2: "'aalt' Access All Alternates lookup 0 subtable" y.sc
Position2: "'cpsp' Capital Spacing lookup 0 subtable" dx=5 dy=0 dh=10 dv=0
EndChar

StartChar: uni01B3
Encoding: 435 435 315
Width: 535
GlyphClass: 2
Flags: W
AnchorPoint: "Anchor-18" 0 0 basechar 0
AnchorPoint: "Anchor-17" 0 0 basechar 0
AnchorPoint: "Anchor-16" 265 684 basechar 0
AnchorPoint: "Anchor-15" 0 0 basechar 0
AnchorPoint: "Anchor-14" 258 0 basechar 0
LayerCount: 2
Fore
SplineSet
234 268 m 1,0,-1
 16 684 l 1,1,-1
 69 684 l 1,2,-1
 259 310 l 1,3,-1
 395 607 l 2,4,5
 416 653 416 653 441.5 673.5 c 128,-1,6
 467 694 467 694 505 694 c 0,7,8
 532 694 532 694 552.5 684.5 c 128,-1,9
 573 675 573 675 594 657 c 1,10,-1
 572 629 l 1,11,12
 556 643 556 643 541.5 649.5 c 128,-1,13
 527 656 527 656 507 656 c 0,14,15
 483 656 483 656 467.5 642.5 c 128,-1,16
 452 629 452 629 434 591 c 2,17,-1
 281 269 l 1,18,-1
 281 0 l 1,19,-1
 234 0 l 1,20,-1
 234 268 l 1,0,-1
EndSplineSet
Substitution2: "'c2sc' Capitals to Small Capitals lookup 26 subtable" uni01B4.sc
Substitution2: "'aalt' Access All Alternates lookup 0 subtable" uni01B4.sc
Position2: "'cpsp' Capital Spacing lookup 0 subtable" dx=5 dy=0 dh=10 dv=0
EndChar

StartChar: uni01A6
Encoding: 422 422 318
Width: 584
GlyphClass: 2
Flags: W
AnchorPoint: "Anchor-18" 0 0 basechar 0
AnchorPoint: "Anchor-17" 0 0 basechar 0
AnchorPoint: "Anchor-16" 292 684 basechar 0
AnchorPoint: "Anchor-15" 0 0 basechar 0
AnchorPoint: "Anchor-14" 292 -195 basechar 0
LayerCount: 2
Fore
SplineSet
311 185 m 1,0,-1
 162 185 l 1,1,-1
 162 0 l 1,2,-1
 115 0 l 1,3,-1
 115 684 l 1,4,-1
 162 684 l 1,5,-1
 162 556 l 1,6,-1
 276 556 l 2,7,8
 513 556 513 556 513 373 c 0,9,10
 513 298 513 298 473.5 255 c 128,-1,11
 434 212 434 212 359 193 c 1,12,-1
 548 -128 l 1,13,-1
 491 -128 l 1,14,-1
 311 185 l 1,0,-1
283 225 m 2,15,16
 463 225 463 225 463 373 c 0,17,18
 463 445 463 445 418.5 480 c 128,-1,19
 374 515 374 515 273 515 c 2,20,-1
 162 515 l 1,21,-1
 162 225 l 1,22,-1
 283 225 l 2,15,16
EndSplineSet
Substitution2: "'c2sc' Capitals to Small Capitals lookup 26 subtable" uni0280.sc
Substitution2: "'aalt' Access All Alternates lookup 0 subtable" uni0280.sc
Position2: "'cpsp' Capital Spacing lookup 0 subtable" dx=5 dy=0 dh=10 dv=0
EndChar

StartChar: uni024E
Encoding: 590 590 319
Width: 513
GlyphClass: 2
Flags: W
AnchorPoint: "Anchor-18" 0 0 basechar 0
AnchorPoint: "Anchor-17" 0 0 basechar 0
AnchorPoint: "Anchor-16" 256 684 basechar 0
AnchorPoint: "Anchor-15" 0 0 basechar 0
AnchorPoint: "Anchor-14" 256 0 basechar 0
LayerCount: 2
Fore
SplineSet
497 684 m 1,0,-1
 449 591 l 1,1,-1
 497 591 l 1,2,-1
 497 556 l 1,3,-1
 430 556 l 1,4,-1
 281 269 l 1,5,-1
 281 0 l 1,6,-1
 234 0 l 1,7,-1
 234 268 l 1,8,-1
 83 556 l 1,9,-1
 17 556 l 1,10,-1
 17 591 l 1,11,-1
 65 591 l 1,12,-1
 16 684 l 1,13,-1
 69 684 l 1,14,-1
 116 591 l 1,15,-1
 399 591 l 1,16,-1
 445 684 l 1,17,-1
 497 684 l 1,0,-1
259 310 m 1,18,-1
 381 556 l 1,19,-1
 134 556 l 1,20,-1
 259 310 l 1,18,-1
EndSplineSet
Substitution2: "'c2sc' Capitals to Small Capitals lookup 26 subtable" uni024F.sc
Substitution2: "'aalt' Access All Alternates lookup 0 subtable" uni024F.sc
Position2: "'cpsp' Capital Spacing lookup 0 subtable" dx=5 dy=0 dh=10 dv=0
EndChar

StartChar: Z
Encoding: 90 90 321
Width: 514
GlyphClass: 2
Flags: W
AnchorPoint: "Anchor-18" 0 0 basechar 0
AnchorPoint: "Anchor-17" 0 0 basechar 0
AnchorPoint: "Anchor-16" 260 684 basechar 0
AnchorPoint: "Anchor-15" 0 0 basechar 0
AnchorPoint: "Anchor-14" 258 0 basechar 0
LayerCount: 2
Fore
SplineSet
465 684 m 1,0,-1
 465 644 l 1,1,-1
 92 43 l 1,2,-1
 456 43 l 1,3,-1
 450 0 l 1,4,-1
 37 0 l 1,5,-1
 37 40 l 1,6,-1
 412 642 l 1,7,-1
 75 642 l 1,8,-1
 75 684 l 1,9,-1
 465 684 l 1,0,-1
EndSplineSet
Substitution2: "'c2sc' Capitals to Small Capitals lookup 26 subtable" z.sc
Substitution2: "'aalt' Access All Alternates lookup 0 subtable" z.sc
Position2: "'cpsp' Capital Spacing lookup 0 subtable" dx=5 dy=0 dh=10 dv=0
EndChar

StartChar: uni0224
Encoding: 548 548 327
Width: 514
GlyphClass: 2
Flags: W
AnchorPoint: "Anchor-18" 0 0 basechar 0
AnchorPoint: "Anchor-17" 0 0 basechar 0
AnchorPoint: "Anchor-16" 257 684 basechar 0
AnchorPoint: "Anchor-15" 0 0 basechar 0
AnchorPoint: "Anchor-14" 257 -195 basechar 0
LayerCount: 2
Fore
SplineSet
465 644 m 1,0,-1
 92 43 l 1,1,-1
 453 43 l 1,2,-1
 453 -76 l 2,3,4
 453 -138 453 -138 421.5 -170.5 c 128,-1,5
 390 -203 390 -203 337 -203 c 0,6,7
 283 -203 283 -203 240 -170 c 1,8,-1
 260 -138 l 1,9,10
 277 -150 277 -150 294.5 -156 c 128,-1,11
 312 -162 312 -162 336 -162 c 0,12,13
 406 -162 406 -162 406 -76 c 2,14,-1
 406 0 l 1,15,-1
 37 0 l 1,16,-1
 37 40 l 1,17,-1
 412 642 l 1,18,-1
 75 642 l 1,19,-1
 75 684 l 1,20,-1
 465 684 l 1,21,-1
 465 644 l 1,0,-1
EndSplineSet
Substitution2: "'c2sc' Capitals to Small Capitals lookup 26 subtable" uni0225.sc
Substitution2: "'aalt' Access All Alternates lookup 0 subtable" uni0225.sc
Position2: "'cpsp' Capital Spacing lookup 0 subtable" dx=5 dy=0 dh=10 dv=0
EndChar

StartChar: uni01B5
Encoding: 437 437 328
Width: 514
GlyphClass: 2
Flags: W
AnchorPoint: "Anchor-18" 0 0 basechar 0
AnchorPoint: "Anchor-17" 0 0 basechar 0
AnchorPoint: "Anchor-16" 257 684 basechar 0
AnchorPoint: "Anchor-15" 0 0 basechar 0
AnchorPoint: "Anchor-14" 257 0 basechar 0
LayerCount: 2
Fore
SplineSet
465 684 m 1,0,-1
 465 644 l 1,1,-1
 291 364 l 1,2,-1
 402 364 l 1,3,-1
 402 324 l 1,4,-1
 266 324 l 1,5,-1
 91 43 l 1,6,-1
 456 43 l 1,7,-1
 450 0 l 1,8,-1
 37 0 l 1,9,-1
 37 40 l 1,10,-1
 214 324 l 1,11,-1
 112 324 l 1,12,-1
 112 364 l 1,13,-1
 239 364 l 1,14,-1
 413 642 l 1,15,-1
 75 642 l 1,16,-1
 75 684 l 1,17,-1
 465 684 l 1,0,-1
EndSplineSet
Substitution2: "'c2sc' Capitals to Small Capitals lookup 26 subtable" uni01B6.sc
Substitution2: "'aalt' Access All Alternates lookup 0 subtable" uni01B6.sc
Position2: "'cpsp' Capital Spacing lookup 0 subtable" dx=5 dy=0 dh=10 dv=0
EndChar

StartChar: uni0262
Encoding: 610 610 330
Width: 553
GlyphClass: 2
Flags: W
AnchorPoint: "Anchor-18" 0 0 basechar 0
AnchorPoint: "Anchor-17" 0 0 basechar 0
AnchorPoint: "Anchor-16" 298 522 basechar 0
AnchorPoint: "Anchor-15" 0 0 basechar 0
AnchorPoint: "Anchor-14" 288 0 basechar 0
LayerCount: 2
Fore
SplineSet
382.5 520.5 m 128,-1,1
 420 507 420 507 456 479 c 1,2,-1
 429 449 l 1,3,4
 398 472 398 472 366.5 482.5 c 128,-1,5
 335 493 335 493 298 493 c 0,6,7
 249 493 249 493 207.5 469 c 128,-1,8
 166 445 166 445 140.5 393.5 c 128,-1,9
 115 342 115 342 115 265 c 0,10,11
 115 145 115 145 163 88 c 128,-1,12
 211 31 211 31 298 31 c 0,13,14
 367 31 367 31 420 59 c 1,15,-1
 420 243 l 1,16,-1
 304 243 l 1,17,-1
 299 282 l 1,18,-1
 466 282 l 1,19,-1
 466 36 l 1,20,21
 388 -9 388 -9 298 -9 c 0,22,23
 190 -9 190 -9 128.5 60 c 128,-1,24
 67 129 67 129 67 265 c 0,25,26
 67 349 67 349 99 410 c 128,-1,27
 131 471 131 471 183.5 502.5 c 128,-1,28
 236 534 236 534 297 534 c 0,29,0
 345 534 345 534 382.5 520.5 c 128,-1,1
EndSplineSet
EndChar

StartChar: uni029B
Encoding: 667 667 331
Width: 553
GlyphClass: 2
Flags: W
AnchorPoint: "Anchor-18" 0 0 basechar 0
AnchorPoint: "Anchor-17" 0 0 basechar 0
AnchorPoint: "Anchor-16" 276 735 basechar 0
AnchorPoint: "Anchor-15" 0 0 basechar 0
AnchorPoint: "Anchor-14" 296 0 basechar 0
LayerCount: 2
Fore
SplineSet
623 708 m 1,1,-1
 603 678 l 1,2,3
 584 690 584 690 567 696 c 128,-1,4
 550 702 550 702 527 702 c 0,5,6
 456 702 456 702 456 615 c 2,7,-1
 456 479 l 1,8,-1
 432 453 l 1,9,10
 400 474 400 474 368 483.5 c 128,-1,11
 336 493 336 493 298 493 c 0,12,13
 249 493 249 493 207.5 469 c 128,-1,14
 166 445 166 445 140.5 393.5 c 128,-1,15
 115 342 115 342 115 265 c 0,16,17
 115 145 115 145 163 88 c 128,-1,18
 211 31 211 31 298 31 c 0,19,20
 367 31 367 31 420 59 c 1,21,-1
 420 243 l 1,22,-1
 304 243 l 1,23,-1
 299 282 l 1,24,-1
 466 282 l 1,25,-1
 466 36 l 1,26,27
 388 -9 388 -9 298 -9 c 0,28,29
 190 -9 190 -9 128.5 60 c 128,-1,30
 67 129 67 129 67 265 c 0,31,32
 67 349 67 349 99 410 c 128,-1,33
 131 471 131 471 183.5 502.5 c 128,-1,34
 236 534 236 534 297 534 c 0,35,36
 359 534 359 534 410 506 c 1,37,-1
 410 614 l 2,38,39
 410 676 410 676 441 708.5 c 128,-1,40
 472 741 472 741 525 741 c 0,41,0
 580 741 580 741 623 708 c 1,1,-1
EndSplineSet
EndChar

StartChar: uni026A
Encoding: 618 618 333
Width: 315
GlyphClass: 2
Flags: W
AnchorPoint: "Anchor-18" 0 0 basechar 0
AnchorPoint: "Anchor-17" 0 0 basechar 0
AnchorPoint: "Anchor-16" 158 522 basechar 0
AnchorPoint: "Anchor-15" 0 0 basechar 0
AnchorPoint: "Anchor-14" 158 0 basechar 0
LayerCount: 2
Fore
SplineSet
286 483 m 1,0,-1
 180 483 l 1,1,-1
 180 39 l 1,2,-1
 286 39 l 1,3,-1
 286 0 l 1,4,-1
 29 0 l 1,5,-1
 29 39 l 1,6,-1
 134 39 l 1,7,-1
 134 483 l 1,8,-1
 29 483 l 1,9,-1
 29 522 l 1,10,-1
 286 522 l 1,11,-1
 286 483 l 1,0,-1
EndSplineSet
EndChar

StartChar: uni029F
Encoding: 671 671 334
Width: 409
GlyphClass: 2
Flags: W
AnchorPoint: "Anchor-18" 0 0 basechar 0
AnchorPoint: "Anchor-17" 0 0 basechar 0
AnchorPoint: "Anchor-16" 133 522 basechar 0
AnchorPoint: "Anchor-15" 0 0 basechar 0
AnchorPoint: "Anchor-14" 251 0 basechar 0
LayerCount: 2
Fore
SplineSet
156 522 m 1,0,-1
 156 41 l 1,1,-1
 398 41 l 1,2,-1
 391 0 l 1,3,-1
 110 0 l 1,4,-1
 110 522 l 1,5,-1
 156 522 l 1,0,-1
EndSplineSet
EndChar

StartChar: uni0274
Encoding: 628 628 335
Width: 588
GlyphClass: 2
Flags: W
AnchorPoint: "Anchor-18" 0 0 basechar 0
AnchorPoint: "Anchor-17" 0 0 basechar 0
AnchorPoint: "Anchor-16" 294 522 basechar 0
AnchorPoint: "Anchor-15" 0 0 basechar 0
AnchorPoint: "Anchor-14" 294 0 basechar 0
LayerCount: 2
Fore
SplineSet
478 0 m 1,0,-1
 418 0 l 1,1,-1
 148 477 l 1,2,3
 153 402 153 402 153 275 c 2,4,-1
 153 0 l 1,5,-1
 110 0 l 1,6,-1
 110 522 l 1,7,-1
 169 522 l 1,8,-1
 439 45 l 1,9,10
 434 130 434 130 434 214 c 2,11,-1
 434 522 l 1,12,-1
 478 522 l 1,13,-1
 478 0 l 1,0,-1
EndSplineSet
EndChar

StartChar: uni0276
Encoding: 630 630 336
Width: 720
GlyphClass: 2
Flags: W
AnchorPoint: "Anchor-18" 0 0 basechar 0
AnchorPoint: "Anchor-17" 0 0 basechar 0
AnchorPoint: "Anchor-16" 393 522 basechar 0
AnchorPoint: "Anchor-15" 0 0 basechar 0
AnchorPoint: "Anchor-14" 393 0 basechar 0
LayerCount: 2
Fore
SplineSet
678 0 m 1,0,-1
 349 0 l 1,1,2
 316 -11 316 -11 283 -11 c 0,3,4
 182 -11 182 -11 124.5 61.5 c 128,-1,5
 67 134 67 134 67 260 c 0,6,7
 67 387 67 387 125.5 459.5 c 128,-1,8
 184 532 184 532 284 532 c 0,9,10
 321 532 321 532 352 522 c 1,11,-1
 673 522 l 1,12,-1
 668 483 l 1,13,-1
 412 483 l 1,14,15
 449 458 449 458 472.5 408 c 128,-1,16
 496 358 496 358 500 292 c 1,17,-1
 635 292 l 1,18,-1
 635 254 l 1,19,-1
 501 254 l 1,20,21
 500 176 500 176 475 122 c 128,-1,22
 450 68 450 68 408 39 c 1,23,-1
 678 39 l 1,24,-1
 678 0 l 1,0,-1
159 89 m 128,-1,26
 203 29 203 29 283 29 c 0,27,28
 362 29 362 29 407.5 90 c 128,-1,29
 453 151 453 151 453 265 c 0,30,31
 453 375 453 375 407 433.5 c 128,-1,32
 361 492 361 492 284 492 c 0,33,34
 205 492 205 492 160 432.5 c 128,-1,35
 115 373 115 373 115 260 c 0,36,25
 115 149 115 149 159 89 c 128,-1,26
EndSplineSet
EndChar

StartChar: uni0280
Encoding: 640 640 337
Width: 523
GlyphClass: 2
Flags: W
AnchorPoint: "Anchor-18" 0 0 basechar 0
AnchorPoint: "Anchor-17" 0 0 basechar 0
AnchorPoint: "Anchor-16" 256 522 basechar 0
AnchorPoint: "Anchor-15" 0 0 basechar 0
AnchorPoint: "Anchor-14" 256 0 basechar 0
LayerCount: 2
Fore
SplineSet
412 0 m 1,0,-1
 268 222 l 1,1,2
 261 221 261 221 244 221 c 2,3,-1
 156 221 l 1,4,-1
 156 0 l 1,5,-1
 110 0 l 1,6,-1
 110 522 l 1,7,-1
 237 522 l 2,8,9
 340 522 340 522 391 483.5 c 128,-1,10
 442 445 442 445 442 371 c 0,11,12
 442 316 442 316 409 278.5 c 128,-1,13
 376 241 376 241 314 228 c 1,14,-1
 466 0 l 1,15,-1
 412 0 l 1,0,-1
245 259 m 2,16,17
 317 259 317 259 355.5 287.5 c 128,-1,18
 394 316 394 316 394 371 c 0,19,20
 394 428 394 428 356.5 455.5 c 128,-1,21
 319 483 319 483 235 483 c 2,22,-1
 156 483 l 1,23,-1
 156 259 l 1,24,-1
 245 259 l 2,16,17
EndSplineSet
Substitution2: "'smcp' Lowercase to Small Capitals lookup 27 subtable" uni0280.sc
Substitution2: "'aalt' Access All Alternates lookup 0 subtable" uni0280.sc
EndChar

StartChar: uni0281
Encoding: 641 641 338
Width: 523
GlyphClass: 2
Flags: W
AnchorPoint: "Anchor-18" 0 0 basechar 0
AnchorPoint: "Anchor-17" 0 0 basechar 0
AnchorPoint: "Anchor-16" 256 522 basechar 0
AnchorPoint: "Anchor-15" 0 0 basechar 0
AnchorPoint: "Anchor-14" 256 0 basechar 0
LayerCount: 2
Fore
SplineSet
409.5 244 m 128,-1,1
 442 207 442 207 442 152 c 0,2,3
 442 78 442 78 391 39 c 128,-1,4
 340 0 340 0 237 0 c 2,5,-1
 110 0 l 1,6,-1
 110 522 l 1,7,-1
 156 522 l 1,8,-1
 156 301 l 1,9,-1
 244 301 l 2,10,11
 261 301 261 301 269 300 c 1,12,-1
 412 522 l 1,13,-1
 466 522 l 1,14,-1
 315 294 l 1,15,0
 377 281 377 281 409.5 244 c 128,-1,1
356.5 67 m 128,-1,17
 394 95 394 95 394 152 c 0,18,19
 394 206 394 206 356 234 c 128,-1,20
 318 262 318 262 245 262 c 2,21,-1
 156 262 l 1,22,-1
 156 39 l 1,23,-1
 235 39 l 2,24,16
 319 39 319 39 356.5 67 c 128,-1,17
EndSplineSet
EndChar

StartChar: uni028F
Encoding: 655 655 339
Width: 416
GlyphClass: 2
Flags: W
AnchorPoint: "Anchor-18" 0 0 basechar 0
AnchorPoint: "Anchor-17" 0 0 basechar 0
AnchorPoint: "Anchor-16" 208 522 basechar 0
AnchorPoint: "Anchor-15" 0 0 basechar 0
AnchorPoint: "Anchor-14" 208 0 basechar 0
LayerCount: 2
Fore
SplineSet
408 522 m 1,0,-1
 232 208 l 1,1,-1
 232 0 l 1,2,-1
 186 0 l 1,3,-1
 186 207 l 1,4,-1
 7 522 l 1,5,-1
 56 522 l 1,6,-1
 210 245 l 1,7,-1
 359 522 l 1,8,-1
 408 522 l 1,0,-1
EndSplineSet
EndChar

StartChar: a
Encoding: 97 97 340
Width: 534
GlyphClass: 2
Flags: W
AnchorPoint: "Anchor-18" 0 0 basechar 0
AnchorPoint: "Anchor-17" 0 0 basechar 0
AnchorPoint: "Anchor-16" 257 522 basechar 0
AnchorPoint: "Anchor-15" 468 -11 basechar 0
AnchorPoint: "Anchor-14" 257 0 basechar 0
LayerCount: 2
Fore
SplineSet
435.5 50 m 128,-1,1
 446 31 446 31 469 22 c 1,2,-1
 458 -11 l 1,3,4
 424 -2 424 -2 406.5 19 c 128,-1,5
 389 40 389 40 385 81 c 1,6,7
 328 -11 328 -11 220 -11 c 0,8,9
 146 -11 146 -11 103 31.5 c 128,-1,10
 60 74 60 74 60 145 c 0,11,12
 60 225 60 225 117 268.5 c 128,-1,13
 174 312 174 312 272 312 c 2,14,-1
 379 312 l 1,15,-1
 379 367 l 2,16,17
 379 432 379 432 350 462 c 128,-1,18
 321 492 321 492 254 492 c 0,19,20
 191 492 191 492 112 461 c 1,21,-1
 99 498 l 1,22,23
 186 532 186 532 258 532 c 0,24,25
 344 532 344 532 384.5 491 c 128,-1,26
 425 450 425 450 425 370 c 2,27,-1
 425 113 l 2,28,0
 425 69 425 69 435.5 50 c 128,-1,1
379 127 m 1,30,-1
 379 276 l 1,31,-1
 279 276 l 2,32,33
 197 276 197 276 153 243.5 c 128,-1,34
 109 211 109 211 109 146 c 0,35,36
 109 90 109 90 140 59 c 128,-1,37
 171 28 171 28 226 28 c 0,38,29
 327 28 327 28 379 127 c 1,30,-1
EndSplineSet
Substitution2: "Single Substitution lookup 45 subtable" ordfeminine
Substitution2: "'ss04' Style Set 4 lookup 36 subtable" a.ss04
Substitution2: "'salt' Stylistic Alternatives lookup 32 subtable" a.ss04
Substitution2: "'smcp' Lowercase to Small Capitals lookup 27 subtable" a.sc
AlternateSubs2: "'aalt' Access All Alternates lookup 1 subtable" ordfeminine a.sc a.ss04
EndChar

StartChar: a.ss04
Encoding: 65547 -1 341
Width: 580
GlyphClass: 2
Flags: W
AnchorPoint: "Anchor-18" 0 0 basechar 0
AnchorPoint: "Anchor-17" 0 0 basechar 0
AnchorPoint: "Anchor-16" 290 522 basechar 0
AnchorPoint: "Anchor-15" 0 0 basechar 0
AnchorPoint: "Anchor-14" 290 0 basechar 0
LayerCount: 2
Fore
SplineSet
476.5 58.5 m 128,-1,1
 487 41 487 41 514 30 c 1,2,-1
 499 -7 l 1,3,4
 462 5 462 5 444.5 25.5 c 128,-1,5
 427 46 427 46 422 82 c 1,6,7
 398 40 398 40 359 14.5 c 128,-1,8
 320 -11 320 -11 267 -11 c 0,9,10
 174 -11 174 -11 120.5 61.5 c 128,-1,11
 67 134 67 134 67 259 c 0,12,13
 67 339 67 339 92.5 401 c 128,-1,14
 118 463 118 463 164.5 497.5 c 128,-1,15
 211 532 211 532 274 532 c 0,16,17
 367 532 367 532 422 457 c 1,18,-1
 426 522 l 1,19,-1
 466 522 l 1,20,-1
 466 116 l 2,21,0
 466 76 466 76 476.5 58.5 c 128,-1,1
356.5 55 m 128,-1,23
 392 81 392 81 420 133 c 1,24,-1
 420 410 l 1,25,26
 364 493 364 493 279 493 c 0,27,28
 231 493 231 493 194 466 c 128,-1,29
 157 439 157 439 136 386.5 c 128,-1,30
 115 334 115 334 115 262 c 0,31,32
 115 150 115 150 156 89.5 c 128,-1,33
 197 29 197 29 271 29 c 0,34,22
 321 29 321 29 356.5 55 c 128,-1,23
EndSplineSet
EndChar

StartChar: uni0251
Encoding: 593 593 365
Width: 580
GlyphClass: 2
Flags: W
AnchorPoint: "Anchor-18" 0 0 basechar 0
AnchorPoint: "Anchor-17" 0 0 basechar 0
AnchorPoint: "Anchor-16" 290 522 basechar 0
AnchorPoint: "Anchor-15" 0 0 basechar 0
AnchorPoint: "Anchor-14" 290 0 basechar 0
LayerCount: 2
Fore
SplineSet
476.5 58.5 m 128,-1,1
 487 41 487 41 514 30 c 1,2,-1
 499 -7 l 1,3,4
 462 5 462 5 444.5 25.5 c 128,-1,5
 427 46 427 46 422 82 c 1,6,7
 398 40 398 40 359 14.5 c 128,-1,8
 320 -11 320 -11 267 -11 c 0,9,10
 174 -11 174 -11 120.5 61.5 c 128,-1,11
 67 134 67 134 67 259 c 0,12,13
 67 339 67 339 92.5 401 c 128,-1,14
 118 463 118 463 164.5 497.5 c 128,-1,15
 211 532 211 532 274 532 c 0,16,17
 367 532 367 532 422 457 c 1,18,-1
 426 522 l 1,19,-1
 466 522 l 1,20,-1
 466 116 l 2,21,0
 466 76 466 76 476.5 58.5 c 128,-1,1
356.5 55 m 128,-1,23
 392 81 392 81 420 133 c 1,24,-1
 420 410 l 1,25,26
 364 493 364 493 279 493 c 0,27,28
 231 493 231 493 194 466 c 128,-1,29
 157 439 157 439 136 386.5 c 128,-1,30
 115 334 115 334 115 262 c 0,31,32
 115 150 115 150 156 89.5 c 128,-1,33
 197 29 197 29 271 29 c 0,34,22
 321 29 321 29 356.5 55 c 128,-1,23
EndSplineSet
Substitution2: "'smcp' Lowercase to Small Capitals lookup 27 subtable" uni0251.sc
Substitution2: "'aalt' Access All Alternates lookup 0 subtable" uni0251.sc
EndChar

StartChar: uni0252
Encoding: 594 594 366
Width: 580
GlyphClass: 2
Flags: W
AnchorPoint: "Anchor-18" 0 0 basechar 0
AnchorPoint: "Anchor-17" 0 0 basechar 0
AnchorPoint: "Anchor-16" 290 522 basechar 0
AnchorPoint: "Anchor-15" 0 0 basechar 0
AnchorPoint: "Anchor-14" 290 0 basechar 0
LayerCount: 2
Fore
SplineSet
459.5 460.5 m 128,-1,1
 513 388 513 388 513 263 c 0,2,3
 513 183 513 183 487.5 121 c 128,-1,4
 462 59 462 59 415.5 24.5 c 128,-1,5
 369 -10 369 -10 306 -10 c 0,6,7
 213 -10 213 -10 158 65 c 1,8,-1
 154 0 l 1,9,-1
 114 0 l 1,10,-1
 114 406 l 2,11,12
 114 446 114 446 103.5 463.5 c 128,-1,13
 93 481 93 481 66 492 c 1,14,-1
 81 529 l 1,15,16
 118 517 118 517 135.5 496.5 c 128,-1,17
 153 476 153 476 158 440 c 1,18,19
 182 482 182 482 221 507.5 c 128,-1,20
 260 533 260 533 313 533 c 0,21,0
 406 533 406 533 459.5 460.5 c 128,-1,1
386 56 m 128,-1,23
 423 83 423 83 444 135.5 c 128,-1,24
 465 188 465 188 465 260 c 0,25,26
 465 372 465 372 424 432.5 c 128,-1,27
 383 493 383 493 309 493 c 0,28,29
 259 493 259 493 223.5 467 c 128,-1,30
 188 441 188 441 160 389 c 1,31,-1
 160 112 l 1,32,33
 216 29 216 29 301 29 c 0,34,22
 349 29 349 29 386 56 c 128,-1,23
EndSplineSet
EndChar

StartChar: aogonek
Encoding: 261 261 368
Width: 534
GlyphClass: 2
Flags: W
AnchorPoint: "Anchor-18" 0 0 basechar 0
AnchorPoint: "Anchor-17" 0 0 basechar 0
AnchorPoint: "Anchor-16" 257 522 basechar 0
AnchorPoint: "Anchor-15" 468 -11 basechar 0
AnchorPoint: "Anchor-14" 257 0 basechar 0
LayerCount: 2
Fore
SplineSet
364 -67 m 128,-1,1
 336 -93 336 -93 336 -130 c 0,2,3
 336 -155 336 -155 352 -169 c 128,-1,4
 368 -183 368 -183 401 -183 c 0,5,6
 427 -183 427 -183 458 -177 c 1,7,-1
 454 -217 l 1,8,9
 419 -224 419 -224 397 -224 c 0,10,11
 346 -224 346 -224 318.5 -199 c 128,-1,12
 291 -174 291 -174 291 -135 c 0,13,14
 291 -92 291 -92 324 -58.5 c 128,-1,15
 357 -25 357 -25 425 3 c 1,16,17
 389 25 389 25 385 81 c 1,18,19
 328 -11 328 -11 220 -11 c 0,20,21
 146 -11 146 -11 103 31.5 c 128,-1,22
 60 74 60 74 60 145 c 0,23,24
 60 225 60 225 117 268.5 c 128,-1,25
 174 312 174 312 272 312 c 2,26,-1
 379 312 l 1,27,-1
 379 367 l 2,28,29
 379 432 379 432 350 462 c 128,-1,30
 321 492 321 492 254 492 c 0,31,32
 191 492 191 492 112 461 c 1,33,-1
 99 498 l 1,34,35
 186 532 186 532 258 532 c 0,36,37
 344 532 344 532 384.5 491 c 128,-1,38
 425 450 425 450 425 370 c 2,39,-1
 425 113 l 2,40,41
 425 69 425 69 435.5 50 c 128,-1,42
 446 31 446 31 469 22 c 1,43,-1
 458 -11 l 1,44,0
 392 -41 392 -41 364 -67 c 128,-1,1
379 127 m 1,46,-1
 379 276 l 1,47,-1
 279 276 l 2,48,49
 197 276 197 276 153 243.5 c 128,-1,50
 109 211 109 211 109 146 c 0,51,52
 109 90 109 90 140 59 c 128,-1,53
 171 28 171 28 226 28 c 0,54,45
 327 28 327 28 379 127 c 1,46,-1
EndSplineSet
Substitution2: "'smcp' Lowercase to Small Capitals lookup 27 subtable" aogonek.sc
Substitution2: "'aalt' Access All Alternates lookup 0 subtable" aogonek.sc
EndChar

StartChar: aringacute
Encoding: 507 507 370
Width: 534
GlyphClass: 2
Flags: W
AnchorPoint: "Anchor-18" 0 0 basechar 0
AnchorPoint: "Anchor-17" 0 0 basechar 0
AnchorPoint: "Anchor-16" 260 897 basechar 0
AnchorPoint: "Anchor-15" 468 -11 basechar 0
AnchorPoint: "Anchor-14" 257 0 basechar 0
LayerCount: 2
Fore
SplineSet
360 853 m 1,0,-1
 168 776 l 1,1,-1
 155 805 l 1,2,-1
 339 897 l 1,3,-1
 360 853 l 1,0,-1
191 743.5 m 128,-1,5
 217 768 217 768 258 768 c 256,6,7
 299 768 299 768 325 743.5 c 128,-1,8
 351 719 351 719 351 679 c 256,9,10
 351 639 351 639 325 614 c 128,-1,11
 299 589 299 589 258 589 c 256,12,13
 217 589 217 589 191 614 c 128,-1,14
 165 639 165 639 165 679 c 256,15,4
 165 719 165 719 191 743.5 c 128,-1,5
299.5 722.5 m 128,-1,17
 285 738 285 738 258 738 c 256,18,19
 231 738 231 738 216.5 722.5 c 128,-1,20
 202 707 202 707 202 679 c 256,21,22
 202 651 202 651 216.5 635.5 c 128,-1,23
 231 620 231 620 258 620 c 256,24,25
 285 620 285 620 299.5 635.5 c 128,-1,26
 314 651 314 651 314 679 c 256,27,16
 314 707 314 707 299.5 722.5 c 128,-1,17
435.5 50 m 128,-1,29
 446 31 446 31 469 22 c 1,30,-1
 458 -11 l 1,31,32
 424 -2 424 -2 406.5 19 c 128,-1,33
 389 40 389 40 385 81 c 1,34,35
 328 -11 328 -11 220 -11 c 0,36,37
 146 -11 146 -11 103 31.5 c 128,-1,38
 60 74 60 74 60 145 c 0,39,40
 60 225 60 225 117 268.5 c 128,-1,41
 174 312 174 312 272 312 c 2,42,-1
 379 312 l 1,43,-1
 379 367 l 2,44,45
 379 432 379 432 350 462 c 128,-1,46
 321 492 321 492 254 492 c 0,47,48
 191 492 191 492 112 461 c 1,49,-1
 99 498 l 1,50,51
 186 532 186 532 258 532 c 0,52,53
 344 532 344 532 384.5 491 c 128,-1,54
 425 450 425 450 425 370 c 2,55,-1
 425 113 l 2,56,28
 425 69 425 69 435.5 50 c 128,-1,29
379 127 m 1,58,-1
 379 276 l 1,59,-1
 279 276 l 2,60,61
 197 276 197 276 153 243.5 c 128,-1,62
 109 211 109 211 109 146 c 0,63,64
 109 90 109 90 140 59 c 128,-1,65
 171 28 171 28 226 28 c 0,66,57
 327 28 327 28 379 127 c 1,58,-1
EndSplineSet
Substitution2: "'smcp' Lowercase to Small Capitals lookup 27 subtable" aringacute.sc
Substitution2: "'aalt' Access All Alternates lookup 0 subtable" aringacute.sc
EndChar

StartChar: uni2C65
Encoding: 11365 11365 371
Width: 534
GlyphClass: 2
Flags: W
AnchorPoint: "Anchor-18" 0 0 basechar 0
AnchorPoint: "Anchor-17" 0 0 basechar 0
AnchorPoint: "Anchor-16" 267 522 basechar 0
AnchorPoint: "Anchor-15" 0 0 basechar 0
AnchorPoint: "Anchor-14" 267 0 basechar 0
LayerCount: 2
Fore
SplineSet
435.5 50 m 128,-1,1
 446 31 446 31 469 22 c 1,2,-1
 458 -11 l 1,3,4
 424 -2 424 -2 406.5 19 c 128,-1,5
 389 40 389 40 385 81 c 1,6,7
 328 -11 328 -11 220 -11 c 2,8,-1
 206 -11 l 1,9,-1
 190 -70 l 1,10,-1
 163 -63 l 1,11,-1
 178 -7 l 1,12,13
 123 4 123 4 91.5 45 c 128,-1,14
 60 86 60 86 60 145 c 0,15,16
 60 223 60 223 115.5 267 c 128,-1,17
 171 311 171 311 266 313 c 1,18,-1
 314 484 l 1,19,20
 287 492 287 492 254 492 c 0,21,22
 191 492 191 492 112 461 c 1,23,-1
 99 498 l 1,24,25
 186 532 186 532 258 532 c 0,26,27
 293 532 293 532 325 524 c 1,28,-1
 343 591 l 1,29,-1
 369 583 l 1,30,-1
 350 515 l 1,31,32
 425 479 425 479 425 370 c 2,33,-1
 425 113 l 2,34,0
 425 69 425 69 435.5 50 c 128,-1,1
338 472 m 1,36,-1
 295 313 l 1,37,-1
 379 313 l 1,38,-1
 379 367 l 2,39,35
 379 444 379 444 338 472 c 1,36,-1
379 127 m 1,41,-1
 379 276 l 1,42,-1
 285 276 l 1,43,-1
 217 28 l 1,44,-1
 226 28 l 2,45,40
 327 28 327 28 379 127 c 1,41,-1
130 71 m 128,-1,47
 151 42 151 42 189 32 c 1,48,-1
 256 275 l 1,49,50
 185 271 185 271 147 239 c 128,-1,51
 109 207 109 207 109 146 c 0,52,46
 109 100 109 100 130 71 c 128,-1,47
EndSplineSet
Substitution2: "'smcp' Lowercase to Small Capitals lookup 27 subtable" uni2C65.sc
Substitution2: "'aalt' Access All Alternates lookup 0 subtable" uni2C65.sc
EndChar

StartChar: uni0250
Encoding: 592 592 373
Width: 534
GlyphClass: 2
Flags: W
AnchorPoint: "Anchor-18" 0 0 basechar 0
AnchorPoint: "Anchor-17" 0 0 basechar 0
AnchorPoint: "Anchor-16" 267 522 basechar 0
AnchorPoint: "Anchor-15" 66 533 basechar 0
AnchorPoint: "Anchor-14" 267 0 basechar 0
LayerCount: 2
Fore
SplineSet
422 61 m 1,1,-1
 435 24 l 1,2,3
 348 -10 348 -10 276 -10 c 0,4,5
 190 -10 190 -10 149.5 31 c 128,-1,6
 109 72 109 72 109 152 c 2,7,-1
 109 409 l 2,8,9
 109 453 109 453 98.5 472 c 128,-1,10
 88 491 88 491 65 500 c 1,11,-1
 76 533 l 1,12,13
 110 524 110 524 127.5 503 c 128,-1,14
 145 482 145 482 149 441 c 1,15,16
 206 533 206 533 314 533 c 0,17,18
 388 533 388 533 431 490.5 c 128,-1,19
 474 448 474 448 474 377 c 0,20,21
 474 297 474 297 417 253.5 c 128,-1,22
 360 210 360 210 262 210 c 2,23,-1
 155 210 l 1,24,-1
 155 155 l 2,25,26
 155 90 155 90 184 60 c 128,-1,27
 213 30 213 30 280 30 c 0,28,0
 343 30 343 30 422 61 c 1,1,-1
155 395 m 1,30,-1
 155 246 l 1,31,-1
 255 246 l 2,32,33
 337 246 337 246 381 278.5 c 128,-1,34
 425 311 425 311 425 376 c 0,35,36
 425 432 425 432 394 463 c 128,-1,37
 363 494 363 494 308 494 c 0,38,29
 207 494 207 494 155 395 c 1,30,-1
EndSplineSet
EndChar

StartChar: ae
Encoding: 230 230 374
Width: 846
GlyphClass: 2
Flags: W
AnchorPoint: "Anchor-18" 0 0 basechar 0
AnchorPoint: "Anchor-17" 0 0 basechar 0
AnchorPoint: "Anchor-16" 424 522 basechar 0
AnchorPoint: "Anchor-15" 0 0 basechar 0
AnchorPoint: "Anchor-14" 417 0 basechar 0
LayerCount: 2
Fore
SplineSet
782 241 m 1,1,-1
 428 241 l 1,2,3
 433 134 433 134 479 82 c 128,-1,4
 525 30 525 30 599 30 c 0,5,6
 641 30 641 30 673 42.5 c 128,-1,7
 705 55 705 55 741 83 c 1,8,-1
 764 53 l 1,9,10
 726 21 726 21 686 5 c 128,-1,11
 646 -11 646 -11 597 -11 c 0,12,13
 534 -11 534 -11 486.5 18 c 128,-1,14
 439 47 439 47 412 101 c 1,15,16
 370 41 370 41 325 15 c 128,-1,17
 280 -11 280 -11 221 -11 c 0,18,19
 146 -11 146 -11 103 31.5 c 128,-1,20
 60 74 60 74 60 145 c 0,21,22
 60 225 60 225 117 269 c 128,-1,23
 174 313 174 313 273 313 c 2,24,-1
 380 313 l 1,25,-1
 380 367 l 2,26,27
 380 432 380 432 351 462 c 128,-1,28
 322 492 322 492 255 492 c 0,29,30
 192 492 192 492 113 461 c 1,31,-1
 100 498 l 1,32,33
 185 532 185 532 259 532 c 0,34,35
 328 532 328 532 366.5 504.5 c 128,-1,36
 405 477 405 477 419 423 c 1,37,38
 473 532 473 532 589 532 c 0,39,40
 684 532 684 532 734 465 c 128,-1,41
 784 398 784 398 784 282 c 0,42,0
 784 261 784 261 782 241 c 1,1,-1
739 297 m 2,43,44
 739 388 739 388 701 440.5 c 128,-1,45
 663 493 663 493 589 493 c 0,46,47
 520 493 520 493 476 439.5 c 128,-1,48
 432 386 432 386 428 278 c 1,49,-1
 739 278 l 1,50,-1
 739 297 l 2,43,44
318 54.5 m 128,-1,52
 358 81 358 81 397 139 c 1,53,54
 380 192 380 192 380 256 c 2,55,-1
 380 276 l 1,56,-1
 280 276 l 2,57,58
 198 276 198 276 154 243.5 c 128,-1,59
 110 211 110 211 110 146 c 0,60,61
 110 90 110 90 141 59 c 128,-1,62
 172 28 172 28 227 28 c 0,63,51
 278 28 278 28 318 54.5 c 128,-1,52
EndSplineSet
Substitution2: "'smcp' Lowercase to Small Capitals lookup 27 subtable" ae.sc
Substitution2: "'aalt' Access All Alternates lookup 0 subtable" ae.sc
EndChar

StartChar: b
Encoding: 98 98 377
Width: 576
GlyphClass: 2
Flags: W
AnchorPoint: "Anchor-18" 0 0 basechar 0
AnchorPoint: "Anchor-17" 0 0 basechar 0
AnchorPoint: "Anchor-16" 299 735 basechar 0
AnchorPoint: "Anchor-15" 0 0 basechar 0
AnchorPoint: "Anchor-14" 301 0 basechar 0
LayerCount: 2
Fore
SplineSet
455.5 462.5 m 128,-1,1
 505 393 505 393 505 264 c 0,2,3
 505 136 505 136 453.5 62.5 c 128,-1,4
 402 -11 402 -11 309 -11 c 0,5,6
 260 -11 260 -11 221 11 c 128,-1,7
 182 33 182 33 155 69 c 1,8,-1
 150 0 l 1,9,-1
 110 0 l 1,10,-1
 110 735 l 1,11,-1
 156 741 l 1,12,-1
 156 447 l 1,13,14
 221 532 221 532 316 532 c 0,15,0
 406 532 406 532 455.5 462.5 c 128,-1,1
416 89 m 128,-1,17
 456 149 456 149 456 264 c 256,18,19
 456 379 456 379 418.5 436 c 128,-1,20
 381 493 381 493 309 493 c 0,21,22
 260 493 260 493 224.5 469.5 c 128,-1,23
 189 446 189 446 156 401 c 1,24,-1
 156 115 l 1,25,26
 183 75 183 75 220 52 c 128,-1,27
 257 29 257 29 302 29 c 0,28,16
 376 29 376 29 416 89 c 128,-1,17
EndSplineSet
Substitution2: "'smcp' Lowercase to Small Capitals lookup 27 subtable" b.sc
Substitution2: "'aalt' Access All Alternates lookup 0 subtable" b.sc
EndChar

StartChar: uni0253
Encoding: 595 595 381
Width: 576
GlyphClass: 2
Flags: W
AnchorPoint: "Anchor-18" 0 0 basechar 0
AnchorPoint: "Anchor-17" 0 0 basechar 0
AnchorPoint: "Anchor-16" 288 735 basechar 0
AnchorPoint: "Anchor-15" 0 0 basechar 0
AnchorPoint: "Anchor-14" 288 0 basechar 0
LayerCount: 2
Fore
SplineSet
455.5 462.5 m 128,-1,1
 505 393 505 393 505 264 c 0,2,3
 505 136 505 136 453.5 62.5 c 128,-1,4
 402 -11 402 -11 309 -11 c 0,5,6
 260 -11 260 -11 221 11 c 128,-1,7
 182 33 182 33 155 69 c 1,8,-1
 150 0 l 1,9,-1
 110 0 l 1,10,-1
 110 612 l 2,11,12
 110 672 110 672 147 706.5 c 128,-1,13
 184 741 184 741 248 741 c 0,14,15
 310 741 310 741 368 713 c 1,16,-1
 352 678 l 1,17,18
 300 701 300 701 251 701 c 0,19,20
 156 701 156 701 156 610 c 2,21,-1
 156 447 l 1,22,23
 221 532 221 532 316 532 c 0,24,0
 406 532 406 532 455.5 462.5 c 128,-1,1
416 89 m 128,-1,26
 456 149 456 149 456 264 c 256,27,28
 456 379 456 379 418.5 436 c 128,-1,29
 381 493 381 493 309 493 c 0,30,31
 260 493 260 493 224.5 469.5 c 128,-1,32
 189 446 189 446 156 401 c 1,33,-1
 156 115 l 1,34,35
 183 75 183 75 220 52 c 128,-1,36
 257 29 257 29 302 29 c 0,37,25
 376 29 376 29 416 89 c 128,-1,26
EndSplineSet
Substitution2: "'smcp' Lowercase to Small Capitals lookup 27 subtable" uni0253.sc
Substitution2: "'aalt' Access All Alternates lookup 0 subtable" uni0253.sc
EndChar

StartChar: uni02AD
Encoding: 685 685 382
Width: 319
GlyphClass: 2
Flags: W
AnchorPoint: "Anchor-18" 0 0 basechar 0
AnchorPoint: "Anchor-17" 0 0 basechar 0
AnchorPoint: "Anchor-16" 0 0 basechar 0
AnchorPoint: "Anchor-15" 0 0 basechar 0
AnchorPoint: "Anchor-14" 164 175 basechar 0
LayerCount: 2
Fore
SplineSet
30 401 m 1,0,-1
 30 527 l 1,1,-1
 289 527 l 1,2,-1
 289 401 l 1,3,-1
 251 401 l 1,4,-1
 251 491 l 1,5,-1
 69 491 l 1,6,-1
 69 401 l 1,7,-1
 30 401 l 1,0,-1
30 1 m 1,8,-1
 30 127 l 1,9,-1
 289 127 l 1,10,-1
 289 1 l 1,11,-1
 251 1 l 1,12,-1
 251 91 l 1,13,-1
 69 91 l 1,14,-1
 69 1 l 1,15,-1
 30 1 l 1,8,-1
EndSplineSet
EndChar

StartChar: uni0298
Encoding: 664 664 383
Width: 791
GlyphClass: 2
Flags: W
AnchorPoint: "Anchor-18" 0 0 basechar 0
AnchorPoint: "Anchor-17" 0 0 basechar 0
AnchorPoint: "Anchor-16" 395 684 basechar 0
AnchorPoint: "Anchor-15" 0 0 basechar 0
AnchorPoint: "Anchor-14" 395 0 basechar 0
LayerCount: 2
Fore
SplineSet
565.5 652.5 m 128,-1,1
 639 611 639 611 680 531.5 c 128,-1,2
 721 452 721 452 721 341 c 0,3,4
 721 232 721 232 681 153 c 128,-1,5
 641 74 641 74 567 31.5 c 128,-1,6
 493 -11 493 -11 395 -11 c 0,7,8
 299 -11 299 -11 225.5 30.5 c 128,-1,9
 152 72 152 72 111 151.5 c 128,-1,10
 70 231 70 231 70 340 c 256,11,12
 70 449 70 449 111 529 c 128,-1,13
 152 609 152 609 225.5 651.5 c 128,-1,14
 299 694 299 694 395 694 c 0,15,0
 492 694 492 694 565.5 652.5 c 128,-1,1
248.5 618.5 m 128,-1,17
 186 583 186 583 151 512.5 c 128,-1,18
 116 442 116 442 116 340 c 0,19,20
 116 240 116 240 151 170 c 128,-1,21
 186 100 186 100 249 64.5 c 128,-1,22
 312 29 312 29 395 29 c 0,23,24
 526 29 526 29 600.5 109.5 c 128,-1,25
 675 190 675 190 675 341 c 0,26,27
 675 493 675 493 599.5 573.5 c 128,-1,28
 524 654 524 654 395 654 c 0,29,16
 311 654 311 654 248.5 618.5 c 128,-1,17
421 366 m 128,-1,31
 431 356 431 356 431 341 c 256,32,33
 431 326 431 326 421 316 c 128,-1,34
 411 306 411 306 395 306 c 256,35,36
 379 306 379 306 369 316 c 128,-1,37
 359 326 359 326 359 341 c 256,38,39
 359 356 359 356 369 366 c 128,-1,40
 379 376 379 376 395 376 c 256,41,30
 411 376 411 376 421 366 c 128,-1,31
EndSplineSet
EndChar

StartChar: uni0180
Encoding: 384 384 385
Width: 581
GlyphClass: 2
Flags: W
AnchorPoint: "Anchor-18" 0 0 basechar 0
AnchorPoint: "Anchor-17" 0 0 basechar 0
AnchorPoint: "Anchor-16" 304 735 basechar 0
AnchorPoint: "Anchor-15" 0 0 basechar 0
AnchorPoint: "Anchor-14" 306 0 basechar 0
LayerCount: 2
Fore
SplineSet
460.5 462.5 m 128,-1,1
 510 393 510 393 510 264 c 0,2,3
 510 136 510 136 458.5 62.5 c 128,-1,4
 407 -11 407 -11 314 -11 c 0,5,6
 265 -11 265 -11 226 11 c 128,-1,7
 187 33 187 33 160 69 c 1,8,-1
 155 0 l 1,9,-1
 115 0 l 1,10,-1
 115 620 l 1,11,-1
 39 620 l 1,12,-1
 39 658 l 1,13,-1
 115 658 l 1,14,-1
 115 735 l 1,15,-1
 161 741 l 1,16,-1
 161 658 l 1,17,-1
 332 658 l 1,18,-1
 332 620 l 1,19,-1
 161 620 l 1,20,-1
 161 447 l 1,21,22
 226 532 226 532 321 532 c 0,23,0
 411 532 411 532 460.5 462.5 c 128,-1,1
421 89 m 128,-1,25
 461 149 461 149 461 264 c 256,26,27
 461 379 461 379 423.5 436 c 128,-1,28
 386 493 386 493 314 493 c 0,29,30
 265 493 265 493 229.5 469.5 c 128,-1,31
 194 446 194 446 161 401 c 1,32,-1
 161 115 l 1,33,34
 188 75 188 75 225 52 c 128,-1,35
 262 29 262 29 307 29 c 0,36,24
 381 29 381 29 421 89 c 128,-1,25
EndSplineSet
Substitution2: "'smcp' Lowercase to Small Capitals lookup 27 subtable" uni0180.sc
Substitution2: "'aalt' Access All Alternates lookup 0 subtable" uni0180.sc
EndChar

StartChar: uni0183
Encoding: 387 387 386
Width: 576
GlyphClass: 2
Flags: W
AnchorPoint: "Anchor-18" 0 0 basechar 0
AnchorPoint: "Anchor-17" 0 0 basechar 0
AnchorPoint: "Anchor-16" 288 735 basechar 0
AnchorPoint: "Anchor-15" 0 0 basechar 0
AnchorPoint: "Anchor-14" 288 0 basechar 0
LayerCount: 2
Fore
SplineSet
455.5 462.5 m 128,-1,1
 505 393 505 393 505 264 c 0,2,3
 505 136 505 136 453.5 62.5 c 128,-1,4
 402 -11 402 -11 309 -11 c 0,5,6
 260 -11 260 -11 221 11 c 128,-1,7
 182 33 182 33 155 69 c 1,8,-1
 150 0 l 1,9,-1
 110 0 l 1,10,-1
 110 735 l 1,11,-1
 396 735 l 1,12,-1
 389 696 l 1,13,-1
 156 696 l 1,14,-1
 156 447 l 1,15,16
 221 532 221 532 316 532 c 0,17,0
 406 532 406 532 455.5 462.5 c 128,-1,1
416 89 m 128,-1,19
 456 149 456 149 456 264 c 256,20,21
 456 379 456 379 418.5 436 c 128,-1,22
 381 493 381 493 309 493 c 0,23,24
 260 493 260 493 224.5 469.5 c 128,-1,25
 189 446 189 446 156 401 c 1,26,-1
 156 115 l 1,27,28
 183 75 183 75 220 52 c 128,-1,29
 257 29 257 29 302 29 c 0,30,18
 376 29 376 29 416 89 c 128,-1,19
EndSplineSet
Substitution2: "'smcp' Lowercase to Small Capitals lookup 27 subtable" uni0183.sc
Substitution2: "'aalt' Access All Alternates lookup 0 subtable" uni0183.sc
EndChar

StartChar: c
Encoding: 99 99 387
Width: 466
GlyphClass: 2
Flags: W
AnchorPoint: "Anchor-18" 0 0 basechar 0
AnchorPoint: "Anchor-17" 0 0 basechar 0
AnchorPoint: "Anchor-16" 285 522 basechar 0
AnchorPoint: "Anchor-15" 0 0 basechar 0
AnchorPoint: "Anchor-14" 283 0 basechar 0
LayerCount: 2
Fore
SplineSet
362 520 m 128,-1,1
 396 508 396 508 428 481 c 1,2,-1
 404 450 l 1,3,4
 378 471 378 471 350.5 481.5 c 128,-1,5
 323 492 323 492 287 492 c 0,6,7
 209 492 209 492 162.5 432 c 128,-1,8
 116 372 116 372 116 258 c 0,9,10
 116 146 116 146 162 88 c 128,-1,11
 208 30 208 30 286 30 c 0,12,13
 322 30 322 30 351 41.5 c 128,-1,14
 380 53 380 53 408 76 c 1,15,-1
 432 45 l 1,16,17
 370 -11 370 -11 286 -11 c 0,18,19
 220 -11 220 -11 170.5 21 c 128,-1,20
 121 53 121 53 94 113.5 c 128,-1,21
 67 174 67 174 67 258 c 0,22,23
 67 341 67 341 94 403 c 128,-1,24
 121 465 121 465 170 498.5 c 128,-1,25
 219 532 219 532 285 532 c 0,26,0
 328 532 328 532 362 520 c 128,-1,1
EndSplineSet
Substitution2: "'smcp' Lowercase to Small Capitals lookup 27 subtable" c.sc
Substitution2: "'aalt' Access All Alternates lookup 0 subtable" c.sc
EndChar

StartChar: ccedilla
Encoding: 231 231 391
Width: 466
GlyphClass: 2
Flags: W
AnchorPoint: "Anchor-18" 0 0 basechar 0
AnchorPoint: "Anchor-17" 0 0 basechar 0
AnchorPoint: "Anchor-16" 285 522 basechar 0
AnchorPoint: "Anchor-15" 0 0 basechar 0
AnchorPoint: "Anchor-14" 302 -222 basechar 0
LayerCount: 2
Fore
SplineSet
387 -140 m 0,1,2
 387 -178 387 -178 358.5 -200 c 128,-1,3
 330 -222 330 -222 288 -222 c 0,4,5
 245 -222 245 -222 212 -202 c 1,6,-1
 228 -172 l 1,7,8
 256 -187 256 -187 287 -187 c 0,9,10
 312 -187 312 -187 328 -175 c 128,-1,11
 344 -163 344 -163 344 -140 c 256,12,13
 344 -117 344 -117 323 -106 c 128,-1,14
 302 -95 302 -95 255 -95 c 1,15,-1
 262 -10 l 1,16,17
 172 -1 172 -1 119.5 69.5 c 128,-1,18
 67 140 67 140 67 258 c 0,19,20
 67 341 67 341 94 403 c 128,-1,21
 121 465 121 465 170 498.5 c 128,-1,22
 219 532 219 532 285 532 c 0,23,24
 328 532 328 532 362 520 c 128,-1,25
 396 508 396 508 428 481 c 1,26,-1
 404 450 l 1,27,28
 378 471 378 471 350.5 481.5 c 128,-1,29
 323 492 323 492 287 492 c 0,30,31
 209 492 209 492 162.5 432 c 128,-1,32
 116 372 116 372 116 258 c 0,33,34
 116 146 116 146 162 88 c 128,-1,35
 208 30 208 30 286 30 c 0,36,37
 322 30 322 30 351 41.5 c 128,-1,38
 380 53 380 53 408 76 c 1,39,-1
 432 45 l 1,40,41
 372 -8 372 -8 295 -11 c 1,42,-1
 295 -67 l 1,43,0
 387 -74 387 -74 387 -140 c 0,1,2
EndSplineSet
Substitution2: "'smcp' Lowercase to Small Capitals lookup 27 subtable" ccedilla.sc
Substitution2: "'aalt' Access All Alternates lookup 0 subtable" ccedilla.sc
EndChar

StartChar: uni0255
Encoding: 597 597 393
Width: 477
GlyphClass: 2
Flags: W
AnchorPoint: "Anchor-18" 0 0 basechar 0
AnchorPoint: "Anchor-17" 0 0 basechar 0
AnchorPoint: "Anchor-16" 286 522 basechar 0
AnchorPoint: "Anchor-15" 0 0 basechar 0
AnchorPoint: "Anchor-14" 286 -5 basechar 0
LayerCount: 2
Fore
SplineSet
420 184.5 m 128,-1,1
 448 157 448 157 448 113 c 0,2,3
 448 56 448 56 405 22.5 c 128,-1,4
 362 -11 362 -11 289 -11 c 0,5,6
 239 -11 239 -11 194 9 c 1,7,-1
 160 -62 l 1,8,-1
 125 -47 l 1,9,-1
 161 28 l 1,10,11
 116 62 116 62 91.5 120 c 128,-1,12
 67 178 67 178 67 258 c 0,13,14
 67 341 67 341 94 403 c 128,-1,15
 121 465 121 465 170 498.5 c 128,-1,16
 219 532 219 532 285 532 c 0,17,18
 328 532 328 532 362 520 c 128,-1,19
 396 508 396 508 428 481 c 1,20,-1
 404 449 l 1,21,22
 378 471 378 471 350.5 481.5 c 128,-1,23
 323 492 323 492 287 492 c 0,24,25
 209 492 209 492 162.5 432 c 128,-1,26
 116 372 116 372 116 258 c 0,27,28
 116 127 116 127 180 69 c 1,29,30
 216 147 216 147 253 179.5 c 128,-1,31
 290 212 290 212 342 212 c 0,32,0
 392 212 392 212 420 184.5 c 128,-1,1
373 50 m 128,-1,34
 405 70 405 70 405 113 c 0,35,36
 405 142 405 142 389 158 c 128,-1,37
 373 174 373 174 341 174 c 0,38,39
 301 174 301 174 273.5 147.5 c 128,-1,40
 246 121 246 121 211 48 c 1,41,42
 247 30 247 30 292 30 c 0,43,33
 341 30 341 30 373 50 c 128,-1,34
EndSplineSet
EndChar

StartChar: uni0188
Encoding: 392 392 395
Width: 466
GlyphClass: 2
Flags: W
AnchorPoint: "Anchor-18" 0 0 basechar 0
AnchorPoint: "Anchor-17" 0 0 basechar 0
AnchorPoint: "Anchor-16" 233 735 basechar 0
AnchorPoint: "Anchor-15" 0 0 basechar 0
AnchorPoint: "Anchor-14" 233 0 basechar 0
LayerCount: 2
Fore
SplineSet
595 708 m 1,1,-1
 575 678 l 1,2,3
 556 690 556 690 539 696 c 128,-1,4
 522 702 522 702 499 702 c 0,5,6
 428 702 428 702 428 615 c 2,7,-1
 428 481 l 1,8,-1
 407 454 l 1,9,10
 379 472 379 472 351 482 c 128,-1,11
 323 492 323 492 287 492 c 0,12,13
 209 492 209 492 162.5 432 c 128,-1,14
 116 372 116 372 116 258 c 0,15,16
 116 146 116 146 162 88 c 128,-1,17
 208 30 208 30 286 30 c 0,18,19
 322 30 322 30 351.5 41.5 c 128,-1,20
 381 53 381 53 409 76 c 1,21,-1
 432 45 l 1,22,23
 370 -11 370 -11 286 -11 c 0,24,25
 220 -11 220 -11 170.5 21 c 128,-1,26
 121 53 121 53 94 113.5 c 128,-1,27
 67 174 67 174 67 258 c 0,28,29
 67 341 67 341 94 403 c 128,-1,30
 121 465 121 465 170 498.5 c 128,-1,31
 219 532 219 532 285 532 c 0,32,33
 342 532 342 532 382 509 c 1,34,-1
 382 614 l 2,35,36
 382 676 382 676 413 708.5 c 128,-1,37
 444 741 444 741 497 741 c 0,38,0
 552 741 552 741 595 708 c 1,1,-1
EndSplineSet
Substitution2: "'smcp' Lowercase to Small Capitals lookup 27 subtable" uni0188.sc
Substitution2: "'aalt' Access All Alternates lookup 0 subtable" uni0188.sc
EndChar

StartChar: uni0297
Encoding: 663 663 396
Width: 486
GlyphClass: 2
Flags: W
AnchorPoint: "Anchor-18" 0 0 basechar 0
AnchorPoint: "Anchor-17" 0 0 basechar 0
AnchorPoint: "Anchor-16" 307 522 basechar 0
AnchorPoint: "Anchor-15" 0 0 basechar 0
AnchorPoint: "Anchor-14" 306 -195 basechar 0
LayerCount: 2
Fore
SplineSet
383 520 m 128,-1,1
 416 508 416 508 448 481 c 1,2,-1
 424 450 l 1,3,4
 373 492 373 492 311 492 c 0,5,6
 231 492 231 492 183.5 406 c 128,-1,7
 136 320 136 320 136 160 c 0,8,9
 136 2 136 2 182.5 -82 c 128,-1,10
 229 -166 229 -166 307 -166 c 0,11,12
 342 -166 342 -166 371.5 -154.5 c 128,-1,13
 401 -143 401 -143 429 -119 c 1,14,-1
 452 -152 l 1,15,16
 389 -207 389 -207 308 -207 c 0,17,18
 241 -207 241 -207 191 -164 c 128,-1,19
 141 -121 141 -121 114 -38.5 c 128,-1,20
 87 44 87 44 87 159 c 256,21,22
 87 274 87 274 114 358 c 128,-1,23
 141 442 141 442 191.5 487 c 128,-1,24
 242 532 242 532 310 532 c 0,25,0
 350 532 350 532 383 520 c 128,-1,1
EndSplineSet
EndChar

StartChar: uni023C
Encoding: 572 572 397
Width: 466
GlyphClass: 2
Flags: W
AnchorPoint: "Anchor-18" 0 0 basechar 0
AnchorPoint: "Anchor-17" 0 0 basechar 0
AnchorPoint: "Anchor-16" 285 522 basechar 0
AnchorPoint: "Anchor-15" 0 0 basechar 0
AnchorPoint: "Anchor-14" 283 0 basechar 0
LayerCount: 2
Fore
SplineSet
286 -11 m 0,1,2
 249 -11 249 -11 213 0 c 1,3,-1
 194 -70 l 1,4,-1
 165 -63 l 1,5,-1
 186 12 l 1,6,7
 130 42 130 42 98.5 105 c 128,-1,8
 67 168 67 168 67 258 c 0,9,10
 67 341 67 341 94 403 c 128,-1,11
 121 465 121 465 170 498.5 c 128,-1,12
 219 532 219 532 285 532 c 0,13,14
 307 532 307 532 328 529 c 1,15,-1
 345 591 l 1,16,-1
 373 583 l 1,17,-1
 356 522 l 1,18,19
 392 511 392 511 428 481 c 1,20,-1
 404 450 l 1,21,22
 377 473 377 473 346 483 c 1,23,-1
 224 41 l 1,24,25
 254 30 254 30 286 30 c 0,26,27
 322 30 322 30 351 41.5 c 128,-1,28
 380 53 380 53 408 76 c 1,29,-1
 432 45 l 1,30,0
 370 -11 370 -11 286 -11 c 0,1,2
137 131.5 m 128,-1,32
 158 80 158 80 197 55 c 1,33,-1
 317 490 l 1,34,35
 299 492 299 492 287 492 c 0,36,37
 209 492 209 492 162.5 432 c 128,-1,38
 116 372 116 372 116 258 c 0,39,31
 116 183 116 183 137 131.5 c 128,-1,32
EndSplineSet
Substitution2: "'smcp' Lowercase to Small Capitals lookup 27 subtable" uni023C.sc
Substitution2: "'aalt' Access All Alternates lookup 0 subtable" uni023C.sc
EndChar

StartChar: d
Encoding: 100 100 398
Width: 581
GlyphClass: 2
Flags: W
AnchorPoint: "Anchor-18" 296 261 basechar 0
AnchorPoint: "Anchor-17" 496 735 basechar 0
AnchorPoint: "Anchor-16" 285 735 basechar 0
AnchorPoint: "Anchor-15" 0 0 basechar 0
AnchorPoint: "Anchor-14" 301 0 basechar 0
LayerCount: 2
Fore
SplineSet
471 735 m 1,0,-1
 471 0 l 1,1,-1
 431 0 l 1,2,-1
 426 82 l 1,3,4
 402 40 402 40 362.5 14.5 c 128,-1,5
 323 -11 323 -11 266 -11 c 0,6,7
 177 -11 177 -11 124.5 61.5 c 128,-1,8
 72 134 72 134 72 259 c 0,9,10
 72 340 72 340 96.5 401.5 c 128,-1,11
 121 463 121 463 167 497.5 c 128,-1,12
 213 532 213 532 276 532 c 0,13,14
 368 532 368 532 425 459 c 1,15,-1
 425 741 l 1,16,-1
 471 735 l 1,0,-1
360.5 55 m 128,-1,18
 396 81 396 81 425 133 c 1,19,-1
 425 410 l 1,20,21
 369 493 369 493 282 493 c 0,22,23
 209 493 209 493 164.5 432 c 128,-1,24
 120 371 120 371 120 262 c 0,25,26
 120 151 120 151 160.5 90 c 128,-1,27
 201 29 201 29 272 29 c 0,28,17
 325 29 325 29 360.5 55 c 128,-1,18
EndSplineSet
Substitution2: "'smcp' Lowercase to Small Capitals lookup 27 subtable" d.sc
Substitution2: "'aalt' Access All Alternates lookup 0 subtable" d.sc
EndChar

StartChar: eth
Encoding: 240 240 399
Width: 551
GlyphClass: 2
Flags: W
AnchorPoint: "Anchor-18" 0 0 basechar 0
AnchorPoint: "Anchor-17" 0 0 basechar 0
AnchorPoint: "Anchor-16" 291 735 basechar 0
AnchorPoint: "Anchor-15" 0 0 basechar 0
AnchorPoint: "Anchor-14" 271 0 basechar 0
LayerCount: 2
Fore
SplineSet
439.5 512 m 128,-1,1
 479 422 479 422 479 285 c 0,2,3
 479 140 479 140 423 64.5 c 128,-1,4
 367 -11 367 -11 271 -11 c 0,5,6
 176 -11 176 -11 121.5 54.5 c 128,-1,7
 67 120 67 120 67 232 c 0,8,9
 67 294 67 294 89.5 347.5 c 128,-1,10
 112 401 112 401 155.5 433.5 c 128,-1,11
 199 466 199 466 259 466 c 0,12,13
 356 466 356 466 427 381 c 1,14,15
 418 461 418 461 384 523.5 c 128,-1,16
 350 586 350 586 289 635 c 1,17,-1
 211 556 l 1,18,-1
 176 570 l 1,19,-1
 259 655 l 1,20,21
 201 690 201 690 134 704 c 1,22,-1
 144 742 l 1,23,24
 220 727 220 727 288 685 c 1,25,-1
 356 757 l 1,26,-1
 385 732 l 1,27,-1
 318 664 l 1,28,0
 400 602 400 602 439.5 512 c 128,-1,1
389.5 95.5 m 128,-1,30
 432 162 432 162 432 288 c 0,31,32
 432 320 432 320 431 332 c 1,33,34
 359 427 359 427 265 427 c 0,35,36
 193 427 193 427 154 372 c 128,-1,37
 115 317 115 317 115 232 c 0,38,39
 115 135 115 135 156 82 c 128,-1,40
 197 29 197 29 271 29 c 0,41,29
 347 29 347 29 389.5 95.5 c 128,-1,30
EndSplineSet
Substitution2: "'smcp' Lowercase to Small Capitals lookup 27 subtable" eth.sc
Substitution2: "'aalt' Access All Alternates lookup 0 subtable" eth.sc
EndChar

StartChar: uni0238
Encoding: 568 568 400
Width: 851
GlyphClass: 2
Flags: W
AnchorPoint: "Anchor-18" 0 0 basechar 0
AnchorPoint: "Anchor-17" 0 0 basechar 0
AnchorPoint: "Anchor-16" 428 735 basechar 0
AnchorPoint: "Anchor-15" 0 0 basechar 0
AnchorPoint: "Anchor-14" 426 0 basechar 0
LayerCount: 2
Fore
SplineSet
732.5 462 m 128,-1,1
 780 392 780 392 780 264 c 0,2,3
 780 137 780 137 730.5 63 c 128,-1,4
 681 -11 681 -11 594 -11 c 0,5,6
 548 -11 548 -11 510 16 c 128,-1,7
 472 43 472 43 450 83 c 1,8,-1
 445 0 l 1,9,-1
 411 0 l 1,10,-1
 406 83 l 1,11,12
 382 41 382 41 344 15 c 128,-1,13
 306 -11 306 -11 256 -11 c 0,14,15
 202 -11 202 -11 160 22 c 128,-1,16
 118 55 118 55 95 116 c 128,-1,17
 72 177 72 177 72 259 c 0,18,19
 72 339 72 339 96 401 c 128,-1,20
 120 463 120 463 164 497.5 c 128,-1,21
 208 532 208 532 266 532 c 0,22,23
 350 532 350 532 405 450 c 1,24,-1
 405 735 l 1,25,-1
 451 741 l 1,26,-1
 451 448 l 1,27,28
 480 488 480 488 518 510 c 128,-1,29
 556 532 556 532 602 532 c 0,30,0
 685 532 685 532 732.5 462 c 128,-1,1
342.5 55 m 128,-1,32
 377 81 377 81 405 133 c 1,33,-1
 405 404 l 1,34,35
 374 449 374 449 343 471 c 128,-1,36
 312 493 312 493 271 493 c 0,37,38
 228 493 228 493 194 465.5 c 128,-1,39
 160 438 160 438 140 386 c 128,-1,40
 120 334 120 334 120 262 c 0,41,42
 120 152 120 152 159 90.5 c 128,-1,43
 198 29 198 29 262 29 c 0,44,31
 308 29 308 29 342.5 55 c 128,-1,32
693 89.5 m 128,-1,46
 731 150 731 150 731 264 c 0,47,48
 731 379 731 379 696 436 c 128,-1,49
 661 493 661 493 596 493 c 0,50,51
 551 493 551 493 517.5 469.5 c 128,-1,52
 484 446 484 446 451 400 c 1,53,-1
 451 136 l 1,54,55
 505 29 505 29 589 29 c 0,56,45
 655 29 655 29 693 89.5 c 128,-1,46
EndSplineSet
EndChar

StartChar: dcroat
Encoding: 273 273 403
Width: 586
GlyphClass: 2
Flags: W
AnchorPoint: "Anchor-18" 296 261 basechar 0
AnchorPoint: "Anchor-17" 496 735 basechar 0
AnchorPoint: "Anchor-16" 285 735 basechar 0
AnchorPoint: "Anchor-15" 0 0 basechar 0
AnchorPoint: "Anchor-14" 301 0 basechar 0
LayerCount: 2
Fore
SplineSet
547 658 m 1,0,-1
 547 620 l 1,1,-1
 471 620 l 1,2,-1
 471 0 l 1,3,-1
 431 0 l 1,4,-1
 426 82 l 1,5,6
 402 40 402 40 362.5 14.5 c 128,-1,7
 323 -11 323 -11 266 -11 c 0,8,9
 177 -11 177 -11 124.5 61.5 c 128,-1,10
 72 134 72 134 72 259 c 0,11,12
 72 340 72 340 96.5 401.5 c 128,-1,13
 121 463 121 463 167 497.5 c 128,-1,14
 213 532 213 532 276 532 c 0,15,16
 368 532 368 532 425 459 c 1,17,-1
 425 620 l 1,18,-1
 258 620 l 1,19,-1
 258 658 l 1,20,-1
 425 658 l 1,21,-1
 425 741 l 1,22,-1
 471 735 l 1,23,-1
 471 658 l 1,24,-1
 547 658 l 1,0,-1
360.5 55 m 128,-1,26
 396 81 396 81 425 133 c 1,27,-1
 425 410 l 1,28,29
 369 493 369 493 282 493 c 0,30,31
 209 493 209 493 164.5 432 c 128,-1,32
 120 371 120 371 120 262 c 0,33,34
 120 151 120 151 160.5 90 c 128,-1,35
 201 29 201 29 272 29 c 0,36,25
 325 29 325 29 360.5 55 c 128,-1,26
EndSplineSet
Substitution2: "'smcp' Lowercase to Small Capitals lookup 27 subtable" dcroat.sc
Substitution2: "'aalt' Access All Alternates lookup 0 subtable" dcroat.sc
EndChar

StartChar: uni0221
Encoding: 545 545 404
Width: 678
GlyphClass: 2
Flags: W
AnchorPoint: "Anchor-18" 0 0 basechar 0
AnchorPoint: "Anchor-17" 0 0 basechar 0
AnchorPoint: "Anchor-16" 339 735 basechar 0
AnchorPoint: "Anchor-15" 0 0 basechar 0
AnchorPoint: "Anchor-14" 339 -195 basechar 0
LayerCount: 2
Fore
SplineSet
679 169 m 128,-1,1
 705 144 705 144 705 105 c 0,2,3
 705 53 705 53 665.5 21 c 128,-1,4
 626 -11 626 -11 565 -11 c 0,5,6
 512 -11 512 -11 474 16 c 1,7,-1
 436 -62 l 1,8,-1
 401 -47 l 1,9,-1
 448 44 l 1,10,11
 435 61 435 61 429 88 c 1,12,13
 406 44 406 44 365.5 16.5 c 128,-1,14
 325 -11 325 -11 266 -11 c 0,15,16
 177 -11 177 -11 124.5 61.5 c 128,-1,17
 72 134 72 134 72 259 c 0,18,19
 72 340 72 340 96.5 401.5 c 128,-1,20
 121 463 121 463 167 497.5 c 128,-1,21
 213 532 213 532 276 532 c 0,22,23
 368 532 368 532 425 459 c 1,24,-1
 425 741 l 1,25,-1
 471 735 l 1,26,-1
 471 123 l 2,27,28
 471 107 471 107 474 93 c 1,29,30
 499 143 499 143 530.5 168.5 c 128,-1,31
 562 194 562 194 609 194 c 0,32,0
 653 194 653 194 679 169 c 128,-1,1
360.5 55 m 128,-1,34
 396 81 396 81 425 133 c 1,35,-1
 425 410 l 1,36,37
 369 493 369 493 282 493 c 0,38,39
 209 493 209 493 164.5 432 c 128,-1,40
 120 371 120 371 120 262 c 0,41,42
 120 151 120 151 160.5 90 c 128,-1,43
 201 29 201 29 272 29 c 0,44,33
 325 29 325 29 360.5 55 c 128,-1,34
635.5 50 m 128,-1,46
 662 70 662 70 662 105 c 0,47,48
 662 129 662 129 647 143 c 128,-1,49
 632 157 632 157 607 157 c 0,50,51
 570 157 570 157 545.5 133 c 128,-1,52
 521 109 521 109 493 54 c 1,53,54
 516 30 516 30 565 30 c 0,55,45
 609 30 609 30 635.5 50 c 128,-1,46
EndSplineSet
EndChar

StartChar: uni018D
Encoding: 397 397 407
Width: 563
GlyphClass: 2
Flags: W
AnchorPoint: "Anchor-18" 0 0 basechar 0
AnchorPoint: "Anchor-17" 0 0 basechar 0
AnchorPoint: "Anchor-16" 282 522 basechar 0
AnchorPoint: "Anchor-15" 0 0 basechar 0
AnchorPoint: "Anchor-14" 282 -195 basechar 0
LayerCount: 2
Fore
SplineSet
417 -3.5 m 128,-1,1
 442 -35 442 -35 443 -81 c 0,2,3
 443 -116 443 -116 423 -145 c 128,-1,4
 403 -174 403 -174 366.5 -191 c 128,-1,5
 330 -208 330 -208 281 -208 c 0,6,7
 233 -208 233 -208 195 -196.5 c 128,-1,8
 157 -185 157 -185 121 -161 c 1,9,-1
 147 -130 l 1,10,11
 179 -151 179 -151 208 -159.5 c 128,-1,12
 237 -168 237 -168 276 -168 c 0,13,14
 332 -168 332 -168 363.5 -143.5 c 128,-1,15
 395 -119 395 -119 395 -80 c 0,16,17
 395 -52 395 -52 383.5 -33.5 c 128,-1,18
 372 -15 372 -15 343 2.5 c 128,-1,19
 314 20 314 20 258 42 c 0,20,21
 158 81 158 81 112.5 137.5 c 128,-1,22
 67 194 67 194 67 291 c 0,23,24
 67 400 67 400 124.5 466 c 128,-1,25
 182 532 182 532 284 532 c 0,26,27
 383 532 383 532 440 468.5 c 128,-1,28
 497 405 497 405 497 293 c 0,29,30
 497 207 497 207 454 146.5 c 128,-1,31
 411 86 411 86 335 53 c 1,32,0
 392 28 392 28 417 -3.5 c 128,-1,1
132 192.5 m 128,-1,34
 149 153 149 153 188 124 c 128,-1,35
 227 95 227 95 297 68 c 1,36,37
 366 97 366 97 407 153 c 128,-1,38
 448 209 448 209 448 293 c 0,39,40
 448 388 448 388 405 440 c 128,-1,41
 362 492 362 492 284 492 c 0,42,43
 203 492 203 492 159 439 c 128,-1,44
 115 386 115 386 115 291 c 0,45,33
 115 232 115 232 132 192.5 c 128,-1,34
EndSplineSet
EndChar

StartChar: uni02A4
Encoding: 676 676 408
Width: 889
GlyphClass: 2
Flags: W
AnchorPoint: "Anchor-18" 296 261 basechar 0
AnchorPoint: "Anchor-17" 496 735 basechar 0
AnchorPoint: "Anchor-16" 523 735 basechar 0
AnchorPoint: "Anchor-15" 0 0 basechar 0
AnchorPoint: "Anchor-14" 641 -195 basechar 0
LayerCount: 2
Fore
SplineSet
856 3 m 0,1,2
 856 -57 856 -57 830 -104 c 128,-1,3
 804 -151 804 -151 755.5 -177 c 128,-1,4
 707 -203 707 -203 642 -203 c 0,5,6
 581 -203 581 -203 534.5 -181.5 c 128,-1,7
 488 -160 488 -160 450 -118 c 1,8,-1
 479 -92 l 1,9,10
 515 -129 515 -129 553.5 -145.5 c 128,-1,11
 592 -162 592 -162 641 -162 c 0,12,13
 722 -162 722 -162 764.5 -117.5 c 128,-1,14
 807 -73 807 -73 807 4 c 0,15,16
 807 87 807 87 761.5 123.5 c 128,-1,17
 716 160 716 160 618 160 c 2,18,-1
 560 160 l 1,19,-1
 560 198 l 1,20,-1
 776 481 l 1,21,-1
 471 481 l 1,22,-1
 471 0 l 1,23,-1
 431 0 l 1,24,-1
 426 82 l 1,25,26
 402 40 402 40 362.5 14.5 c 128,-1,27
 323 -11 323 -11 266 -11 c 0,28,29
 177 -11 177 -11 124.5 61.5 c 128,-1,30
 72 134 72 134 72 259 c 0,31,32
 72 340 72 340 96.5 401.5 c 128,-1,33
 121 463 121 463 167 497.5 c 128,-1,34
 213 532 213 532 276 532 c 0,35,36
 368 532 368 532 425 459 c 1,37,-1
 425 741 l 1,38,-1
 471 735 l 1,39,-1
 471 522 l 1,40,-1
 831 522 l 1,41,-1
 831 485 l 1,42,-1
 610 198 l 1,43,-1
 624 198 l 2,44,0
 856 198 856 198 856 3 c 0,1,2
360.5 55 m 128,-1,46
 396 81 396 81 425 133 c 1,47,-1
 425 410 l 1,48,49
 369 493 369 493 282 493 c 0,50,51
 209 493 209 493 164.5 432 c 128,-1,52
 120 371 120 371 120 262 c 0,53,54
 120 151 120 151 160.5 90 c 128,-1,55
 201 29 201 29 272 29 c 0,56,45
 325 29 325 29 360.5 55 c 128,-1,46
EndSplineSet
EndChar

StartChar: uni0257
Encoding: 599 599 409
Width: 581
GlyphClass: 2
Flags: W
AnchorPoint: "Anchor-18" 0 0 basechar 0
AnchorPoint: "Anchor-17" 0 0 basechar 0
AnchorPoint: "Anchor-16" 303 735 basechar 0
AnchorPoint: "Anchor-15" 0 0 basechar 0
AnchorPoint: "Anchor-14" 291 0 basechar 0
LayerCount: 2
Fore
SplineSet
638 708 m 1,1,-1
 618 678 l 1,2,3
 599 690 599 690 582 696 c 128,-1,4
 565 702 565 702 541 702 c 0,5,6
 509 702 509 702 490 681.5 c 128,-1,7
 471 661 471 661 471 615 c 2,8,-1
 471 0 l 1,9,-1
 431 0 l 1,10,-1
 426 82 l 1,11,12
 402 40 402 40 362.5 14.5 c 128,-1,13
 323 -11 323 -11 266 -11 c 0,14,15
 177 -11 177 -11 124.5 61.5 c 128,-1,16
 72 134 72 134 72 259 c 0,17,18
 72 340 72 340 96.5 401.5 c 128,-1,19
 121 463 121 463 167 497.5 c 128,-1,20
 213 532 213 532 276 532 c 0,21,22
 368 532 368 532 425 459 c 1,23,-1
 425 614 l 2,24,25
 425 676 425 676 456 708.5 c 128,-1,26
 487 741 487 741 540 741 c 0,27,0
 595 741 595 741 638 708 c 1,1,-1
360.5 55 m 128,-1,29
 396 81 396 81 425 133 c 1,30,-1
 425 410 l 1,31,32
 369 493 369 493 282 493 c 0,33,34
 209 493 209 493 164.5 432 c 128,-1,35
 120 371 120 371 120 262 c 0,36,37
 120 151 120 151 160.5 90 c 128,-1,38
 201 29 201 29 272 29 c 0,39,28
 325 29 325 29 360.5 55 c 128,-1,29
EndSplineSet
Substitution2: "'smcp' Lowercase to Small Capitals lookup 27 subtable" uni0257.sc
Substitution2: "'aalt' Access All Alternates lookup 0 subtable" uni0257.sc
EndChar

StartChar: uni0256
Encoding: 598 598 411
Width: 581
GlyphClass: 2
Flags: W
AnchorPoint: "Anchor-18" 0 0 basechar 0
AnchorPoint: "Anchor-17" 0 0 basechar 0
AnchorPoint: "Anchor-16" 448 735 basechar 0
AnchorPoint: "Anchor-15" 0 0 basechar 0
AnchorPoint: "Anchor-14" 291 -195 basechar 0
LayerCount: 2
Fore
SplineSet
638 -170 m 1,0,1
 595 -203 595 -203 541 -203 c 0,2,3
 488 -203 488 -203 456.5 -170.5 c 128,-1,4
 425 -138 425 -138 425 -76 c 2,5,-1
 425 81 l 1,6,7
 401 40 401 40 361.5 14.5 c 128,-1,8
 322 -11 322 -11 266 -11 c 0,9,10
 177 -11 177 -11 124.5 61.5 c 128,-1,11
 72 134 72 134 72 259 c 0,12,13
 72 340 72 340 96.5 401.5 c 128,-1,14
 121 463 121 463 167 497.5 c 128,-1,15
 213 532 213 532 276 532 c 0,16,17
 368 532 368 532 425 459 c 1,18,-1
 425 741 l 1,19,-1
 471 735 l 1,20,-1
 471 -77 l 2,21,22
 471 -123 471 -123 490.5 -143 c 128,-1,23
 510 -163 510 -163 542 -163 c 0,24,25
 566 -163 566 -163 583.5 -157 c 128,-1,26
 601 -151 601 -151 618 -140 c 1,27,-1
 638 -170 l 1,0,1
360.5 55 m 128,-1,29
 396 81 396 81 425 133 c 1,30,-1
 425 410 l 1,31,32
 369 493 369 493 282 493 c 0,33,34
 209 493 209 493 164.5 432 c 128,-1,35
 120 371 120 371 120 262 c 0,36,37
 120 151 120 151 160.5 90 c 128,-1,38
 201 29 201 29 272 29 c 0,39,28
 325 29 325 29 360.5 55 c 128,-1,29
EndSplineSet
Substitution2: "'smcp' Lowercase to Small Capitals lookup 27 subtable" uni0256.sc
Substitution2: "'aalt' Access All Alternates lookup 0 subtable" uni0256.sc
EndChar

StartChar: uni018C
Encoding: 396 396 412
Width: 581
GlyphClass: 2
Flags: W
AnchorPoint: "Anchor-18" 0 0 basechar 0
AnchorPoint: "Anchor-17" 0 0 basechar 0
AnchorPoint: "Anchor-16" 290 735 basechar 0
AnchorPoint: "Anchor-15" 0 0 basechar 0
AnchorPoint: "Anchor-14" 290 0 basechar 0
LayerCount: 2
Fore
SplineSet
471 0 m 1,0,-1
 431 0 l 1,1,-1
 426 82 l 1,2,3
 402 40 402 40 362.5 14.5 c 128,-1,4
 323 -11 323 -11 266 -11 c 0,5,6
 177 -11 177 -11 124.5 61.5 c 128,-1,7
 72 134 72 134 72 259 c 0,8,9
 72 340 72 340 96.5 401.5 c 128,-1,10
 121 463 121 463 167 497.5 c 128,-1,11
 213 532 213 532 276 532 c 0,12,13
 368 532 368 532 425 459 c 1,14,-1
 425 696 l 1,15,-1
 189 696 l 1,16,-1
 189 735 l 1,17,-1
 471 735 l 1,18,-1
 471 0 l 1,0,-1
360.5 55 m 128,-1,20
 396 81 396 81 425 133 c 1,21,-1
 425 410 l 1,22,23
 369 493 369 493 282 493 c 0,24,25
 209 493 209 493 164.5 432 c 128,-1,26
 120 371 120 371 120 262 c 0,27,28
 120 151 120 151 160.5 90 c 128,-1,29
 201 29 201 29 272 29 c 0,30,19
 325 29 325 29 360.5 55 c 128,-1,20
EndSplineSet
Substitution2: "'smcp' Lowercase to Small Capitals lookup 27 subtable" uni018C.sc
Substitution2: "'aalt' Access All Alternates lookup 0 subtable" uni018C.sc
EndChar

StartChar: uni02A3
Encoding: 675 675 414
Width: 866
GlyphClass: 2
Flags: W
AnchorPoint: "Anchor-18" 296 261 basechar 0
AnchorPoint: "Anchor-17" 496 735 basechar 0
AnchorPoint: "Anchor-16" 433 735 basechar 0
AnchorPoint: "Anchor-15" 0 0 basechar 0
AnchorPoint: "Anchor-14" 433 0 basechar 0
LayerCount: 2
Fore
SplineSet
832 485 m 1,0,-1
 524 41 l 1,1,-1
 828 41 l 1,2,-1
 823 0 l 1,3,-1
 431 0 l 1,4,-1
 426 82 l 1,5,6
 402 40 402 40 362.5 14.5 c 128,-1,7
 323 -11 323 -11 266 -11 c 0,8,9
 177 -11 177 -11 124.5 61.5 c 128,-1,10
 72 134 72 134 72 259 c 0,11,12
 72 340 72 340 96.5 401.5 c 128,-1,13
 121 463 121 463 167 497.5 c 128,-1,14
 213 532 213 532 276 532 c 0,15,16
 368 532 368 532 425 459 c 1,17,-1
 425 741 l 1,18,-1
 471 735 l 1,19,-1
 471 522 l 1,20,-1
 832 522 l 1,21,-1
 832 485 l 1,0,-1
360.5 55 m 128,-1,23
 396 81 396 81 425 133 c 1,24,-1
 425 410 l 1,25,26
 369 493 369 493 282 493 c 0,27,28
 209 493 209 493 164.5 432 c 128,-1,29
 120 371 120 371 120 262 c 0,30,31
 120 151 120 151 160.5 90 c 128,-1,32
 201 29 201 29 272 29 c 0,33,22
 325 29 325 29 360.5 55 c 128,-1,23
471 37 m 1,34,-1
 778 481 l 1,35,-1
 471 481 l 1,36,-1
 471 37 l 1,34,-1
EndSplineSet
EndChar

StartChar: uni02A5
Encoding: 677 677 416
Width: 874
GlyphClass: 2
Flags: W
AnchorPoint: "Anchor-18" 296 261 basechar 0
AnchorPoint: "Anchor-17" 496 735 basechar 0
AnchorPoint: "Anchor-16" 437 735 basechar 0
AnchorPoint: "Anchor-15" 0 0 basechar 0
AnchorPoint: "Anchor-14" 437 -195 basechar 0
LayerCount: 2
Fore
SplineSet
849 26.5 m 128,-1,1
 804 0 804 0 707 0 c 1,2,3
 705 -44 705 -44 705 -64 c 2,4,-1
 706 -107 l 1,5,-1
 668 -107 l 1,6,7
 667 -60 667 -60 670 0 c 1,8,-1
 431 0 l 1,9,-1
 426 82 l 1,10,11
 402 40 402 40 362.5 14.5 c 128,-1,12
 323 -11 323 -11 266 -11 c 0,13,14
 177 -11 177 -11 124.5 61.5 c 128,-1,15
 72 134 72 134 72 259 c 0,16,17
 72 340 72 340 96.5 401.5 c 128,-1,18
 121 463 121 463 167 497.5 c 128,-1,19
 213 532 213 532 276 532 c 0,20,21
 368 532 368 532 425 459 c 1,22,-1
 425 741 l 1,23,-1
 471 735 l 1,24,-1
 471 522 l 1,25,-1
 832 522 l 1,26,-1
 832 485 l 1,27,-1
 526 41 l 1,28,-1
 674 41 l 1,29,30
 681 117 681 117 714 159 c 128,-1,31
 747 201 747 201 801 201 c 0,32,33
 842 201 842 201 868 176.5 c 128,-1,34
 894 152 894 152 894 110 c 0,35,0
 894 53 894 53 849 26.5 c 128,-1,1
360.5 55 m 128,-1,37
 396 81 396 81 425 133 c 1,38,-1
 425 410 l 1,39,40
 369 493 369 493 282 493 c 0,41,42
 209 493 209 493 164.5 432 c 128,-1,43
 120 371 120 371 120 262 c 0,44,45
 120 151 120 151 160.5 90 c 128,-1,46
 201 29 201 29 272 29 c 0,47,36
 325 29 325 29 360.5 55 c 128,-1,37
471 481 m 1,48,-1
 471 36 l 1,49,-1
 777 481 l 1,50,-1
 471 481 l 1,48,-1
741 135 m 128,-1,52
 718 105 718 105 712 41 c 1,53,54
 788 40 788 40 820 56 c 128,-1,55
 852 72 852 72 852 110 c 0,56,57
 852 136 852 136 838 150.5 c 128,-1,58
 824 165 824 165 798 165 c 0,59,51
 764 165 764 165 741 135 c 128,-1,52
EndSplineSet
EndChar

